{
	"asset":{
		"generator":"Khronos glTF Blender I/O v4.0.43",
		"version":"2.0"
	},
	"extensionsUsed":[
		"KHR_materials_specular",
		"KHR_materials_ior",
		"KHR_materials_variants"
	],
	"extensionsRequired":[
		"KHR_materials_variants"
	],
	"extensions":{
		"KHR_materials_variants":{
			"variants":[
				{
					"name":"VariantName1"
				}
			]
		}
	},
	"scene":0,
	"scenes":[
		{
			"name":"Scene",
			"nodes":[
				0,
				1,
				2,
				3
			]
		}
	],
	"nodes":[
		{
			"mesh":0,
			"name":"groupNumber_0",
			"rotation":[
				0.7071068286895752,
				0,
				0,
				0.7071068286895752
			]
		},
		{
			"mesh":1,
			"name":"groupNumber_1",
			"rotation":[
				0.7071068286895752,
				0,
				0,
				0.7071068286895752
			]
		},
		{
			"mesh":2,
			"name":"groupNumber_6",
			"rotation":[
				0.7071068286895752,
				0,
				0,
				0.7071068286895752
			]
		},
		{
			"mesh":3,
			"name":"groupNumber_7",
			"rotation":[
				0.7071068286895752,
				0,
				0,
				0.7071068286895752
			]
		}
	],
	"materials":[
		{
			"doubleSided":true,
			"extensions":{
				"KHR_materials_specular":{
					"specularFactor":0
				},
				"KHR_materials_ior":{
					"ior":1.4500000476837158
				}
			},
			"name":"material0",
			"pbrMetallicRoughness":{
				"metallicFactor":0.07500000298023224,
				"roughnessFactor":0.16818200051784515
			}
		},
		{
			"doubleSided":true,
			"extensions":{
				"KHR_materials_specular":{
					"specularColorFactor":[
						1.3090908527374268,
						1.3090908527374268,
						1.3090908527374268
					]
				},
				"KHR_materials_ior":{
					"ior":1.4500000476837158
				}
			},
			"name":"material6",
			"pbrMetallicRoughness":{
				"baseColorTexture":{
					"index":0
				},
				"metallicFactor":0.07500000298023224,
				"roughnessFactor":0.16818200051784515
			}
		},
		{
			"doubleSided":true,
			"extensions":{
				"KHR_materials_specular":{
					"specularColorFactor":[
						1.3090908527374268,
						1.3090908527374268,
						1.3090908527374268
					]
				},
				"KHR_materials_ior":{
					"ior":1.4500000476837158
				}
			},
			"name":"material6.001",
			"pbrMetallicRoughness":{
				"baseColorTexture":{
					"index":1
				},
				"metallicFactor":0.07500000298023224,
				"roughnessFactor":0.16818200051784515
			}
		},
		{
			"doubleSided":true,
			"extensions":{
				"KHR_materials_specular":{
					"specularFactor":0
				},
				"KHR_materials_ior":{
					"ior":1.4500000476837158
				}
			},
			"name":"material7",
			"pbrMetallicRoughness":{
				"baseColorTexture":{
					"index":2
				},
				"metallicFactor":0.07500000298023224,
				"roughnessFactor":0.16818200051784515
			}
		}
	],
	"meshes":[
		{
			"name":"groupNumber_0",
			"primitives":[
				{
					"attributes":{
						"POSITION":0,
						"NORMAL":1,
						"TEXCOORD_0":2
					},
					"indices":3,
					"material":0
				}
			]
		},
		{
			"name":"groupNumber_1",
			"primitives":[
				{
					"attributes":{
						"POSITION":4,
						"NORMAL":5,
						"TEXCOORD_0":6
					},
					"indices":7,
					"material":1
				}
			]
		},
		{
			"name":"groupNumber_6",
			"primitives":[
				{
					"attributes":{
						"POSITION":8,
						"NORMAL":9,
						"TEXCOORD_0":10
					},
					"extensions":{
						"KHR_materials_variants":{
							"mappings":[
								{
									"material":2,
									"variants":[
										0
									]
								}
							]
						}
					},
					"indices":11,
					"material":2
				}
			]
		},
		{
			"name":"groupNumber_7",
			"primitives":[
				{
					"attributes":{
						"POSITION":12,
						"NORMAL":13,
						"TEXCOORD_0":14
					},
					"indices":15,
					"material":3
				}
			]
		}
	],
	"textures":[
		{
			"sampler":0,
			"source":0
		},
		{
			"sampler":0,
			"source":1
		},
		{
			"sampler":0,
			"source":2
		}
	],
	"images":[
		{
			"mimeType":"image/png",
			"name":"Latters",
			"uri":"Latters.png"
		},
		{
			"mimeType":"image/png",
			"name":"letterN",
			"uri":"letterN.png"
		},
		{
			"mimeType":"image/png",
			"name":"LettersLine",
			"uri":"LettersLine.png"
		}
	],
	"accessors":[
		{
			"bufferView":0,
			"componentType":5126,
			"count":20812,
			"max":[
				-0.9820129871368408,
				0.1648319959640503,
				-1.7188600301742554
			],
			"min":[
				-2.2521800994873047,
				-0.1648319959640503,
				-3.1135001182556152
			],
			"type":"VEC3"
		},
		{
			"bufferView":1,
			"componentType":5126,
			"count":20812,
			"type":"VEC3"
		},
		{
			"bufferView":2,
			"componentType":5126,
			"count":20812,
			"type":"VEC2"
		},
		{
			"bufferView":3,
			"componentType":5123,
			"count":60336,
			"type":"SCALAR"
		},
		{
			"bufferView":4,
			"componentType":5126,
			"count":70047,
			"max":[
				7.70890998840332,
				1.4968899488449097,
				3.2913200855255127
			],
			"min":[
				-2.8912699222564697,
				-1.4968899488449097,
				-3.3889999389648438
			],
			"type":"VEC3"
		},
		{
			"bufferView":5,
			"componentType":5126,
			"count":70047,
			"type":"VEC3"
		},
		{
			"bufferView":6,
			"componentType":5126,
			"count":70047,
			"type":"VEC2"
		},
		{
			"bufferView":7,
			"componentType":5125,
			"count":208038,
			"type":"SCALAR"
		},
		{
			"bufferView":8,
			"componentType":5126,
			"count":15591,
			"max":[
				-3.084199905395508,
				1.6497900485992432,
				3.04584002494812
			],
			"min":[
				-7.7159600257873535,
				-1.6497900485992432,
				-1.5685299634933472
			],
			"type":"VEC3"
		},
		{
			"bufferView":9,
			"componentType":5126,
			"count":15591,
			"type":"VEC3"
		},
		{
			"bufferView":10,
			"componentType":5126,
			"count":15591,
			"type":"VEC2"
		},
		{
			"bufferView":11,
			"componentType":5123,
			"count":47748,
			"type":"SCALAR"
		},
		{
			"bufferView":12,
			"componentType":5126,
			"count":219111,
			"max":[
				8.063791275024414,
				0.3243084251880646,
				3.6408934593200684
			],
			"min":[
				-8.055996894836426,
				-0.3285309374332428,
				-3.6312148571014404
			],
			"type":"VEC3"
		},
		{
			"bufferView":13,
			"componentType":5126,
			"count":219111,
			"type":"VEC3"
		},
		{
			"bufferView":14,
			"componentType":5126,
			"count":219111,
			"type":"VEC2"
		},
		{
			"bufferView":15,
			"componentType":5125,
			"count":1163310,
			"type":"SCALAR"
		}
	],
	"bufferViews":[
		{
			"buffer":0,
			"byteLength":249744,
			"byteOffset":0,
			"target":34962
		},
		{
			"buffer":0,
			"byteLength":249744,
			"byteOffset":249744,
			"target":34962
		},
		{
			"buffer":0,
			"byteLength":166496,
			"byteOffset":499488,
			"target":34962
		},
		{
			"buffer":0,
			"byteLength":120672,
			"byteOffset":665984,
			"target":34963
		},
		{
			"buffer":0,
			"byteLength":840564,
			"byteOffset":786656,
			"target":34962
		},
		{
			"buffer":0,
			"byteLength":840564,
			"byteOffset":1627220,
			"target":34962
		},
		{
			"buffer":0,
			"byteLength":560376,
			"byteOffset":2467784,
			"target":34962
		},
		{
			"buffer":0,
			"byteLength":832152,
			"byteOffset":3028160,
			"target":34963
		},
		{
			"buffer":0,
			"byteLength":187092,
			"byteOffset":3860312,
			"target":34962
		},
		{
			"buffer":0,
			"byteLength":187092,
			"byteOffset":4047404,
			"target":34962
		},
		{
			"buffer":0,
			"byteLength":124728,
			"byteOffset":4234496,
			"target":34962
		},
		{
			"buffer":0,
			"byteLength":95496,
			"byteOffset":4359224,
			"target":34963
		},
		{
			"buffer":0,
			"byteLength":2629332,
			"byteOffset":4454720,
			"target":34962
		},
		{
			"buffer":0,
			"byteLength":2629332,
			"byteOffset":7084052,
			"target":34962
		},
		{
			"buffer":0,
			"byteLength":1752888,
			"byteOffset":9713384,
			"target":34962
		},
		{
			"buffer":0,
			"byteLength":4653240,
			"byteOffset":11466272,
			"target":34963
		}
	],
	"samplers":[
		{
			"magFilter":9729,
			"minFilter":9987
		}
	],
	"buffers":[
		{
			"byteLength":16119512,
			"uri":"logo.bin"
		}
	]
}
