<?xml version="1.0" standalone="no"?>
<!DOCTYPE svg PUBLIC "-//W3C//DTD SVG 20010904//EN"
 "http://www.w3.org/TR/2001/REC-SVG-20010904/DTD/svg10.dtd">
<svg version="1.0" xmlns="http://www.w3.org/2000/svg"
 width="700.000000pt" height="700.000000pt" viewBox="0 0 700.000000 700.000000"
 preserveAspectRatio="xMidYMid meet">
<metadata>
Created by potrace 1.14, written by Peter Selinger 2001-2017
</metadata>
<g transform="translate(0.000000,700.000000) scale(0.100000,-0.100000)"
fill="#000000" stroke="none">
<path d="M3278 6995 c-2 -1 -42 -5 -89 -9 -47 -4 -96 -9 -109 -11 -12 -2 -48
-7 -79 -11 -57 -6 -76 -9 -121 -19 -36 -8 -71 -14 -105 -20 -125 -22 -500
-139 -599 -186 -22 -11 -44 -19 -48 -19 -16 0 -321 -155 -403 -205 -86 -52
-247 -156 -255 -165 -3 -3 -30 -23 -60 -45 -110 -79 -248 -200 -380 -334 -163
-164 -176 -179 -313 -351 -73 -92 -196 -280 -271 -414 -198 -355 -329 -725
-396 -1120 -22 -132 -24 -150 -37 -286 -15 -161 -7 -636 12 -710 2 -8 6 -40
10 -70 6 -61 11 -92 25 -165 6 -27 12 -59 14 -71 21 -111 96 -380 125 -449 5
-11 25 -65 46 -120 97 -258 253 -539 444 -800 74 -100 76 -104 187 -230 541
-619 1321 -1040 2133 -1151 25 -3 57 -7 70 -10 171 -26 637 -25 849 2 86 10
293 47 347 61 33 8 68 16 77 18 36 7 177 49 263 77 211 71 481 193 654 297 46
28 88 51 92 51 4 0 9 3 11 8 2 4 49 38 106 75 508 339 970 892 1216 1457 16
36 37 83 46 105 16 37 98 270 120 340 10 33 49 188 56 220 14 67 54 298 59
340 27 230 27 684 0 845 -2 14 -7 45 -10 70 -3 25 -7 56 -10 70 -3 14 -8 41
-11 60 -8 54 -54 262 -63 290 -5 14 -17 52 -26 85 -93 325 -273 699 -480 997
-156 225 -376 471 -579 645 -55 49 -103 90 -106 93 -13 14 -195 144 -275 197
-398 263 -909 462 -1360 529 -27 4 -57 9 -65 10 -8 2 -42 6 -76 9 -33 4 -74 9
-90 11 -32 5 -540 14 -546 9z"/>
</g>
</svg>
