<svg width="282" height="136" fill="none" xmlns="http://www.w3.org/2000/svg"><mask id="a" maskUnits="userSpaceOnUse" x="-9.5" y="-10" width="302" height="156" fill="#000"><path fill="#fff" d="M-9.5-10h302v156h-302z"/><path d="M32 118c-1.8 0-3-.3-3.6-.9-.6-.6-.9-1.8-.9-3.6v-15c0-1-.5-1.5-1.5-1.5H5c-1.8 0-3-.3-3.6-.9-.6-.6-.9-1.8-.9-3.6v-9c0-1.8.1-3.25.3-4.35.2-1.2.65-2.65 1.35-4.35l23.7-57.6c.7-1.7 1.45-2.8 2.25-3.3.8-.6 2.1-.9 3.9-.9h13.5c1.8 0 3 .3 3.6.9.6.6.9 1.8.9 3.6v60c0 1 .5 1.5 1.5 1.5h.75c1.8 0 3 .3 3.6.9.6.6.9 1.8.9 3.6v9c0 1.8-.3 3-.9 3.6-.6.6-1.8.9-3.6.9h-.75c-1 0-1.5.5-1.5 1.5v15c0 1.8-.3 3-.9 3.6-.6.6-1.8.9-3.6.9H32zm-6-39c1 0 1.5-.5 1.5-1.5V58c0-.4-.15-.65-.45-.75-.3-.1-.55.1-.75.6L19.1 77.2c-.5 1.2-.2 1.8.9 1.8h6zm65.256 40.5c-4.1 0-7.85-.6-11.25-1.8-3.3-1.3-6.15-3.05-8.55-5.25-2.3-2.3-4.1-5-5.4-8.1-1.2-3.1-1.8-6.55-1.8-10.35V37c0-3.7.6-7.1 1.8-10.2 1.3-3.2 3.1-5.9 5.4-8.1 2.4-2.3 5.25-4.05 8.55-5.25 3.4-1.3 7.15-1.95 11.25-1.95s7.8.65 11.1 1.95c3.4 1.2 6.25 2.95 8.55 5.25 2.4 2.2 4.2 4.9 5.4 8.1 1.3 3.1 1.95 6.5 1.95 10.2v57c0 3.8-.65 7.25-1.95 10.35-1.2 3.1-3 5.8-5.4 8.1-2.3 2.2-5.15 3.95-8.55 5.25-3.3 1.2-7 1.8-11.1 1.8zm0-18c1.4 0 2.5-.4 3.3-1.2.8-.8 1.2-1.9 1.2-3.3V34c0-1.4-.4-2.5-1.2-3.3-.8-.8-1.9-1.2-3.3-1.2s-2.5.4-3.3 1.2c-.8.8-1.2 1.9-1.2 3.3v63c0 1.4.4 2.5 1.2 3.3.8.8 1.9 1.2 3.3 1.2zM157.32 118c-1.8 0-3-.3-3.6-.9-.6-.6-.9-1.8-.9-3.6v-15c0-1-.5-1.5-1.5-1.5h-21c-1.8 0-3-.3-3.6-.9-.6-.6-.9-1.8-.9-3.6v-9c0-1.8.1-3.25.3-4.35.2-1.2.65-2.65 1.35-4.35l23.7-57.6c.7-1.7 1.45-2.8 2.25-3.3.8-.6 2.1-.9 3.9-.9h13.5c1.8 0 3 .3 3.6.9.6.6.9 1.8.9 3.6v60c0 1 .5 1.5 1.5 1.5h.75c1.8 0 3 .3 3.6.9.6.6.9 1.8.9 3.6v9c0 1.8-.3 3-.9 3.6-.6.6-1.8.9-3.6.9h-.75c-1 0-1.5.5-1.5 1.5v15c0 1.8-.3 3-.9 3.6-.6.6-1.8.9-3.6.9h-13.5zm-6-39c1 0 1.5-.5 1.5-1.5V58c0-.4-.15-.65-.45-.75-.3-.1-.55.1-.75.6l-7.2 19.35c-.5 1.2-.2 1.8.9 1.8h6zm74.209 40.5c-3.4 0-6.25-1.15-8.55-3.45-2.3-2.3-3.45-5.15-3.45-8.55 0-3.4 1.15-6.25 3.45-8.55 2.3-2.3 5.15-3.45 8.55-3.45 3.4 0 6.25 1.15 8.55 3.45 2.3 2.3 3.45 5.15 3.45 8.55 0 3.4-1.15 6.25-3.45 8.55-2.3 2.3-5.15 3.45-8.55 3.45zm0-57c-3.4 0-6.25-1.15-8.55-3.45-2.3-2.3-3.45-5.15-3.45-8.55 0-3.4 1.15-6.25 3.45-8.55 2.3-2.3 5.15-3.45 8.55-3.45 3.4 0 6.25 1.15 8.55 3.45 2.3 2.3 3.45 5.15 3.45 8.55 0 3.4-1.15 6.25-3.45 8.55-2.3 2.3-5.15 3.45-8.55 3.45zm48.709 71.55c-1 .8-1.85 1.1-2.55.9-.7-.2-1.35-.6-1.95-1.2-1.6-1.7-3.7-4.35-6.3-7.95-2.6-3.6-5.15-8.1-7.65-13.5-2.5-5.5-4.7-11.95-6.6-19.35-1.8-7.5-2.7-15.9-2.7-25.2 0-9.3.9-17.65 2.7-25.05 1.9-7.5 4.1-13.95 6.6-19.35 2.5-5.5 5.05-10.05 7.65-13.65 2.6-3.6 4.7-6.25 6.3-7.95.6-.6 1.25-1 1.95-1.2.7-.2 1.55.1 2.55.9l6.15 5.25c.5.5.85 1.1 1.05 1.8.2.6.05 1.35-.45 2.25-1 1.7-2.35 4.25-4.05 7.65-1.7 3.3-3.35 7.4-4.95 12.3-1.6 4.8-3 10.35-4.2 16.65-1.2 6.2-1.8 13-1.8 20.4 0 7.4.6 14.25 1.8 20.55 1.2 6.2 2.6 11.75 4.2 16.65 1.6 4.8 3.25 8.9 4.95 12.3 1.7 3.4 3.05 5.9 4.05 7.5.5.9.65 1.65.45 2.25-.2.7-.55 1.3-1.05 1.8l-6.15 5.25z"/></mask><path d="M32 118c-1.8 0-3-.3-3.6-.9-.6-.6-.9-1.8-.9-3.6v-15c0-1-.5-1.5-1.5-1.5H5c-1.8 0-3-.3-3.6-.9-.6-.6-.9-1.8-.9-3.6v-9c0-1.8.1-3.25.3-4.35.2-1.2.65-2.65 1.35-4.35l23.7-57.6c.7-1.7 1.45-2.8 2.25-3.3.8-.6 2.1-.9 3.9-.9h13.5c1.8 0 3 .3 3.6.9.6.6.9 1.8.9 3.6v60c0 1 .5 1.5 1.5 1.5h.75c1.8 0 3 .3 3.6.9.6.6.9 1.8.9 3.6v9c0 1.8-.3 3-.9 3.6-.6.6-1.8.9-3.6.9h-.75c-1 0-1.5.5-1.5 1.5v15c0 1.8-.3 3-.9 3.6-.6.6-1.8.9-3.6.9H32zm-6-39c1 0 1.5-.5 1.5-1.5V58c0-.4-.15-.65-.45-.75-.3-.1-.55.1-.75.6L19.1 77.2c-.5 1.2-.2 1.8.9 1.8h6zm65.256 40.5c-4.1 0-7.85-.6-11.25-1.8-3.3-1.3-6.15-3.05-8.55-5.25-2.3-2.3-4.1-5-5.4-8.1-1.2-3.1-1.8-6.55-1.8-10.35V37c0-3.7.6-7.1 1.8-10.2 1.3-3.2 3.1-5.9 5.4-8.1 2.4-2.3 5.25-4.05 8.55-5.25 3.4-1.3 7.15-1.95 11.25-1.95s7.8.65 11.1 1.95c3.4 1.2 6.25 2.95 8.55 5.25 2.4 2.2 4.2 4.9 5.4 8.1 1.3 3.1 1.95 6.5 1.95 10.2v57c0 3.8-.65 7.25-1.95 10.35-1.2 3.1-3 5.8-5.4 8.1-2.3 2.2-5.15 3.95-8.55 5.25-3.3 1.2-7 1.8-11.1 1.8zm0-18c1.4 0 2.5-.4 3.3-1.2.8-.8 1.2-1.9 1.2-3.3V34c0-1.4-.4-2.5-1.2-3.3-.8-.8-1.9-1.2-3.3-1.2s-2.5.4-3.3 1.2c-.8.8-1.2 1.9-1.2 3.3v63c0 1.4.4 2.5 1.2 3.3.8.8 1.9 1.2 3.3 1.2zM157.32 118c-1.8 0-3-.3-3.6-.9-.6-.6-.9-1.8-.9-3.6v-15c0-1-.5-1.5-1.5-1.5h-21c-1.8 0-3-.3-3.6-.9-.6-.6-.9-1.8-.9-3.6v-9c0-1.8.1-3.25.3-4.35.2-1.2.65-2.65 1.35-4.35l23.7-57.6c.7-1.7 1.45-2.8 2.25-3.3.8-.6 2.1-.9 3.9-.9h13.5c1.8 0 3 .3 3.6.9.6.6.9 1.8.9 3.6v60c0 1 .5 1.5 1.5 1.5h.75c1.8 0 3 .3 3.6.9.6.6.9 1.8.9 3.6v9c0 1.8-.3 3-.9 3.6-.6.6-1.8.9-3.6.9h-.75c-1 0-1.5.5-1.5 1.5v15c0 1.8-.3 3-.9 3.6-.6.6-1.8.9-3.6.9h-13.5zm-6-39c1 0 1.5-.5 1.5-1.5V58c0-.4-.15-.65-.45-.75-.3-.1-.55.1-.75.6l-7.2 19.35c-.5 1.2-.2 1.8.9 1.8h6zm74.209 40.5c-3.4 0-6.25-1.15-8.55-3.45-2.3-2.3-3.45-5.15-3.45-8.55 0-3.4 1.15-6.25 3.45-8.55 2.3-2.3 5.15-3.45 8.55-3.45 3.4 0 6.25 1.15 8.55 3.45 2.3 2.3 3.45 5.15 3.45 8.55 0 3.4-1.15 6.25-3.45 8.55-2.3 2.3-5.15 3.45-8.55 3.45zm0-57c-3.4 0-6.25-1.15-8.55-3.45-2.3-2.3-3.45-5.15-3.45-8.55 0-3.4 1.15-6.25 3.45-8.55 2.3-2.3 5.15-3.45 8.55-3.45 3.4 0 6.25 1.15 8.55 3.45 2.3 2.3 3.45 5.15 3.45 8.55 0 3.4-1.15 6.25-3.45 8.55-2.3 2.3-5.15 3.45-8.55 3.45zm48.709 71.55c-1 .8-1.85 1.1-2.55.9-.7-.2-1.35-.6-1.95-1.2-1.6-1.7-3.7-4.35-6.3-7.95-2.6-3.6-5.15-8.1-7.65-13.5-2.5-5.5-4.7-11.95-6.6-19.35-1.8-7.5-2.7-15.9-2.7-25.2 0-9.3.9-17.65 2.7-25.05 1.9-7.5 4.1-13.95 6.6-19.35 2.5-5.5 5.05-10.05 7.65-13.65 2.6-3.6 4.7-6.25 6.3-7.95.6-.6 1.25-1 1.95-1.2.7-.2 1.55.1 2.55.9l6.15 5.25c.5.5.85 1.1 1.05 1.8.2.6.05 1.35-.45 2.25-1 1.7-2.35 4.25-4.05 7.65-1.7 3.3-3.35 7.4-4.95 12.3-1.6 4.8-3 10.35-4.2 16.65-1.2 6.2-1.8 13-1.8 20.4 0 7.4.6 14.25 1.8 20.55 1.2 6.2 2.6 11.75 4.2 16.65 1.6 4.8 3.25 8.9 4.95 12.3 1.7 3.4 3.05 5.9 4.05 7.5.5.9.65 1.65.45 2.25-.2.7-.55 1.3-1.05 1.8l-6.15 5.25z" fill="#F91045"/><path d="M28.4 117.1l7.071-7.071L28.4 117.1zm-27-21l7.071-7.071L1.4 96.1zM.8 79.15l9.839 1.789.013-.072.012-.073L.8 79.15zm1.35-4.35l9.247 3.808v-.003L2.15 74.8zm23.7-57.6l-9.247-3.807v.002L25.85 17.2zm2.25-3.3l5.3 8.48.36-.225.34-.255-6-8zm21 0l-7.071 7.071L49.1 13.9zm6.75 66l7.071-7.071L55.85 79.9zm0 16.2l7.071 7.071L55.85 96.1zm-6.75 21l-7.071-7.071L49.1 117.1zM27.05 57.25l3.162-9.487-3.162 9.487zm-.75.6l-9.285-3.714-.045.113-.042.114L26.3 57.85zM19.1 77.2l9.23 3.846.075-.178.067-.18L19.1 77.2zM32 108c-.417 0-.288-.042.175.074.403.1 1.857.516 3.296 1.955L21.33 124.171c2.039 2.039 4.393 2.905 5.996 3.305 1.663.416 3.292.524 4.675.524v-20zm3.471 2.029c1.439 1.439 1.855 2.893 1.955 3.296.116.463.074.592.074.175h-20c0 1.383.108 3.012.524 4.675.4 1.603 1.266 3.957 3.305 5.996l14.142-14.142zM37.5 113.5v-15h-20v15h20zm0-15c0-2.041-.517-5.41-3.304-8.196C31.41 87.517 28.041 87 26 87v20c-1.041 0-3.66-.267-5.946-2.554-2.287-2.287-2.554-4.905-2.554-5.946h20zM26 87H5v20h21V87zM5 87c-.417 0-.288-.042.175.074.403.1 1.857.516 3.296 1.955L-5.67 103.17c2.039 2.039 4.393 2.905 5.996 3.305 1.663.416 3.292.524 4.675.524V87zm3.471 2.029c1.439 1.439 1.855 2.893 1.955 3.296.116.463.074.592.074.175h-20c0 1.383.108 3.012.524 4.675.4 1.603 1.266 3.957 3.305 5.996L8.47 89.029zM10.5 92.5v-9h-20v9h20zm0-9c0-1.515.09-2.296.139-2.561L-9.04 77.36c-.35 1.936-.46 4.055-.46 6.14h20zm.164-2.706c.03-.184.19-.867.733-2.186l-18.494-7.615c-.857 2.08-1.598 4.297-1.967 6.513l19.728 3.288zm.734-2.189l23.7-57.6-18.496-7.61-23.7 57.6 18.496 7.61zm23.699-57.598c.178-.432.234-.466.103-.274-.107.157-.648.927-1.8 1.647L22.8 5.42c-3.596 2.248-5.338 5.886-6.197 7.973l18.494 7.614zm-.997.893c-1.021.766-1.898 1.005-2.176 1.069-.293.067-.311.031.076.031V3c-2.441 0-6.455.316-9.9 2.9l12 16zM32 23h13.5V3H32v20zm13.5 0c.417 0 .288.042-.175-.074-.403-.1-1.857-.516-3.296-1.955L56.17 6.829c-2.039-2.039-4.393-2.905-5.996-3.305C48.512 3.108 46.883 3 45.5 3v20zm-3.471-2.029c-1.439-1.439-1.855-2.893-1.955-3.296-.116-.463-.074-.592-.074-.175h20c0-1.383-.108-3.012-.524-4.675-.4-1.603-1.266-3.957-3.305-5.996L42.03 20.97zM40 17.5v60h20v-60H40zm0 60c0 2.041.517 5.41 3.304 8.196C46.09 88.483 49.459 89 51.5 89V69c1.041 0 3.66.267 5.946 2.554C59.733 73.84 60 76.458 60 77.5H40zM51.5 89h.75V69h-.75v20zm.75 0c.417 0 .288.042-.175-.074-.403-.1-1.857-.516-3.296-1.955L62.92 72.83c-2.039-2.039-4.393-2.905-5.996-3.305-1.663-.416-3.292-.524-4.675-.524v20zm-3.471-2.029c-1.439-1.439-1.855-2.893-1.955-3.296-.116-.463-.074-.592-.074-.175h20c0-1.383-.108-3.012-.524-4.675-.4-1.603-1.266-3.957-3.305-5.996L48.78 86.97zM46.75 83.5v9h20v-9h-20zm0 9c0 .417-.042.288.074-.175.1-.403.516-1.857 1.955-3.296L62.92 103.17c2.039-2.039 2.905-4.393 3.305-5.996.416-1.663.524-3.292.524-4.675h-20zm2.029-3.471c1.439-1.439 2.893-1.855 3.296-1.955.463-.116.592-.074.175-.074v20c1.383 0 3.012-.108 4.675-.524 1.603-.4 3.957-1.266 5.996-3.305L48.78 89.029zM52.25 87h-.75v20h.75V87zm-.75 0c-2.041 0-5.41.517-8.196 3.304C40.517 93.09 40 96.458 40 98.5h20c0 1.041-.267 3.659-2.554 5.946S52.542 107 51.5 107V87zM40 98.5v15h20v-15H40zm0 15c0 .417-.042.288.074-.175.1-.403.516-1.857 1.955-3.296l14.142 14.142c2.039-2.039 2.905-4.393 3.305-5.996.416-1.663.524-3.292.524-4.675H40zm2.029-3.471c1.439-1.439 2.893-1.855 3.296-1.955.463-.116.592-.074.175-.074v20c1.383 0 3.012-.108 4.675-.524 1.603-.4 3.957-1.266 5.996-3.305L42.03 110.029zM45.5 108H32v20h13.5v-20zM26 89c2.041 0 5.41-.517 8.196-3.304C36.983 82.91 37.5 79.541 37.5 77.5h-20c0-1.041.267-3.66 2.554-5.946C22.34 69.267 24.959 69 26 69v20zm11.5-11.5V58h-20v19.5h20zm0-19.5c0-1.365-.245-3.479-1.538-5.632a10.597 10.597 0 00-5.75-4.605l-6.324 18.974a9.403 9.403 0 01-5.075-4.08A9.082 9.082 0 0117.5 58h20zm-7.288-10.237a10.412 10.412 0 00-9.821 1.753c-2.104 1.683-3.02 3.73-3.376 4.62l18.57 7.428c-.156.39-.847 2.087-2.7 3.57a9.563 9.563 0 01-4.262 1.936 9.57 9.57 0 01-4.735-.333l6.324-18.974zm-13.284 6.6l-7.2 19.35 18.744 6.974 7.2-19.35-18.744-6.974zm-7.059 18.99c-.423 1.016-2.11 5.175.137 9.67C12.763 88.536 18.264 89 20 89V69c.636 0 5.437.163 7.894 5.078a9.022 9.022 0 01.92 5.014 7.16 7.16 0 01-.483 1.954L9.869 73.354zM20 89h6V69h-6v20zm60.006 28.7l-3.665 9.304.167.066.17.06 3.328-9.43zm-8.55-5.25l-7.071 7.071.153.154.16.147 6.758-7.372zm-5.4-8.1l-9.326 3.61.05.129.054.128 9.222-3.867zm0-77.55l-9.265-3.764-.031.077-.03.077 9.326 3.61zm5.4-8.1l6.912 7.226.007-.006-6.92-7.22zm8.55-5.25l3.417 9.398.078-.028.076-.03-3.571-9.34zm22.35 0l-3.665 9.304.167.066.17.06 3.328-9.43zm8.55 5.25l-7.071 7.071.153.154.161.146 6.757-7.371zm5.4 8.1l-9.363 3.511.067.18.074.176 9.222-3.867zm0 77.55l-9.222-3.867-.054.128-.05.129 9.326 3.61zm-5.4 8.1l6.912 7.226.007-.006-6.919-7.22zm-8.55 5.25l3.417 9.398.077-.028.077-.029-3.571-9.341zm-7.8-17.4l7.071 7.071-7.071-7.071zm0-69.6l7.071-7.071-7.071 7.071zm-6.6 69.6l7.07-7.071-7.07 7.071zm3.3 9.2c-3.12 0-5.727-.455-7.922-1.23l-6.656 18.86c4.604 1.625 9.498 2.37 14.578 2.37v-20zm-7.585-1.104c-2.262-.891-4.039-2.017-5.458-3.318L64.7 119.822c3.38 3.099 7.303 5.473 11.642 7.182l7.33-18.608zm-5.144-3.017c-1.351-1.351-2.434-2.953-3.25-4.896l-18.443 7.734c1.785 4.257 4.302 8.055 7.55 11.304l14.143-14.142zm-3.145-4.639c-.696-1.796-1.126-4-1.126-6.74h-20c0 4.86.77 9.556 2.474 13.96l18.652-7.22zM74.255 94V37h-20v57h20zm0-57c0-2.605.419-4.764 1.126-6.59L56.73 23.19c-1.693 4.374-2.474 9.015-2.474 13.81h20zm1.064-6.436c.815-2.006 1.852-3.494 3.048-4.638L64.544 11.474c-3.404 3.256-5.967 7.168-7.753 11.562l18.53 7.528zm3.055-4.644c1.34-1.285 2.98-2.32 5.048-3.072L76.588 4.052c-4.53 1.648-8.592 4.113-12.051 7.428l13.838 14.44zm5.202-3.13c2.125-.812 4.646-1.29 7.679-1.29v-20c-5.168 0-10.147.822-14.822 2.61l7.143 18.68zm7.679-1.29c3.038 0 5.469.48 7.435 1.254l7.33-18.608C101.387 2.32 96.417 1.5 91.256 1.5v20zm7.772 1.38c2.146.757 3.673 1.757 4.807 2.891l14.142-14.142c-3.466-3.466-7.639-5.966-12.293-7.609l-6.656 18.86zm5.121 3.192c1.181 1.083 2.118 2.438 2.794 4.24l18.726-7.023c-1.724-4.599-4.387-8.644-8.006-11.96L104.149 26.07zm2.935 4.595c.737 1.758 1.172 3.827 1.172 6.333h20c0-4.894-.865-9.625-2.728-14.067l-18.444 7.734zM108.256 37v57h20V37h-20zm0 57c0 2.645-.448 4.757-1.172 6.483l18.444 7.734c1.876-4.474 2.728-9.262 2.728-14.217h-20zm-1.276 6.74a12.17 12.17 0 01-2.993 4.49l13.838 14.44a32.18 32.18 0 007.807-11.71l-18.652-7.22zm-2.986 4.484c-1.21 1.157-2.875 2.243-5.21 3.135l7.143 18.682c4.466-1.708 8.501-4.122 11.891-7.365l-13.824-14.452zm-5.056 3.078c-2.038.741-4.556 1.198-7.682 1.198v20c5.074 0 9.955-.743 14.517-2.402l-6.835-18.796zm-7.682 3.198c3.385 0 7.271-1.029 10.371-4.129L87.485 93.229a6.155 6.155 0 012.228-1.427c.737-.268 1.3-.302 1.543-.302v20zm10.371-4.129c3.1-3.1 4.129-6.986 4.129-10.371h-20c0-.243.034-.806.302-1.542a6.158 6.158 0 011.427-2.23l14.142 14.143zM105.756 97V34h-20v63h20zm0-63c0-3.385-1.029-7.271-4.129-10.371L87.485 37.77a6.157 6.157 0 01-1.427-2.229c-.268-.736-.302-1.299-.302-1.542h20zm-4.129-10.371c-3.1-3.1-6.986-4.129-10.371-4.129v20c-.243 0-.806-.034-1.543-.302a6.155 6.155 0 01-2.228-1.427l14.142-14.142zM91.256 19.5c-3.385 0-7.272 1.03-10.371 4.129L95.027 37.77a6.155 6.155 0 01-2.229 1.427c-.736.268-1.3.302-1.542.302v-20zm-10.371 4.129c-3.1 3.1-4.13 6.986-4.13 10.371h20c0 .243-.033.806-.301 1.542a6.156 6.156 0 01-1.427 2.23L80.885 23.628zM76.755 34v63h20V34h-20zm0 63c0 3.385 1.03 7.271 4.13 10.371l14.142-14.142a6.156 6.156 0 011.427 2.229c.268.736.302 1.299.302 1.542h-20zm4.13 10.371c3.1 3.1 6.986 4.129 10.37 4.129v-20c.244 0 .807.034 1.543.302a6.16 6.16 0 012.229 1.427L80.885 107.37zm72.835 9.729l7.071-7.071-7.071 7.071zm-27-21l7.071-7.071-7.071 7.071zm-.6-16.95l9.839 1.789.013-.072.012-.073-9.864-1.644zm1.35-4.35l9.247 3.808.001-.003-9.248-3.805zm23.7-57.6l-9.246-3.807-.001.002 9.247 3.805zm2.25-3.3l5.3 8.48.361-.225.339-.255-6-8zm21 0l-7.071 7.071 7.071-7.071zm6.75 66l7.071-7.071-7.071 7.071zm0 16.2l7.071 7.071-7.071-7.071zm-6.75 21l-7.071-7.071 7.071 7.071zm-22.05-59.85l3.163-9.487-3.163 9.487zm-.75.6l-9.284-3.714-.046.113-.042.114 9.372 3.487zm-7.2 19.35l9.231 3.846.074-.178.068-.18-9.373-3.488zm12.9 30.8c-.417 0-.287-.042.176.074.402.1 1.857.516 3.295 1.955l-14.142 14.142c2.039 2.039 4.393 2.905 5.996 3.305 1.663.416 3.293.524 4.675.524v-20zm3.471 2.029c1.439 1.439 1.855 2.893 1.956 3.296.116.463.073.592.073.175h-20c0 1.383.108 3.012.524 4.675.401 1.603 1.267 3.957 3.305 5.996l14.142-14.142zm2.029 3.471v-15h-20v15h20zm0-15c0-2.041-.517-5.41-3.304-8.196C156.73 87.517 153.362 87 151.32 87v20c-1.041 0-3.659-.267-5.946-2.554s-2.554-4.905-2.554-5.946h20zM151.32 87h-21v20h21V87zm-21 0c-.417 0-.287-.042.176.074.402.1 1.857.516 3.295 1.955l-14.142 14.142c2.039 2.039 4.393 2.905 5.996 3.305 1.663.416 3.293.524 4.675.524V87zm3.471 2.029c1.439 1.439 1.855 2.893 1.956 3.296.116.463.073.592.073.175h-20c0 1.383.108 3.012.524 4.675.401 1.603 1.267 3.957 3.305 5.996l14.142-14.142zm2.029 3.471v-9h-20v9h20zm0-9c0-1.515.091-2.296.139-2.561l-19.677-3.578c-.352 1.935-.462 4.054-.462 6.139h20zm.164-2.706c.031-.184.19-.867.733-2.186l-18.493-7.615c-.857 2.08-1.598 4.297-1.968 6.513l19.728 3.288zm.734-2.189l23.7-57.6-18.495-7.61-23.7 57.6 18.495 7.61zm23.699-57.598c.178-.432.235-.466.103-.274-.107.157-.648.927-1.8 1.647l-10.6-16.96c-3.596 2.248-5.337 5.886-6.196 7.973l18.493 7.614zm-.997.893c-1.021.766-1.898 1.005-2.176 1.069-.292.067-.311.031.076.031V3c-2.441 0-6.455.316-9.9 2.9l12 16zm-2.1 1.1h13.5V3h-13.5v20zm13.5 0c.418 0 .288.042-.175-.074-.403-.1-1.857-.516-3.296-1.955l14.142-14.142c-2.038-2.039-4.393-2.905-5.995-3.305-1.663-.416-3.293-.524-4.676-.524v20zm-3.471-2.029c-1.438-1.439-1.854-2.893-1.955-3.296-.116-.463-.074-.592-.074-.175h20c0-1.383-.108-3.012-.523-4.675-.401-1.603-1.267-3.957-3.306-5.996L167.349 20.97zM165.32 17.5v60h20v-60h-20zm0 60c0 2.041.517 5.41 3.304 8.196 2.787 2.787 6.155 3.304 8.196 3.304V69c1.042 0 3.66.267 5.946 2.554 2.287 2.287 2.554 4.904 2.554 5.946h-20zm11.5 11.5h.75V69h-.75v20zm.75 0c.418 0 .288.042-.175-.074-.403-.1-1.857-.516-3.296-1.955l14.142-14.142c-2.038-2.039-4.393-2.905-5.995-3.305-1.663-.416-3.293-.524-4.676-.524v20zm-3.471-2.029c-1.438-1.439-1.854-2.893-1.955-3.296-.116-.463-.074-.592-.074-.175h20c0-1.383-.108-3.012-.523-4.675-.401-1.603-1.267-3.957-3.306-5.996L174.099 86.97zM172.07 83.5v9h20v-9h-20zm0 9c0 .417-.042.288.074-.175.101-.403.517-1.857 1.955-3.296l14.142 14.142c2.039-2.039 2.905-4.393 3.306-5.996.415-1.663.523-3.292.523-4.675h-20zm2.029-3.471c1.439-1.439 2.893-1.855 3.296-1.955.463-.116.593-.074.175-.074v20c1.383 0 3.013-.108 4.676-.524 1.602-.4 3.957-1.266 5.995-3.305l-14.142-14.142zM177.57 87h-.75v20h.75V87zm-.75 0c-2.041 0-5.409.517-8.196 3.304s-3.304 6.154-3.304 8.196h20c0 1.041-.267 3.659-2.554 5.946-2.286 2.287-4.904 2.554-5.946 2.554V87zm-11.5 11.5v15h20v-15h-20zm0 15c0 .417-.042.288.074-.175.101-.403.517-1.857 1.955-3.296l14.142 14.142c2.039-2.039 2.905-4.393 3.306-5.996.415-1.663.523-3.292.523-4.675h-20zm2.029-3.471c1.439-1.439 2.893-1.855 3.296-1.955.463-.116.593-.074.175-.074v20c1.383 0 3.013-.108 4.676-.524 1.602-.4 3.957-1.266 5.995-3.305l-14.142-14.142zM170.82 108h-13.5v20h13.5v-20zm-19.5-19c2.042 0 5.41-.517 8.196-3.304 2.787-2.787 3.304-6.155 3.304-8.196h-20c0-1.041.267-3.66 2.554-5.946 2.287-2.287 4.905-2.554 5.946-2.554v20zm11.5-11.5V58h-20v19.5h20zm0-19.5c0-1.365-.245-3.479-1.537-5.632a10.598 10.598 0 00-5.75-4.605l-6.325 18.974a9.404 9.404 0 01-5.075-4.08A9.085 9.085 0 01142.82 58h20zm-7.287-10.237a10.412 10.412 0 00-9.822 1.753c-2.103 1.683-3.02 3.73-3.375 4.62l18.569 7.428c-.156.39-.847 2.087-2.7 3.57a9.562 9.562 0 01-4.261 1.936 9.571 9.571 0 01-4.736-.333l6.325-18.974zm-13.285 6.6l-7.2 19.35 18.745 6.974 7.2-19.35-18.745-6.974zm-7.058 18.99c-.423 1.016-2.111 5.175.136 9.67 2.757 5.514 8.258 5.977 9.994 5.977V69c.636 0 5.437.163 7.895 5.078a9.022 9.022 0 01.919 5.014c-.114 1.03-.387 1.725-.483 1.954l-18.461-7.692zM145.32 89h6V69h-6v20zm71.659 27.05l-7.071 7.071 7.071-7.071zm17.1 0l7.071 7.071-7.071-7.071zm-8.55-6.55c-.881 0-1.147-.189-1.479-.521l-14.142 14.142c4.268 4.268 9.703 6.379 15.621 6.379v-20zm-1.479-.521c-.332-.332-.521-.597-.521-1.479h-20c0 5.918 2.111 11.353 6.379 15.621l14.142-14.142zm-.521-1.479c0-.882.189-1.147.521-1.479l-14.142-14.142c-4.268 4.268-6.379 9.703-6.379 15.621h20zm.521-1.479c.332-.332.598-.521 1.479-.521v-20c-5.918 0-11.353 2.111-15.621 6.379l14.142 14.142zm1.479-.521c.882 0 1.147.189 1.479.521l14.142-14.142c-4.268-4.268-9.702-6.379-15.621-6.379v20zm1.479.521c.332.332.521.597.521 1.479h20c0-5.918-2.111-11.353-6.379-15.621l-14.142 14.142zm.521 1.479c0 .882-.189 1.147-.521 1.479l14.142 14.142c4.268-4.268 6.379-9.703 6.379-15.621h-20zm-.521 1.479c-.332.332-.597.521-1.479.521v20c5.919 0 11.353-2.111 15.621-6.379l-14.142-14.142zM225.529 52.5c-.881 0-1.147-.189-1.479-.521L209.908 66.12c4.268 4.268 9.703 6.379 15.621 6.379v-20zm-1.479-.521c-.332-.332-.521-.597-.521-1.479h-20c0 5.918 2.111 11.353 6.379 15.621L224.05 51.98zm-.521-1.479c0-.882.189-1.147.521-1.479L209.908 34.88c-4.268 4.268-6.379 9.703-6.379 15.621h20zm.521-1.479c.332-.332.598-.521 1.479-.521v-20c-5.918 0-11.353 2.111-15.621 6.379L224.05 49.02zm1.479-.521c.882 0 1.147.189 1.479.521L241.15 34.88c-4.268-4.268-9.702-6.379-15.621-6.379v20zm1.479.521c.332.332.521.597.521 1.479h20c0-5.918-2.111-11.353-6.379-15.621L227.008 49.02zm.521 1.479c0 .882-.189 1.147-.521 1.479L241.15 66.12c4.268-4.268 6.379-9.703 6.379-15.621h-20zm-.521 1.479c-.332.332-.597.521-1.479.521v20c5.919 0 11.353-2.111 15.621-6.379L227.008 51.98zm47.23 82.071l6.247 7.809.125-.1.121-.103-6.493-7.606zm-4.5-.3l-7.282 6.854.104.11.107.107 7.071-7.071zm-6.3-7.95l8.107-5.855-8.107 5.855zm-7.65-13.5l-9.103 4.138.014.032.015.031 9.074-4.201zm-6.6-19.35l-9.724 2.334.019.076.019.077 9.686-2.487zm0-50.25l-9.693-2.456-.012.046-.011.047 9.716 2.363zm6.6-19.35l9.075 4.201.015-.031.014-.032-9.104-4.138zm7.65-13.65l-8.107-5.855 8.107 5.855zm6.3-7.95l-7.071-7.071-.107.107-.104.11 7.282 6.854zm1.95-1.2l-2.747-9.615L271.688.55zm2.55.9l6.493-7.606-.121-.103-.125-.1-6.247 7.809zm6.15 5.25l7.071-7.071-.278-.279-.3-.256-6.493 7.606zm1.05 1.8l-9.615 2.747.06.21.068.205 9.487-3.162zm-.45 2.25l8.62 5.07.062-.106.06-.108-8.742-4.856zm-4.05 7.65l8.89 4.58.028-.054.027-.054-8.945-4.472zm-4.95 12.3l9.487 3.162.01-.029.009-.029-9.506-3.104zm-4.2 16.65l9.818 1.9.003-.014.003-.015-9.824-1.871zm0 40.95l-9.823 1.871.003.015.002.014 9.818-1.9zm4.2 16.65l-9.506 3.104.01.029.009.029 9.487-3.162zm4.95 12.3l8.945-4.472-8.945 4.472zm4.05 7.5l8.742-4.856-.125-.226-.137-.218-8.48 5.3zm.45 2.25l-9.487-3.162-.068.206-.06.209 9.615 2.747zm-1.05 1.8l6.493 7.606.3-.256.278-.279-7.071-7.071zm-12.397-2.559c.038-.03.557-.452 1.532-.796 1.06-.374 2.835-.704 4.912-.11l-5.494 19.23c5.565 1.59 9.888-1.382 11.544-2.706l-12.494-15.618zm6.444-.906c1.187.339 1.973.943 2.374 1.344l-14.142 14.142c1.602 1.602 3.688 3.005 6.274 3.744l5.494-19.23zm2.585 1.561c-1.147-1.219-2.946-3.449-5.475-6.951l-16.214 11.71c2.671 3.698 5.073 6.768 7.125 8.949l14.564-13.708zm-5.475-6.951c-2.123-2.94-4.367-6.845-6.682-11.846l-18.149 8.402c2.684 5.799 5.541 10.894 8.617 15.154l16.214-11.71zm-6.653-11.783c-2.205-4.85-4.227-10.724-6.018-17.699l-19.372 4.974c2.01 7.825 4.387 14.851 7.183 21.001l18.207-8.276zm-5.98-17.546c-1.583-6.598-2.424-14.197-2.424-22.866h-20c0 9.931.96 19.132 2.976 27.534l19.448-4.668zm-2.424-22.866c0-8.672.841-16.208 2.417-22.687l-19.433-4.727c-2.025 8.322-2.984 17.486-2.984 27.414h20zm2.394-22.594c1.791-7.068 3.805-12.904 5.981-17.605l-18.149-8.402c-2.824 6.099-5.21 13.163-7.219 21.095l19.387 4.912zm6.01-17.668c2.316-5.096 4.552-9.024 6.653-11.933l-16.214-11.71c-3.098 4.29-5.963 9.463-8.646 15.367l18.207 8.276zm6.653-11.933c2.529-3.502 4.328-5.732 5.475-6.951L262.456-5.104c-2.052 2.18-4.454 5.251-7.125 8.95l16.214 11.709zm5.264-6.734c-.401.401-1.187 1.005-2.373 1.344l-5.495-19.23c-2.586.739-4.672 2.142-6.274 3.744L276.809 8.82zm-2.374 1.344c-2.077.594-3.852.264-4.912-.11-.975-.344-1.494-.766-1.532-.796L280.485-6.36c-1.656-1.324-5.979-4.296-11.544-2.706l5.494 19.23zm-6.689-1.11l6.15 5.25 12.985-15.21-6.15-5.25-12.985 15.21zm5.571 4.716a5.92 5.92 0 01-1.494-2.524l19.231-5.494a14.087 14.087 0 00-3.595-6.124L273.317 13.77zm-1.366-2.109a8.072 8.072 0 01-.281-4.11c.184-.922.486-1.496.577-1.658l17.483 9.712c1.034-1.86 2.706-5.737 1.195-10.268l-18.974 6.324zm.418-5.982c-1.177 2-2.648 4.794-4.375 8.248l17.889 8.944c1.673-3.346 2.901-5.652 3.725-7.052L272.369 5.68zm-4.32 8.14c-2.018 3.918-3.86 8.548-5.567 13.776l19.012 6.208c1.493-4.572 2.952-8.142 4.334-10.824l-17.779-9.16zm-5.548 13.718c-1.772 5.316-3.274 11.313-4.536 17.94l19.647 3.743c1.137-5.972 2.435-11.075 3.863-15.359l-18.974-6.324zM257.97 45.45c-1.339 6.922-1.982 14.368-1.982 22.3h20c0-6.868.558-13.022 1.618-18.5l-19.636-3.8zm-1.982 22.3c0 7.934.643 15.419 1.977 22.421l19.647-3.742c-1.067-5.598-1.624-11.813-1.624-18.679h-20zm1.982 22.45c1.263 6.52 2.759 12.484 4.512 17.854l19.012-6.208c-1.446-4.43-2.75-9.567-3.888-15.446l-19.636 3.8zm4.531 17.912c1.704 5.112 3.525 9.675 5.493 13.61l17.889-8.944c-1.433-2.865-2.912-6.502-4.408-10.99l-18.974 6.324zm5.493 13.61c1.73 3.46 3.252 6.309 4.514 8.328l16.96-10.6c-.738-1.181-1.916-3.332-3.585-6.672l-17.889 8.944zm4.253 7.884c-.091-.162-.393-.736-.577-1.657a8.072 8.072 0 01.281-4.111l18.974 6.324c1.511-4.531-.161-8.408-1.195-10.268l-17.483 9.712zm-.424-5.353a5.918 5.918 0 011.494-2.524l14.142 14.142a14.084 14.084 0 003.595-6.124l-19.231-5.494zm2.073-3.059l-6.15 5.25 12.985 15.212 6.15-5.25-12.985-15.212z" fill="#fff" mask="url(#a)"/></svg>