<svg width="313" height="299" fill="none" xmlns="http://www.w3.org/2000/svg"><path d="M141.84 68.348c-1.688 4.126-4.02 10.454-9.39 7.69-6.794-3.5-.86-35.014 13.985-29.755.264.094.424.357.375.613-.529 2.757-3.44 17.711-4.97 21.452zm123.799-4.313l-2.111-.938c-.215-.096-.467-.007-.538.2-1.172 3.416-4.285 10.886-9.206 12.788-5.115 1.977-.781-12.098-.781-12.098s6.805-20.878-4.999-22.239c-11.805-1.36-17.798 10.138-17.798 10.138 2.839-5.327 3.187-8.424 3.192-9.592 0-.26-.287-.414-.551-.312-2.931 1.127-8.576 1.258-9.913 1.274-.172.002-.308.108-.335.262-.247 1.407-1.482 8.4-3.181 17.617-1.905 10.337-4.829 13.418-9.135 14.943-4.309 1.523-2.487-8.97-2.487-8.97l4.613-24.62c.051-.27-.238-.474-.518-.371-3.418 1.258-8.535 1.527-9.805 1.574a.36.36 0 00-.348.282l-3.194 15.41c-1.864 9.406-6.453 14.708-6.453 14.708-2.508 3.555-10.609 5.475-4.282-12.816 6.326-18.291-8.154-20.95-13.099-20.058-4.156.75-7.977.864-9.088.882-.183.003-.335.142-.314.307.131 1.026 1.195 2.125 1.95 2.789.476.418.723.994.655 1.592-1.091 9.618-4.095 24.711-10.121 28.37-6.775 4.11-4.689-5.388-4.689-5.388l9.629-47.996c.057-.284-.253-.506-.539-.377-2.762 1.24-9.356 1.667-10.837 1.75a.365.365 0 00-.35.293l-3.687 20.206c-14.06-6.396-28.29 5.225-27.638 21.534.651 16.308 11.279 16.112 15.794 15.623 4.058-.438 7.296-6.675 7.909-7.932.032-.063.132-.043.143.027 2.757 17.224 25.001 10.054 28.125-27.14.017-.202.204-.373.426-.392 18.114-1.563-6.366 21.806 4.817 32.248 10.319 9.634 19.827-4.114 19.827-4.114 7.215 16.59 19.95 2.554 19.95 2.554l-.663 4.613c-.03.21.149.399.384.4l9.738.06c.201.001.368-.132.386-.315 1.343-13.435 6.764-30.956 14.42-34.089 7.715-3.157 2.522 12.204 1.045 17.208-1.475 5.003-2.597 17.133 7.866 17.523 9.68.363 15.222-14.746 15.995-17.005.058-.167-.031-.336-.204-.413z" fill="#ED1C24"/><path d="M214.986 32.754c0 3.537-3.729 6.406-8.331 6.406-4.602 0-8.332-2.869-8.332-6.406 0-3.539 3.73-6.408 8.332-6.408s8.331 2.87 8.331 6.408zm-106.549 9.973s-11.973 1.79-29.552-2.918c0 0 5.815-36.42 23.248-35.115 9.018.676 8.706 19.764 6.304 38.033zm11.244-23.446C116.98 2.572 104.454-.759 95.591 1.225c-6.26 1.402-11.822 4.704-16.022 9.147-8.036 8.497-12.922 17.588-15.79 26.375-4.083-.062-9.604.556-12.19 3.987l-4.447 16.244c-.018.069.08.111.12.05 1.013-1.564 5.26-7.193 13.513-6.816C58.44 68.89 63.67 83.537 63.67 83.537l12.9-.097c-4.408-11.718-.715-29.925-.715-29.925 21.752 4.742 30.121 2.842 30.121 2.842-1.168 19.454-13.92 20.889-17.088 20.942-.272.005-.394.31-.212.492 25.128 25.01 36.444-24.846 31.005-58.51z" fill="#ED1C24"/><path d="M63.279 107.573c16.97 23.078 52.943 37.988 91.643 37.988 47.816 0 96.164-21.154 100.181-61.639-1.478.548-3.08.81-4.906.81-.157 0-.315-.002-.474-.006-5.078-.191-7.879-2.617-9.335-4.618-4.577-6.294-1.897-16.01-1.577-17.096l.383-1.272c2.077-6.841 2.631-10.194 2.603-11.805-5.116 2.683-10.542 16.706-11.994 31.2-.198 1.873-1.772 3.264-3.669 3.264h-.03l-9.733-.06a3.72 3.72 0 01-3.003-1.55c-2.535 1.422-5.689 2.483-9.06 1.939-3.234-.527-5.99-2.402-8.23-5.592-2.384 2.213-5.893 4.656-10.091 5.102-4.056.43-7.878-.993-11.356-4.242-4.441-4.145-4.619-9.616-3.511-14.873-4.636 13.27-12.334 19.676-19.145 19.927-.13.005-.261.007-.392.007-3.165 0-6.634-1.414-8.96-5.039-1.77 2.005-4.059 3.745-6.79 4.04-5.546.601-10.062-.533-13.389-3.374-2.02-1.725-3.526-4.044-4.546-6.896-2.587 5.847-6.027 10.364-10.435 12.59a13.308 13.308 0 01-6.047 1.46c-4.082 0-9.175-1.86-15.08-7.736a3.536 3.536 0 01-.784-3.853l-7.439-.52c.303 2.318.796 4.559 1.551 6.568l1.649 4.381-19.97.15-.787-2.2c-.18-.504-3.604-10.31-3.68-24.142l-1.76.481c-4.819 16.672-2.03 32.748 8.163 46.606z" fill="#ED1C24"/><path d="M256.412 83.34c-3.586 41.672-52.816 63.448-101.49 63.448-39.083 0-75.448-15.108-92.644-38.493-10.281-13.976-13.209-30.152-8.566-46.941l-2.878.79c-14.578 49.452 40.93 87.367 103.295 87.367 55.425 0 104.628-24.953 104.628-67.727a13.112 13.112 0 01-2.345 1.556z" fill="#ED1C24"/><path d="M211.378 120.895c-.218.901-.77 1.486-1.7 1.624-.492.072-.857-.032-.47-.685a5.056 5.056 0 00.703-3.062c-.035-.418-.137-.86-.597-1.031-.463-.172-.81.115-1.132.392-.526.451-.902 1.019-1.198 1.631-1.083 2.237-1.474 4.587-1.127 7.052.063.452.19.884.432 1.273.354.571.84.898 1.546.738.703-.159 1.16-.525 1.171-1.317.006-.448.171-.901.14-1.344-.106-1.497.557-2.402 2.118-2.738-.238 2.122-.396 4.263-.755 6.371-.139.814-1.217.782-1.922 1.328.069-.734.124-1.302.181-1.896-2.623 1.242-4.469.306-4.845-2.53-.416-3.131.365-5.945 2.655-8.245a4.929 4.929 0 012.069-1.236c1.71-.524 2.82.212 2.985 1.973.033.351.08.707-.088 1.043-.189.187-.003.467-.166.659zm-71.611 10.201c.67-.34 1.367-.611 2.13-.633 1.285-.036 1.899.869 1.247 1.97-.589.994-1.359 1.883-2.01 2.846-.245.363-.82.824-.383 1.213.394.349.906-.155 1.267-.444.599-.48 1.143-1.03 1.811-1.643-.406 1.547-2.606 3.163-3.954 3.035-1.011-.096-1.456-.917-1.015-1.915.29-.656.796-1.172 1.224-1.739.427-.567.847-1.14 1.244-1.727.135-.201.31-.464.066-.7-.216-.211-.489-.124-.733-.028-.612.244-1.123.645-1.611 1.072-1.08.945-2.051 2.007-2.718 3.263-.635 1.195-1.44 1.654-2.788 1.044l1.348-2.126c.061-.353.22-.64.553-.813l2.317-3.308c.49-.147.991-.045 1.488-.065.212-.009.365.077.34.327a1.044 1.044 0 01-.053.141c-.078.197-.17.385-.341.514a.237.237 0 01-.131.071c.093.066.109-.056.173-.072.146-.159.332-.231.529-.283zm13.608 4.187c.36-.648.79-1.269 1.068-1.951.549-1.345 1.377-2.199 3.033-1.923-.745 1.362-1.526 2.75-2.262 4.162-.265.509-.889 1.158-.27 1.624.566.425 1.126-.234 1.59-.615 1.246-1.023 1.866-2.483 2.511-3.871.572-1.23 1.345-1.708 2.757-1.382-.681 1.25-1.37 2.501-2.046 3.759-.243.454-.48.916-.676 1.39-.104.252-.285.565 0 .808.29.246.544-.015.792-.14.173-.086.328-.206.49-.312.232-.05.325.041.281.271-.488.592-1.101.99-1.858 1.14-1.132.224-1.616-.159-1.706-1.381-.677.468-1.257 1.037-2.032 1.279-.673.21-1.363.329-1.905-.248-.508-.541-.421-1.175-.117-1.796.053-.298.127-.588.35-.814zm-41.477-7.085c.742-.674 1.535-1.301 2.207-2.037.61-.667 1.232-.955 2.108-.623.235.091.508.081.903.135-1.27 1.202-2.474 2.314-3.644 3.461-.392.386-1.154.813-.77 1.388.448.671 1.189.141 1.76-.094 1.487-.612 2.553-1.794 3.579-2.935.94-1.044 1.862-1.182 3.108-.536-1.133 1.067-2.262 2.121-3.378 3.188-.372.357-.717.745-1.053 1.136-.144.167-.299.382-.137.611.152.215.4.185.626.136.849-.18 1.533-.675 2.229-1.156.198-.138.423-.583.697-.204.216.3-.219.398-.397.531-.78.583-1.599 1.113-2.545 1.4-1.639.495-2.474-.066-2.526-1.681-2.224.862-3.071.812-3.808-.223-.252-.567.04-1.006.341-1.444.149-.16.318-.321.521-.381.464-.137.155-.441.179-.672zm82.073.713c-.339.334-.02.861-.359 1.194-.173.079-.077.483-.393.355-.147-.06-.113-.251-.031-.392.248-.795.443-1.613.76-2.382.499-1.218 1.941-2.145 3.129-2.103.37.012.716.085.909.445.092.176-.005.31-.137.416-.317.252-.634.109-.898-.071-.31-.21-.563-.263-.862.007-.359.327-.552.708-.489 1.198.078.615.482 1.034.886 1.459 1.204 1.269 1.202 1.271 1.463 2.861.67-.781 1.095-1.636 1.475-2.514.084-.196.102-.525.403-.431.42.132.125.426.045.625-.499 1.237-1.201 2.353-2.151 3.299-.684.681-1.519 1.093-2.495 1.179-.642.056-1.231-.095-1.698-.556-.237-.234-.411-.513-.252-.865.083-.184.235-.34.439-.342.379-.003.531.292.705.575.147.241-.021.738.493.689.41-.038.722-.289.934-.629.406-.654.322-1.304-.131-1.889-.415-.534-.883-1.026-1.327-1.536-.276-.102.147-.691-.418-.592z" fill="#fff"/><path d="M218.143 121.214c.353.389.361.882.423 1.359-.219-.29-.427-.56-.533.068-.119.699-.301 1.384-.604 2.03a4.985 4.985 0 01-.365.68c-.64.944-1.529 1.415-2.261 1.145-1.03-.382-1.086-1.3-1.051-2.173.039-.961.23-1.915.313-2.876.039-.445.049-.998-.61-.982-.56.013-.807.345-.786.968.032.929-.056 1.864-.129 2.792-.019.24.116.703-.345.634-.436-.066-.181-.476-.176-.728.02-.835.08-1.669.109-2.504.017-.498-.207-.783-.75-.732-.016-.237-.078-.485.166-.658.107.567.428.213.632.118.583-.274 1.122-.66 1.727-.865 1.099-.376 1.854.112 1.999 1.262.144 1.155-.171 2.3-.147 3.455.007.36-.174.875.319.996.441.109.623-.367.839-.679a.43.43 0 00.047-.083l1.183-3.227zm-95.27 13.288c-.62.002-1.156-.177-1.495-.731-.34-.555-.095-1.056.18-1.542.454-.802 1.181-1.359 1.839-1.978.377-.353.76-.702 1.103-1.087.251-.281.411-.645-.02-.9-.329-.193-.687-.337-1.037.069a33.435 33.435 0 01-1.973 2.132c-.233.228-.491.84-.872.465-.317-.313.281-.539.484-.779.44-.514.938-.981 1.404-1.472.134-.141.347-.3.348-.452.009-1.314.88-.771 1.522-.714.226.021.452.052.672.105 1.539.365 1.928 1.425.929 2.631-.492.595-1.079 1.112-1.618 1.669-.27.279-.544.555-.788.854-.192.236-.567.476-.325.816.258.361.65.15.98.032.712-.256 1.289-.733 1.898-1.16.207-.145.446-.572.706-.248.27.335-.212.452-.403.603-1.505 1.186-2.561 1.679-3.534 1.687zm40.875-.911c-.266.515-.527 1.032-.799 1.544-.093.173-.212.342-.452.206-.206-.119-.105-.257-.02-.401.59-1 1.114-2.044 1.779-2.993.726-1.034 1.857-1.36 3.086-1.343.248.003.511.097.736.211.23.118.452.324.304.621-.166.336-.507.342-.748.154-.484-.377-.915-.75-1.472-.116-.588.669-.478 1.353-.08 2.053.304.533.648 1.046.9 1.602.156.342.171.747.25 1.123-.152.261.006.555-.088.824-.023.191.029.394-.081.573-.899.796-1.949 1.121-3.142.965-.645-.083-1.179-.381-1.482-.969-.194-.376-.195-.797.268-.978.442-.173.606.185.774.522.154.306-.217.962.554.875.617-.07.991-.455 1.196-1 .206-.55.051-1.061-.201-1.575-.308-.627-.868-1.137-.921-1.885-.108-.362-.235-.16-.361-.013zm-71.814-11.426c-1.23.208-2.304-.113-3.187-.98-.506-.5-.797-1.107-.516-1.831.139-.356.424-.62.833-.45.44.184.305.536.198.901-.086.295-.692.48-.268.869.386.354.879.365 1.368.166.654-.266 1.033-.759 1.156-1.436.149-.814.27-1.634.403-2.451.394-.119.133-.419.179-.633 1.347-.759 2.7-.821 4.042 0 .242.147.467.351.638.577.172.228.3.513.078.801-.103.133-.237.229-.416.179-.282-.079-.388-.311-.482-.561-.328-.874-1.105-.997-1.795-.289-.568.583-.561 1.347-.66 2.075-.122.904-.26 1.797-1.182 2.294-.413.116-.315.485-.39.769zm88.583 11.394l.025-.227c.235.071.343-.016.412-.251.153-.525.368-1.031.504-1.559.357-1.377.729-2.721 2.665-2.581-.299.949-.63 1.995-.962 3.04-.212.674-.453 1.343-.627 2.026-.09.352-.306.847.099 1.059.458.242.744-.244 1.028-.53.486-.489.75-1.119 1.055-1.722.09-.18.114-.515.438-.378.349.15.07.392-.007.555-.482 1.022-.983 2.046-1.938 2.729-.61.438-1.286.825-2.07.444-.782-.381-.615-1.116-.591-1.785.129-.278.047-.55-.031-.82zm44.896-13.869c-.014-.166-.035-.326-.202-.418.523-.099.722-.47.738-.941.009-.25.317-.847-.443-.453-.29.15-.211-.208-.23-.346-.068-.51-.029-1.048-.176-1.532-.442-1.452.084-2.44 1.453-3.155.18 1.641.346 3.261.542 4.876.059.49.021 1.201.661 1.236.641.035.795-.66.969-1.174.35-1.034.232-2.098.179-3.156.284.213.176.523.206.8.06.567-.27 1.259.545 1.592.071.029.015.363.018.554-.262-.169-.28-.164-.379.14-.176.753-.457 1.461-.968 2.055-.809.942-1.642.973-2.505.078-.131-.135-.241-.183-.408-.156zm-91.311 15.087a4.61 4.61 0 01-2.478 1.423c-.632.138-1.253.088-1.686-.454-.431-.538-.246-1.149.091-1.618 1.012-1.414 2.089-2.782 3.14-4.167.153-.202.35-.237.598-.226.513.024 1.027.008 1.737.008-.937 1.209-1.8 2.306-2.646 3.418-.37.485-.716.991-1.053 1.501-.123.186-.215.426-.034.626.181.199.421.104.639.045.547-.147.948-.542 1.419-.82.227-.051.318.037.273.264zm49.521-7.156c-.581-.065-1.058-.347-1.104-1.051-.047-.698.639-1.364 1.378-1.344.67.019 1.121.345 1.169 1.043.048.701-.641 1.357-1.443 1.352zm-47.929.96c-.576-.081-1.053-.408-1.046-1.157.006-.647.722-1.236 1.422-1.184.706.053 1.168.414 1.167 1.16-.002.644-.705 1.203-1.543 1.181z" fill="#fff"/><path d="M167.063 137.649l-.185-.612c.209-.097.369-.275.591-.348.682-.534 1.174-1.226 1.654-1.93.114-.17.174-.442.482-.316.234.096.131.324.175.493l.018-.023c-.921.902-1.55 2.093-2.735 2.736zm-6.42-.546l-.281-.27c.413-.522.827-1.042 1.238-1.565.139-.177.271-.402.529-.186.231.192.006.335-.103.467-.442.535-.784 1.157-1.383 1.554zm-49.207-7.816c-.412.195-.383-.517-.772-.368l1.235-.721c.167.288.627-.228.697.227.058.384-.354.4-.574.553-.179.126-.39.208-.586.309zm81.751.781c.092.58.284.02.425.037-.09.522.038 1.102-.414 1.529-.005-.313-.176-.282-.381-.181.057-.479.059-.972.37-1.385zm-59.085 4.709l-.273-.264c.277-.302.546-.613.835-.904.27-.272.443-.135.557.162-.087.286-.263.489-.554.583-.188.141-.377.281-.565.423zm5.488-4.052c-.555-.467-1.238-.045-1.829-.262.569-.255 1.183-.116 1.772-.161.487-.038.275.243.057.423zm13.785 4.558c.015.326-.074.61-.35.814l-.227-.244c-.101-.118-.099-.231.016-.339.061-.376.367-.172.561-.231zm-70.437-18.886l1.778-.028c-.588.297-1.18.356-1.778.028zm80.81 17.194c.006-.321.107-.585.429-.734.27.289.023.509-.068.746l-.361-.012zm30.223-4.68c-.011-.158-.035-.351.128-.425.251-.112.233.116.247.257.024.252.029.507.043.76l-.418-.592z" fill="#fff"/><path d="M152.815 135.513l-.016.34a.199.199 0 01-.152.057l-.707.354c.254-.293.379-.734.875-.751zm-18.148-1.159l.553-.583h.225a1.57 1.57 0 01-.553.813l-.225-.23zm5.1-3.259l-.416.358c-.205.066-.254-.022-.206-.206l.392-.382.23.23zm27.702 5.594c-.114.255-.295.397-.592.348l.354-.785c.06.156.052.348.238.437zm-82.753-20.321c.189-.173.43-.349.623-.104.073.092-.212.257-.393.318a44.937 44.937 0 00-.23-.214zm144.578 1.344l.065-.451.314.311.028.338-.407-.198zm-48.777 15.847c.466.255.157.541.031.82-.059-.128-.12-.255-.18-.382l.149-.438zM79.804 96.09c-.267.647-1.032.313-1.58.24-1.54-.209-3.072-.492-4.615-.68-.73-.088-1.161-.33-1.308-1.107-.177-.934-.486-1.842-.779-2.913 2.153.572 4.042 1.238 5.826 2.174.514.27 1.022.567 1.486.91.472.352 1.252.691.97 1.377zm.706-.223c-.277-.821-.852-1.435-1.493-1.992-1.705-1.49-3.678-2.551-5.785-3.328-1.42-.524-2.878-.87-2.738-2.956-.728.559-1.103 1.016-.686 1.813-.498-.054-.876-.103-1.255-.134-.713-.055-1.437-.15-2.096.226-.475.27-.657.672-.51 1.224.15.562.529.42.921.37 1.046-.128 2.073.067 3.103.215.296.043.557.123.667.464.375 1.154.77 2.3 1.189 3.548-.399-.052-.684-.086-.967-.128-.641-.094-1.285-.24-1.936-.129-.63.11-.97.474-.89 1.153.082.678.393.814 1.053.62.411-.12.904-.016 1.35.05 2.38.345 4.754.722 7.134 1.058.54.076 1.109.1 1.65.029 1.169-.155 1.662-.993 1.289-2.103z" fill="#fff"/><path d="M175.249 130.884c-.669 1.994-1.175 4.1-2.97 5.499-.192.149-.432.341-.699.147-.182-.131-.135-.342-.161-.562.744-1.845 1.483-3.691 2.234-5.533.139-.339.488-.253.761-.306.628-.123.945.424.835.755zm5.293 2.449c-.485-.193-.473.286-.617.491-.463.66-.846 1.379-1.532 1.857-.21.146-.466.322-.711.149-.25-.178-.163-.481-.069-.715.385-.956.802-1.899 1.185-2.855.279-.697.55-1.435-.018-2.1-.565-.665-1.348-.405-2.088-.433-.422-.017-1.252 1.097-1.35-.324-.001-.02-.238-.019-.364-.033-.276-.032-.558.203-.87-.042l.778-1.995c-1.38.118-2.414.537-2.661 1.96-.048.272-.242.445-.555.442-.398-.003-.649.254-.627.592.023.349.475-.012.662.288a849.897 849.897 0 01-1.713 4.147c-.028.07-.124.111-.195.163-.068.374-.147.748-.203 1.123-.198 1.316.498 1.921 1.761 1.521.975-.308 1.655-.997 2.238-1.791 1.005-1.372 1.63-2.932 2.137-4.532.191-.6.504-.953 1.104-.746.704.243.361.803.184 1.219-.405.947-.918 1.852-1.276 2.815-.266.722-.467 1.56.326 2.121.781.554 1.563.239 2.269-.222.923-.603 1.488-1.513 2.03-2.435.153-.104.269-.23.276-.427a.52.52 0 00-.101-.238zm-10.761 1.602c.004-.004.011-.007.016-.011l.002-.011-.018.022zm-21.473.638c-.241.339-.53.651-.837.933-.427.393-.937.887-1.527.507-.656-.423-.221-1.057.007-1.552.588-1.281 1.502-2.313 2.649-3.136.424-.304.898-.511 1.451-.533.196.032.464-.065.59.181.108.21-.095.357-.196.504a153.167 153.167 0 01-2.137 3.096zm2.275-.138l3.99-6.071c.322-.492.635-.988 1.021-1.588-.523.069-.882.185-1.225.148-.826-.087-1.302.265-1.67.976-.384.742-.886 1.425-1.339 2.131-.152.237-.236.456-.664.336-2.824-.789-6.422 1.725-6.7 4.643-.13 1.356.75 2.122 2.109 1.878.711-.128 1.187-.624 1.75-1.005.286 1.146.868 1.539 1.96 1.217 1.216-.359 2.202-1.061 2.832-2.189-.388-.181-.435.308-.708.352-.231.177-.448.374-.697.523-.395.235-.842.763-1.273.347-.375-.362.115-.817.303-1.207.083-.173.205-.328.311-.491zm-69.021-26.51c-.935.375-1.922.564-2.96.61-.819-.061-1.665-.129-2.315-.764-.303-.296-.439-.578.15-.731 1.533-.395 3.023-.977 4.612-1.125.762-.072 1.79-.196 1.977.725.16.795-.822 1.029-1.464 1.285zm1.195-2.388c-.07-.023-.12-.103-.26-.23l4.464-1.303c-.9-1.245-1.921-1.361-3.243-.85-1.474.569-3.055.859-4.564 1.352-1.199.39-2.38.539-3.603.192-.222.381.365.198.323.454-.733 2.111-.467 3.447 1.14 4.198 1.158.542 2.297 1.09 3.372 1.774.08.051.165.104.256.135.734.254 1.651.119 2.158-.388-1.149.129-2.17.056-3.148-.869 1.336-.1 2.41-.328 3.376-.891.747-.436 1.429-.968 1.325-1.955-.097-.93-.779-1.353-1.596-1.619zm13.46 17.611c1.482-.998 2.748-2.112 4.281-2.814.785-.358 1.873-1.068 2.431-.103.471.812-.652 1.379-1.28 1.883-.914.732-1.949 1.267-3.114 1.494-.772.152-1.545.205-2.318-.46zm4.703 1.294c.45-.23.678-.338.899-.459.948-.521 1.818-1.135 2.39-2.076.76-1.251.218-2.405-1.238-2.628-.284-.044-.581-.016-.873-.02-.373.245-.799.285-1.402.403.44-.415.81-.532 1.198-.612-.382-.629-1.666-.879-2.284-.437-2.448 1.751-4.892 3.507-7.338 5.262-.328.236-.653.473-.98.711 1.157.901 2.167.827 3.112-.143.088-.092.215-.146.313-.229.615-.525 1.195-.965 1.888-.046.239.318.707.472 1.132.513 1.492.147 2.986.232 4.475.469 1.067.169 1.69-.292 2.058-1.123-1.05.628-2.046.881-3.35.415z" fill="#fff"/><path d="M76.391 102.833c-.503.109-1.026.12-1.446.166-1.276-.056-2.435-.169-3.344-1.039-.208-.199-.451-.442-.332-.749.11-.283.449-.201.688-.22 1.452-.115 2.897-.386 4.357-.264.764.065 1.827.108 1.865 1.012.038.943-1.058.935-1.788 1.094zm1.43-2.28c-.044-.018-.071-.084-.123-.149 1.626-.156 3.233-.311 4.841-.464-.636-.539-.626-1.66-1.73-1.544-2.968.314-5.941.592-8.912.88-.333.03-.64.068-.8.425-.39.884-.736 1.887-.106 2.673a13.641 13.641 0 004.788 3.788c.025.012.064-.007.096-.01.243-.397-.393-.179-.323-.453-.4-.328-.975-.474-1.212-1.136 1.088.026 2.093.103 3.057-.207.951-.306 1.918-.699 2.004-1.839.078-1.044-.68-1.599-1.58-1.964zm61.325 30.694l.206.207c-.246.226-.471.484-.939.593.188-.422.452-.618.733-.8zm-49.933-17.293c-1.104.602-2.211 1.208-3.408 1.621-.55.19-1.115.331-1.702.36-.33-.009-.675-.027-.847-.354-.188-.356.055-.644.287-.844 1.574-1.366 3.374-2.119 5.507-1.877.358.042.817.175.891.493.103.44-.453.45-.728.601zm1.98-.002a3.279 3.279 0 01-.825-.935c-.415-.708-1.044-1.173-1.846-1.31-2.367-.404-4.467.199-6.166 1.884-1.093 1.085-.83 2.127.583 2.807.593.084 1.187.138 1.777-.029.269-.134.29-.005.23.212-.393 1.01-.002 1.657 1.19 1.887 1.121.214 2.198-.043 3.252-.406.138-.046.357-.086.286-.297-.088-.268-.296-.147-.484-.099-.44.109-.88.235-1.328.29-.44.055-1.088.199-1.242-.243-.196-.56.49-.751.888-.942 1.168-.56 2.383-1.025 3.554-1.583.821-.39.84-.679.132-1.236zm14.537 14.747c-.521-.024-.721-.348-.526-.958.421-1.304 3.409-3.728 4.785-3.853.525-.048 1.035-.019.906.736-.228 1.324-3.654 4.096-5.165 4.075zm4.934.22c-.342.048-.687.136-1.129-.092.683-.465 1.289-.931 1.763-1.53.621-.783 1.132-1.629.705-2.651-.453-1.084-1.453-1.423-2.526-1.503-2.132-.161-3.799.79-5.025 2.411-1.238 1.634-.528 3.314 1.498 3.798.435.104.936.237 1.337.122 1.195-.341 2.349.087 3.533-.007-.015.447-.34.852.037 1.227-.084-.58.199-1.014.578-1.407-.188-.266-.368-.547-.771-.368zm111.367-6.435c-.142.397-.391.808-.879.781-.431-.024-.629-.429-.784-.784-.393-.905-.44-1.873-.476-2.839.005-.874.054-1.743.461-2.542.164-.321.395-.632.804-.611.36.02.568.319.685.619.683 1.768.835 3.564.189 5.376zm3.181-3.212c-.323.273-.404.796-.956.927.023-.939.029-1.827-.308-2.674-.655-1.649-2.067-2.142-3.603-1.253-1.666.965-2.585 3.026-2.203 4.943.225.426.155.944.424 1.358.615 1.576 2.36 1.67 3.542.866 1.424-.969 2.123-2.569 3.305-3.749.103-.221.163-.42-.201-.418zm-35.709 9.059c.198-.199.436-.427.764-.279.268.122.31.394.324.654.074 1.413-1.525 3.561-3.065 4.033.249-1.684.768-3.196 1.977-4.408zm3.67 2.925c-.158-.082-.271.067-.355.197-.29.387-.549.8-.873 1.154-.82.903-1.792 1.583-3.031 1.789-.632.105-1.127-.157-1.277-.767-.173-.699.521-.502.837-.624 1.675-.65 3.036-1.618 3.581-3.406.449-1.471-.451-2.427-1.969-2.139-2.187.415-4.029 2.411-4.388 4.75-.301 1.973.954 3.222 2.925 2.828 2.053-.41 3.59-1.556 4.575-3.404.133-.137.121-.303-.025-.378z" fill="#fff"/><path d="M232.284 116.23c-.272.243-.505.336-.613-.149-.309-1.384-.808-2.734-.822-4.166-.006-.693-.065-1.655.784-1.781.866-.13 1.012.837 1.231 1.484.22.643.305 1.324.315 2.136-.05.825-.109 1.775-.895 2.476zm3.707-5.433c-.017-.239.082-.614-.278-.614-.397-.001-.245.372-.242.602.017.89-.144 1.701-.983 2.329-.17-1.039-.219-2.015-.672-2.886-.414-.794-.934-1.565-1.94-1.54-1.021.024-1.62.711-1.942 1.638-.15.345-.262.702-.28 1.042-.066-.267.202-.55-.059-.845-.726.046-1.599 1.157-1.358 1.837.617 1.741.803 3.498.354 5.298-.143.573-.166 1.441-.882 1.422-.602-.015-.488-.87-.621-1.381-.056-.214-.038-.447-.064-.671-.154-1.395-.31-2.789-.489-4.388-.579.692-1.6.69-1.588 1.605.01.893.21 1.783.327 2.675.309.947-.209 2.057.59 2.907.06.131.111.266.208.377.922.634 1.685.413 2.394-.658.522-.791.509-1.74.952-2.62l1.259 5.196c.23-.023.371-.161.461-.362.04-.627.824-.638.983-1.165-.124-.563-.201-1.142-.383-1.687-.308-.92-.43-1.698.802-2.033.28-.076.571-.354.726-.617.809-1.363 1.6-2.733 2.488-4.052.264-.391.27-.922.237-1.409z" fill="#fff"/><path d="M188.791 219.579c-.24 10.125 2.451 19.683 5.935 29.07.314.845.177 1.322-.425 1.946-6.723 6.944-13.026 14.237-18.449 22.241-4.393 6.487-7.454 13.555-9.322 21.134-.171.69-.489 1.118-1.121 1.436-3.284 1.649-6.649 2.994-10.423 2.873-3.372-.109-6.409-1.29-9.302-2.918-.366-.205-.484-.512-.565-.86-1.989-8.599-5.847-16.352-10.806-23.62-5.396-7.909-11.281-15.447-17.525-22.714-.304-.353-.354-.561-.163-1 3.787-8.711 6.087-17.739 5.908-27.298-.049-2.619-.077-5.237-.418-7.837-.097-.741.104-.712.732-.539 11.506 3.184 23.182 5.278 35.181 4.967 9.914-.257 19.611-1.98 29.144-4.647 1.455-.407 1.665-.21 1.632 1.312-.048 2.149-.013 4.302-.013 6.454zM264.829 50.87c4.917 9.65 9.834 19.298 14.75 28.949 2.488 4.888 4.974 9.778 7.463 14.665.094.188.206.366.446.789l7.68-31.62c.329.016.252.24.255.391.309 12.915.604 25.83.933 38.744.026 1.042-.2 1.95-.666 2.871-2.169 4.287-4.296 8.595-6.437 12.896-.19.381-.372.765-.671 1.385 8.246-2.634 16.287-5.201 24.418-7.796-.051.505-.378.631-.595.816a26925.353 26925.353 0 01-31.674 26.717 7.35 7.35 0 00-1.759 2.143c-3.839 7.061-7.714 14.103-11.556 21.162-.319.586-.701.885-1.372 1.041-17.01 3.966-34.008 7.983-51.024 11.916-2.342.54-4.335 1.418-6.154 3.041-4.518 4.034-9.192 7.893-13.809 11.816-.354.3-.729.601-1.142.804-7.912 3.842-15.832 7.67-23.749 11.5-.128.061-.266.104-.409.159-.17-.439.131-.765.273-1.111 3.422-8.352 6.861-16.695 10.274-25.05.235-.577.608-.926 1.118-1.237 8.373-5.108 16.734-10.234 25.107-15.341a6.315 6.315 0 001.617-1.402c7.038-8.523 14.086-17.036 21.138-25.547.196-.236.304-.587.887-.651l-8.134 20.008c3.906-.541 7.734-1.067 11.56-1.605 6.872-.965 13.743-1.939 20.614-2.907.681-.096 1.362-.25 2.043-.249 1.954.003 2.948-.959 3.788-2.72 4.83-10.128 9.808-20.184 14.758-30.255.292-.596.31-1.148.208-1.759-1.167-6.923-2.326-13.848-3.495-20.77-1.577-9.327-3.166-18.651-4.742-27.978-.739-4.378-1.458-8.76-2.186-13.139-.037-.267-.306-.616.244-.676zM121.584 210.514c.223.978-.19 1.214-1.195 1.291-2.298.175-4.579.565-6.866.865-2.005.261-4.008.54-6.016.764-.724.082-1.401-.201-2.013-.574-3.3-2.012-6.593-4.037-9.891-6.051-1.75-1.067-3.464-2.204-5.273-3.164-1.737-.921-3.026-2.331-4.27-3.735-1.208-1.364-2.535-2.61-3.738-3.98-2.477-2.821-5.107-5.508-7.66-8.263-.456-.492-.904-1.012-1.242-1.584-.516-.868-.328-1.161.662-1.038.767.096 1.522.319 2.271.523 7.772 2.113 15.54 4.245 23.315 6.347 5.637 1.524 11.234 3.192 16.917 4.545.709.168 1.126.539 1.333 1.257a823.88 823.88 0 003.27 10.954c.186.604.551 1.153.396 1.843zm115.817-25.405c-.079 1.044-.837 1.728-1.455 2.414-2.397 2.659-4.868 5.253-7.321 7.864a1406.967 1406.967 0 01-6.055 6.409c-1.521 1.599-3.561 2.459-5.39 3.608-3.851 2.42-7.819 4.658-11.62 7.148-1.707 1.119-3.397.762-5.121.584-2.432-.252-4.847-.661-7.272-.978-1.235-.161-2.453-.422-3.712-.447-.717-.014-.993-.789-.602-1.749.885-2.18 1.465-4.454 2.164-6.692.605-1.94 1.221-3.876 1.783-5.828.137-.478.339-.673.824-.802 5.312-1.412 10.613-2.854 15.915-4.293 4.475-1.214 8.948-2.434 13.421-3.656 4.309-1.176 8.615-2.365 12.928-3.528.475-.128.982-.264 1.513-.054zM48.172 50.87c-4.917 9.65-9.834 19.298-14.75 28.949-2.49 4.888-4.974 9.778-7.463 14.665-.095.188-.206.366-.446.789l-7.68-31.62c-.329.016-.252.24-.256.391-.308 12.915-.604 25.83-.932 38.744-.027 1.042.2 1.95.666 2.871 2.17 4.287 4.296 8.595 6.437 12.896.189.381.37.765.67 1.385-8.245-2.634-16.286-5.201-24.418-7.796.052.505.379.631.596.816a26841.693 26841.693 0 0031.674 26.717 7.354 7.354 0 011.759 2.143c3.839 7.061 7.714 14.103 11.557 21.162.318.586.7.885 1.37 1.041 17.01 3.966 34.007 7.983 51.025 11.916 2.341.54 4.334 1.418 6.154 3.041 4.518 4.034 9.191 7.893 13.809 11.816.354.3.729.601 1.143.804 7.911 3.842 15.83 7.67 23.748 11.5.127.061.266.104.409.159.17-.439-.131-.765-.273-1.111-3.422-8.352-6.861-16.695-10.273-25.05-.236-.577-.61-.926-1.119-1.237-8.373-5.108-16.734-10.234-25.107-15.341a6.336 6.336 0 01-1.618-1.402 19392.294 19392.294 0 00-21.138-25.547c-.195-.236-.304-.587-.886-.651l8.133 20.008c-3.905-.541-7.733-1.067-11.559-1.605-6.872-.965-13.743-1.939-20.614-2.907-.681-.096-1.363-.25-2.042-.249-1.955.003-2.95-.959-3.79-2.72-4.83-10.128-9.807-20.184-14.757-30.255-.292-.596-.311-1.148-.208-1.759 1.167-6.923 2.326-13.848 3.495-20.77 1.576-9.327 3.166-18.651 4.74-27.978.74-4.378 1.46-8.76 2.188-13.139.037-.267.306-.616-.244-.676z" fill="#000"/></svg>