<svg width="443" height="443" fill="none" xmlns="http://www.w3.org/2000/svg"><circle cx="221.5" cy="221.5" r="221.5" fill="#fff"/><path d="M206.356 146.211c-1.761 4.334-4.194 10.982-9.798 8.078-7.088-3.677-.897-36.782 14.592-31.257.277.098.444.374.392.643-.552 2.896-3.589 18.606-5.186 22.536zm129.173-4.531l-2.203-.986c-.224-.1-.487-.007-.561.211-1.223 3.589-4.471 11.436-9.606 13.434-5.336 2.077-.814-12.709-.814-12.709s7.1-21.934-5.217-23.362c-12.317-1.429-18.57 10.649-18.57 10.649 2.962-5.596 3.325-8.849 3.331-10.076 0-.274-.3-.435-.575-.328-3.059 1.184-8.949 1.322-10.343 1.339-.18.002-.322.113-.35.274-.258 1.479-1.546 8.824-3.319 18.508-1.988 10.859-5.038 14.096-9.532 15.697-4.496 1.601-2.595-9.423-2.595-9.423l4.813-25.863c.053-.284-.248-.499-.54-.39-3.567 1.321-8.905 1.603-10.231 1.653a.376.376 0 00-.363.297l-3.333 16.188c-1.944 9.881-6.733 15.451-6.733 15.451-2.616 3.735-11.069 5.752-4.468-13.464 6.601-19.215-8.507-22.007-13.667-21.07-4.337.788-8.323.907-9.482.926-.191.003-.35.149-.328.323.137 1.077 1.246 2.232 2.035 2.929.496.439.754 1.045.683 1.673-1.138 10.103-4.273 25.959-10.56 29.803-7.069 4.318-4.893-5.661-4.893-5.661l10.048-50.42c.059-.298-.265-.532-.564-.396-2.881 1.303-9.761 1.751-11.307 1.838a.383.383 0 00-.365.309l-3.847 21.226c-14.67-6.719-29.518 5.489-28.838 22.622.679 17.132 11.769 16.925 16.48 16.412 4.234-.46 7.613-7.012 8.252-8.332.034-.067.138-.046.15.028 2.876 18.094 26.085 10.562 29.345-28.512.018-.211.213-.391.445-.411 18.9-1.642-6.643 22.908 5.026 33.877 10.767 10.121 20.688-4.322 20.688-4.322 7.527 17.428 20.816 2.683 20.816 2.683l-.693 4.846c-.031.221.156.419.401.42l10.161.063c.209.002.383-.138.402-.33 1.402-14.114 7.059-32.521 15.047-35.811 8.05-3.317 2.631 12.82 1.09 18.077-1.539 5.256-2.71 17.998 8.207 18.408 10.101.381 15.883-15.49 16.69-17.864.06-.175-.033-.353-.213-.434z" fill="#ED1C24"/><path d="M282.676 108.818c0 3.717-3.891 6.73-8.692 6.73-4.802 0-8.694-3.013-8.694-6.73 0-3.717 3.892-6.731 8.694-6.731 4.801 0 8.692 3.014 8.692 6.731zm-111.173 10.477s-12.493 1.881-30.835-3.064c0 0 6.068-38.261 24.258-36.89 9.409.71 9.083 20.762 6.577 39.954zm11.732-24.63c-2.818-17.553-15.888-21.051-25.136-18.968-6.531 1.473-12.334 4.941-16.718 9.609-8.384 8.927-13.482 18.477-16.475 27.708-4.259-.066-10.02.584-12.718 4.188l-4.641 17.065c-.019.071.085.116.125.053 1.058-1.643 5.489-7.558 14.1-7.161-2.436 19.621 3.02 35.008 3.02 35.008l13.46-.102c-4.598-12.31-.745-31.437-.745-31.437 22.695 4.982 31.429 2.986 31.429 2.986-1.22 20.437-14.526 21.944-17.831 22a.303.303 0 00-.221.517c26.219 26.273 38.026-26.101 32.351-61.465z" fill="#ED1C24"/><path d="M124.385 187.417c17.707 24.244 55.241 39.907 95.621 39.907 49.891 0 100.338-22.222 104.529-64.752-1.541.576-3.213.851-5.118.851-.164 0-.329-.003-.495-.007-5.299-.201-8.221-2.748-9.74-4.851-4.776-6.612-1.98-16.819-1.646-17.96l.399-1.336c2.168-7.187 2.746-10.709 2.717-12.402-5.338 2.819-11 17.55-12.514 32.778a3.822 3.822 0 01-3.829 3.428h-.031l-10.156-.063a3.867 3.867 0 01-3.133-1.628c-2.645 1.493-5.936 2.607-9.453 2.036-3.375-.554-6.25-2.522-8.587-5.875-2.488 2.325-6.149 4.892-10.529 5.361-4.232.451-8.22-1.044-11.85-4.456-4.633-4.355-4.819-10.102-3.663-15.625-4.837 13.941-12.87 20.67-19.976 20.933a9.24 9.24 0 01-.409.008c-3.302 0-6.922-1.485-9.349-5.293-1.847 2.106-4.235 3.933-7.084 4.243-5.787.632-10.499-.559-13.971-3.544-2.107-1.812-3.679-4.248-4.743-7.244-2.7 6.142-6.288 10.887-10.888 13.225-1.719.875-3.836 1.534-6.31 1.534-4.259 0-9.573-1.954-15.734-8.127a3.733 3.733 0 01-.819-4.047l-7.761-.545c.316 2.434.83 4.788 1.619 6.898l1.719 4.603-20.836.158-.821-2.311c-.188-.531-3.761-10.832-3.84-25.362l-1.836.505c-5.028 17.514-2.118 34.402 8.517 48.96z" fill="#ED1C24"/><path d="M325.901 161.96c-3.741 43.777-55.108 66.654-105.895 66.654-40.78 0-78.723-15.872-96.666-40.438-10.727-14.682-13.781-31.675-8.937-49.313l-3.003.83c-15.211 51.951 42.707 91.782 107.778 91.782 57.831 0 109.17-26.214 109.17-71.15a13.664 13.664 0 01-2.447 1.635z" fill="#ED1C24"/><path d="M278.913 201.413c-.228.946-.804 1.561-1.774 1.705-.513.076-.895-.033-.49-.719.58-.982.83-2.072.733-3.217-.037-.439-.143-.903-.623-1.083-.483-.181-.846.121-1.181.412-.549.474-.941 1.07-1.25 1.713-1.13 2.35-1.538 4.82-1.176 7.409.066.474.198.928.45 1.337.37.6.877.943 1.614.775.733-.167 1.211-.551 1.222-1.384.006-.47.178-.946.146-1.411-.111-1.572.581-2.524 2.21-2.876-.248 2.229-.413 4.478-.789 6.692-.144.856-1.269.821-2.005 1.396.072-.771.129-1.369.189-1.992-2.737 1.304-4.663.322-5.055-2.658-.434-3.29.381-6.245 2.77-8.662a5.144 5.144 0 012.159-1.298c1.784-.551 2.943.222 3.115 2.073.034.368.083.743-.092 1.096-.197.195-.003.49-.173.692zm-74.72 10.715c.7-.357 1.427-.641 2.223-.664 1.341-.038 1.981.913 1.301 2.069-.614 1.045-1.418 1.979-2.097 2.99-.256.381-.856.866-.4 1.274.411.367.945-.162 1.322-.466.626-.504 1.193-1.082 1.889-1.726-.423 1.625-2.718 3.323-4.125 3.188-1.055-.1-1.52-.963-1.059-2.012.303-.689.83-1.231 1.277-1.826.446-.595.884-1.198 1.298-1.814.141-.211.323-.488.069-.736-.225-.222-.51-.13-.764-.029-.64.256-1.173.677-1.682 1.126-1.127.993-2.14 2.108-2.836 3.428-.662 1.255-1.502 1.737-2.909 1.097l1.407-2.234c.064-.371.229-.673.577-.854l2.417-3.475c.511-.155 1.035-.048 1.553-.068.221-.01.381.081.355.343-.015.05-.034.1-.056.148-.081.207-.177.405-.355.54a.253.253 0 01-.137.075c.097.069.114-.059.181-.076.152-.167.346-.243.551-.298zm14.198 4.399c.377-.681.825-1.333 1.115-2.049.573-1.413 1.437-2.31 3.164-2.02-.777 1.431-1.591 2.889-2.36 4.372-.276.535-.927 1.216-.281 1.705.59.448 1.175-.245 1.659-.645 1.3-1.075 1.947-2.609 2.619-4.067.598-1.292 1.404-1.794 2.878-1.452-.711 1.314-1.43 2.628-2.135 3.95a16.07 16.07 0 00-.706 1.46c-.108.264-.297.593 0 .848.302.259.568-.016.827-.147.18-.09.342-.216.511-.327.242-.052.339.042.293.285-.509.621-1.149 1.039-1.939 1.196-1.18.236-1.686-.166-1.78-1.45-.706.492-1.311 1.089-2.12 1.343-.702.221-1.422.347-1.988-.26-.53-.568-.439-1.234-.122-1.887.055-.313.133-.617.365-.855zm-43.277-7.442c.774-.709 1.601-1.368 2.303-2.141.636-.7 1.285-1.003 2.199-.653.245.094.53.084.942.141-1.324 1.263-2.581 2.431-3.802 3.636-.409.405-1.204.854-.803 1.458.467.705 1.241.148 1.836-.099 1.552-.643 2.664-1.884 3.735-3.083.98-1.097 1.943-1.242 3.242-.563-1.181 1.121-2.36 2.228-3.524 3.349-.389.375-.749.782-1.099 1.193-.15.175-.312.401-.143.643.159.225.417.193.653.142.886-.189 1.6-.709 2.326-1.214.207-.145.442-.613.728-.215.225.316-.229.419-.414.558-.815.613-1.669 1.17-2.657 1.471-1.71.52-2.581-.069-2.635-1.766-2.32.906-3.205.853-3.973-.235-.263-.595.041-1.056.355-1.516.156-.168.332-.337.545-.401.483-.143.161-.463.186-.705zm85.635.749c-.353.351-.02.904-.374 1.254-.18.083-.08.508-.411.372-.153-.062-.118-.263-.032-.411.259-.835.463-1.695.793-2.503.521-1.279 2.026-2.253 3.265-2.209.387.013.747.09.949.468.096.185-.006.325-.143.436-.331.266-.662.115-.938-.073-.323-.221-.587-.277-.899.007-.374.343-.575.744-.51 1.258.082.646.503 1.087.924 1.533 1.257 1.333 1.255 1.335 1.527 3.005.699-.82 1.142-1.718 1.539-2.641.088-.206.107-.551.421-.452.438.138.13.447.047.656-.521 1.3-1.254 2.472-2.245 3.466-.714.716-1.585 1.149-2.604 1.238-.669.059-1.284-.1-1.771-.584-.247-.245-.429-.539-.262-.908.086-.194.245-.357.457-.359.396-.003.554.306.736.603.153.253-.022.776.514.725.428-.041.754-.304.975-.661.423-.687.336-1.371-.137-1.985-.433-.561-.922-1.078-1.385-1.614-.287-.107.154-.725-.436-.621z" fill="#fff"/><path d="M285.97 201.748c.37.408.378.926.443 1.427-.229-.304-.447-.588-.557.072-.124.734-.314 1.453-.63 2.132a5.314 5.314 0 01-.381.715c-.667.992-1.595 1.486-2.359 1.202-1.075-.401-1.133-1.365-1.097-2.282.041-1.01.24-2.012.327-3.021.04-.468.051-1.049-.637-1.033-.584.015-.841.363-.819 1.018.033.975-.059 1.958-.135 2.933-.02.252.121.739-.361.666-.454-.07-.188-.501-.183-.765.021-.877.083-1.754.113-2.631.018-.522-.215-.822-.782-.768-.016-.25-.081-.51.173-.692.112.596.447.224.659.124.61-.287 1.172-.693 1.803-.909 1.147-.394 1.934.118 2.085 1.326.151 1.213-.178 2.417-.153 3.63.007.378-.181.919.333 1.046.461.114.65-.385.876-.713.018-.028.037-.057.049-.087l1.233-3.39zm-99.404 13.959c-.648.002-1.207-.187-1.56-.768-.355-.583-.099-1.11.188-1.62.473-.843 1.231-1.427 1.918-2.078.394-.37.793-.738 1.151-1.141.262-.296.429-.678-.021-.946-.343-.203-.717-.354-1.082.072a34.931 34.931 0 01-2.058 2.24c-.243.239-.512.882-.911.488-.33-.329.294-.566.506-.818.459-.54.978-1.03 1.464-1.546.14-.148.363-.316.364-.475.01-1.381.918-.811 1.588-.75.235.022.472.055.701.11 1.605.383 2.012 1.497.969 2.764-.513.625-1.125 1.168-1.688 1.754-.282.292-.567.582-.822.897-.2.247-.591.499-.339.856.269.38.678.158 1.022.035.744-.27 1.345-.771 1.981-1.219.215-.153.465-.602.737-.261.282.353-.222.475-.421.633-1.57 1.246-2.672 1.764-3.687 1.773zm42.649-.957c-.277.541-.551 1.084-.834 1.622-.097.182-.221.359-.472.216-.215-.124-.109-.27-.021-.421.616-1.05 1.163-2.147 1.857-3.144.757-1.086 1.937-1.429 3.22-1.411.259.003.533.102.768.222.24.123.471.34.317.652-.173.353-.529.359-.78.161-.506-.395-.956-.787-1.536-.121-.614.703-.499 1.421-.084 2.157.317.56.676 1.099.939 1.683.162.359.178.784.26 1.18-.158.274.007.583-.091.865-.024.2.03.414-.085.602-.937.836-2.033 1.177-3.278 1.014-.673-.088-1.23-.401-1.546-1.018-.202-.395-.204-.838.279-1.028.461-.181.632.194.809.548.16.322-.228 1.011.577.92.644-.074 1.034-.478 1.248-1.051.215-.577.053-1.114-.21-1.655-.321-.658-.905-1.193-.961-1.98-.112-.38-.245-.168-.376-.013zm-74.932-12.003c-1.283.219-2.404-.119-3.325-1.03-.529-.525-.832-1.163-.539-1.923.145-.374.443-.652.87-.473.459.194.318.563.206.946-.09.31-.722.505-.279.913.402.372.916.384 1.426.175.683-.279 1.079-.798 1.207-1.508.155-.856.282-1.717.42-2.576.412-.125.139-.44.187-.665 1.406-.797 2.817-.862 4.217 0 .253.155.488.369.667.607.179.239.312.539.081.841-.107.14-.247.241-.435.188-.294-.083-.404-.327-.502-.589-.343-.919-1.153-1.048-1.873-.304-.593.613-.586 1.415-.689 2.18-.127.949-.271 1.888-1.234 2.409-.43.122-.328.51-.405.809zm92.429 11.969l.026-.238c.245.075.358-.017.43-.264.159-.551.385-1.083.527-1.638.372-1.446.76-2.858 2.78-2.711a1720.5 1720.5 0 01-1.003 3.193c-.223.709-.474 1.411-.655 2.129-.094.37-.319.89.103 1.113.478.254.777-.257 1.073-.557.507-.514.782-1.176 1.1-1.81.094-.188.119-.541.458-.396.364.157.073.411-.007.583-.504 1.074-1.026 2.149-2.022 2.867-.638.46-1.343.867-2.16.466-.817-.401-.643-1.173-.618-1.875.135-.293.049-.578-.032-.862zm46.845-14.569c-.015-.174-.037-.343-.211-.44.545-.104.753-.493.77-.988.009-.263.33-.89-.462-.476-.303.157-.22-.218-.24-.363-.071-.536-.031-1.101-.184-1.61-.462-1.526.088-2.563 1.515-3.315.188 1.725.361 3.426.567 5.123.061.515.022 1.262.689 1.298.669.037.829-.693 1.011-1.233.366-1.086.242-2.204.186-3.315.298.223.185.549.216.84.063.596-.282 1.323.569 1.673.074.03.015.381.018.582-.273-.178-.292-.172-.395.146-.183.792-.478 1.535-1.01 2.16-.844.989-1.714 1.022-2.614.082-.137-.143-.251-.193-.425-.164zm-95.275 15.848a4.803 4.803 0 01-2.586 1.496c-.66.145-1.307.093-1.759-.477-.449-.566-.256-1.207.095-1.7 1.055-1.485 2.18-2.922 3.276-4.377.16-.213.366-.249.624-.238.535.025 1.071.009 1.813.009-.978 1.269-1.878 2.422-2.762 3.59-.386.51-.746 1.041-1.098 1.577-.128.195-.224.447-.035.657.188.21.439.11.666.048.571-.155.99-.569 1.481-.861.237-.055.332.038.285.276zm51.671-7.517c-.606-.068-1.104-.364-1.152-1.104-.049-.733.667-1.433 1.438-1.411.699.019 1.169.362 1.219 1.096.051.735-.668 1.424-1.505 1.419zm-50.011 1.009c-.6-.085-1.098-.429-1.09-1.215.006-.68.753-1.299 1.483-1.244.737.055 1.219.435 1.218 1.219-.002.676-.736 1.263-1.611 1.24z" fill="#fff"/><path d="M232.673 219.013l-.193-.643c.218-.102.386-.288.618-.365.711-.561 1.224-1.289 1.725-2.028.12-.179.182-.464.503-.332.245.101.137.341.183.518l.019-.024c-.962.948-1.618 2.199-2.855 2.874zm-6.698-.573c-.098-.095-.195-.191-.293-.284.431-.549.863-1.095 1.291-1.645.145-.185.283-.421.552-.194.241.201.007.351-.107.49-.461.562-.818 1.215-1.443 1.633zm-51.343-8.212c-.43.205-.4-.542-.806-.386l1.289-.758c.174.303.654-.239.727.239.061.403-.369.42-.599.581-.187.132-.407.218-.611.324zm85.3.821c.096.609.296.021.443.039-.094.548.04 1.157-.432 1.606-.005-.329-.183-.296-.397-.19.059-.503.061-1.021.386-1.455zm-61.65 4.946l-.285-.276c.289-.318.57-.645.871-.95.282-.286.463-.142.581.17-.09.3-.274.513-.578.612l-.589.444zm5.726-4.256c-.579-.491-1.291-.048-1.907-.275.593-.268 1.233-.122 1.848-.17.509-.039.287.256.059.445zm14.383 4.788c.016.343-.077.641-.365.856l-.237-.256c-.105-.124-.103-.243.017-.357.064-.395.383-.18.585-.243zm-73.495-19.839l1.856-.031c-.614.313-1.232.375-1.856.031zm84.32 18.062c.006-.337.111-.614.447-.772.282.305.024.536-.071.785l-.376-.013zm31.534-4.916c-.012-.167-.037-.37.133-.447.262-.117.243.122.258.27.025.265.03.533.045.798l-.436-.621z" fill="#fff"/><path d="M217.808 216.769c-.007.119-.012.239-.017.357a.208.208 0 01-.159.06l-.737.372c.265-.308.395-.771.913-.789zm-18.936-1.218l.577-.612h.235a1.653 1.653 0 01-.577.854l-.235-.242zm5.321-3.423l-.434.376c-.214.069-.265-.023-.215-.216l.409-.402.24.242zm28.905 5.877c-.119.267-.308.416-.618.365l.37-.824c.062.163.054.365.248.459zm-86.346-21.348c.197-.182.449-.366.65-.109.076.096-.221.27-.41.333l-.24-.224zm150.854 1.412l.068-.474.328.327.029.354-.425-.207zm-50.895 16.647c.486.268.164.569.032.862-.061-.135-.125-.268-.187-.401l.155-.461zm-105.084-39.361c-.278.679-1.077.328-1.648.251-1.608-.219-3.206-.516-4.816-.713-.762-.094-1.212-.348-1.365-1.163-.184-.982-.507-1.936-.812-3.061 2.246.601 4.217 1.301 6.079 2.284.536.284 1.066.595 1.55.957.493.369 1.306.725 1.012 1.445zm.736-.235c-.289-.863-.888-1.507-1.557-2.093-1.779-1.564-3.838-2.68-6.036-3.496-1.482-.55-3.003-.914-2.857-3.105-.76.587-1.151 1.068-.716 1.904-.519-.056-.913-.108-1.31-.14-.743-.058-1.498-.158-2.187.237-.495.284-.685.706-.53 1.287.156.59.55.441.96.389 1.091-.136 2.163.07 3.237.225.309.045.581.129.697.488.391 1.211.802 2.415 1.24 3.726-.416-.055-.714-.09-1.009-.134-.669-.099-1.341-.253-2.02-.135-.658.114-1.012.497-.928 1.211.085.712.409.855 1.098.651.429-.126.943-.017 1.409.052 2.482.363 4.96.759 7.443 1.112.564.08 1.157.105 1.721.03 1.22-.162 1.735-1.042 1.345-2.209z" fill="#fff"/><path d="M241.215 211.906c-.698 2.095-1.227 4.307-3.1 5.777-.2.157-.45.358-.729.155-.19-.138-.141-.36-.168-.591.776-1.938 1.548-3.878 2.331-5.812.145-.356.509-.266.795-.322.655-.129.985.445.871.793zm5.523 2.573c-.507-.203-.494.3-.645.516-.483.693-.882 1.448-1.597 1.95-.22.154-.487.339-.743.157-.261-.187-.17-.506-.072-.751.402-1.004.838-1.995 1.237-2.999.291-.732.574-1.507-.019-2.207-.59-.698-1.407-.425-2.178-.454-.441-.018-1.307 1.153-1.409-.341-.001-.021-.249-.02-.38-.034-.288-.033-.582.213-.908-.045l.812-2.095c-1.44.124-2.518.564-2.777 2.059-.05.286-.252.467-.579.464-.415-.003-.677.267-.654.622.024.367.496-.012.691.303a814.107 814.107 0 01-1.788 4.356c-.029.073-.129.117-.203.171-.071.393-.154.786-.212 1.18-.206 1.382.519 2.018 1.838 1.598 1.016-.324 1.727-1.047 2.335-1.882 1.049-1.441 1.701-3.079 2.229-4.76.2-.631.526-1.001 1.153-.784.734.255.376.843.192 1.28-.423.995-.959 1.946-1.332 2.958-.278.758-.487 1.638.34 2.228.815.582 1.631.251 2.368-.233.963-.634 1.552-1.59 2.118-2.558.16-.109.281-.243.288-.449a.55.55 0 00-.105-.25z" fill="#fff"/><path d="M235.51 216.162l.017-.012c.001-.004.001-.009.003-.012l-.02.024zm-22.406.67a6.297 6.297 0 01-.873.98c-.446.414-.978.932-1.593.533-.685-.444-.231-1.11.007-1.631.613-1.345 1.567-2.43 2.764-3.294.442-.32.937-.537 1.514-.56.204.034.484-.068.615.19.113.221-.099.375-.204.53-.734 1.091-1.47 2.18-2.23 3.252zm2.374-.145c1.388-2.126 2.776-4.251 4.163-6.378.336-.516.663-1.037 1.066-1.668-.547.073-.921.194-1.279.156-.861-.092-1.359.278-1.743 1.025-.4.78-.924 1.497-1.396 2.239-.159.248-.247.478-.694.352-2.946-.828-6.7 1.813-6.99 4.878-.136 1.425.782 2.229 2.201 1.973.741-.134 1.238-.655 1.826-1.056.298 1.204.905 1.617 2.045 1.279 1.268-.378 2.297-1.115 2.954-2.3-.404-.191-.453.324-.738.37-.241.186-.467.393-.727.549-.413.248-.879.802-1.329.365-.391-.381.12-.858.316-1.268.087-.182.214-.345.325-.516zm-72.017-27.849c-.976.394-2.005.592-3.089.64-.854-.063-1.737-.135-2.415-.802-.316-.311-.458-.607.157-.768 1.599-.415 3.154-1.026 4.811-1.181.796-.076 1.869-.206 2.063.76.168.836-.857 1.082-1.527 1.351zm1.246-2.509c-.073-.024-.125-.108-.271-.241 1.613-.474 3.138-.921 4.658-1.369-.94-1.308-2.005-1.43-3.383-.893-1.539.598-3.188.903-4.763 1.42-1.251.41-2.482.566-3.759.202-.231.4.381.208.337.476-.765 2.218-.487 3.622 1.19 4.411 1.208.569 2.397 1.144 3.518 1.864.084.053.172.109.267.141.766.268 1.722.125 2.251-.408-1.198.137-2.264.06-3.284-.912 1.393-.106 2.515-.345 3.522-.936.78-.458 1.491-1.017 1.383-2.054-.101-.977-.813-1.421-1.666-1.701zm14.045 18.501c1.546-1.048 2.868-2.219 4.466-2.956.82-.377 1.955-1.122 2.538-.108.491.852-.681 1.448-1.336 1.977-.955.769-2.034 1.331-3.25 1.571-.805.159-1.611.215-2.418-.484zm4.907 1.359c.47-.242.708-.355.938-.482.989-.548 1.897-1.193 2.494-2.18.793-1.315.227-2.527-1.292-2.761-.297-.047-.607-.017-.911-.022-.389.258-.833.3-1.463.423.46-.436.846-.558 1.25-.642-.398-.661-1.738-.924-2.383-.46-2.554 1.84-5.105 3.685-7.657 5.528-.342.248-.681.498-1.023.748 1.208.946 2.262.869 3.248-.151.092-.096.224-.153.326-.241.643-.551 1.248-1.013 1.97-.048.25.335.739.496 1.182.54 1.557.154 3.115.243 4.669.492 1.114.178 1.763-.307 2.147-1.179-1.095.658-2.135.925-3.495.435z" fill="#fff"/><path d="M138.067 182.438c-.525.114-1.071.126-1.509.174-1.332-.059-2.541-.178-3.49-1.091-.216-.21-.47-.464-.346-.787.116-.298.468-.211.719-.231 1.514-.121 3.022-.406 4.546-.277.796.068 1.906.113 1.946 1.063.039.99-1.105.982-1.866 1.149zm1.492-2.395c-.047-.019-.075-.089-.129-.157l5.052-.487c-.663-.566-.653-1.744-1.806-1.623-3.097.33-6.198.623-9.298.924-.348.034-.668.072-.834.448-.408.928-.769 1.982-.112 2.808a14.263 14.263 0 004.996 3.979c.026.013.066-.007.1-.01.254-.417-.41-.189-.337-.477-.417-.344-1.017-.497-1.264-1.192 1.135.027 2.184.108 3.189-.218.993-.321 2.001-.735 2.091-1.932.081-1.096-.709-1.68-1.648-2.063zm63.986 32.245l.215.216c-.257.239-.491.509-.98.624.196-.444.472-.65.765-.84zm-52.101-18.167c-1.152.633-2.307 1.268-3.555 1.702-.575.2-1.164.349-1.776.379-.346-.009-.704-.028-.885-.372-.196-.374.059-.677.301-.887 1.641-1.434 3.519-2.226 5.745-1.971.374.044.853.183.93.517.107.463-.472.474-.76.632zm2.067-.002a3.42 3.42 0 01-.862-.983c-.432-.743-1.089-1.232-1.926-1.375-2.469-.425-4.661.209-6.433 1.979-1.141 1.139-.867 2.234.608 2.948.619.089 1.239.145 1.854-.03.28-.14.303-.005.24.223-.41 1.06-.002 1.741 1.242 1.982 1.17.225 2.293-.046 3.393-.426.144-.049.373-.091.299-.313-.092-.281-.309-.154-.505-.104-.459.115-.919.247-1.386.305-.46.057-1.136.209-1.296-.255-.205-.589.512-.79.927-.989 1.218-.589 2.486-1.078 3.707-1.663.857-.411.877-.714.138-1.299zm15.167 15.492c-.543-.026-.753-.366-.548-1.006.439-1.371 3.556-3.917 4.992-4.048.547-.05 1.079-.02.945.773-.238 1.391-3.812 4.303-5.389 4.281zm5.148.231c-.357.05-.717.143-1.178-.097.713-.488 1.345-.978 1.84-1.608.648-.822 1.181-1.71.735-2.784-.472-1.139-1.516-1.495-2.635-1.579-2.224-.169-3.964.83-5.244 2.533-1.291 1.716-.55 3.481 1.564 3.99.453.109.976.249 1.395.128 1.246-.358 2.451.091 3.686-.007-.016.469-.355.895.038 1.289-.087-.61.208-1.066.604-1.479-.196-.279-.385-.574-.805-.386zm116.202-6.761c-.148.418-.407.85-.917.821-.45-.025-.656-.45-.818-.824-.41-.95-.459-1.967-.496-2.982.005-.918.056-1.831.48-2.671.171-.337.412-.664.839-.641.376.021.593.335.715.651.713 1.856.871 3.743.197 5.646zm3.319-3.374c-.337.288-.421.836-.997.975.024-.987.03-1.921-.321-2.81-.683-1.732-2.157-2.25-3.76-1.316-1.738 1.014-2.697 3.178-2.298 5.192.234.448.161.992.442 1.427.641 1.656 2.462 1.755 3.696.91 1.486-1.018 2.215-2.699 3.449-3.938.107-.232.17-.442-.211-.44zm-37.26 9.517c.208-.209.456-.449.798-.292.279.128.323.413.338.686.077 1.484-1.592 3.741-3.199 4.237.261-1.769.802-3.357 2.063-4.631zm3.83 3.073c-.165-.086-.283.071-.371.207-.302.406-.572.84-.91 1.213-.856.948-1.87 1.663-3.163 1.879-.659.11-1.175-.165-1.333-.806-.18-.734.544-.527.874-.656 1.748-.683 3.167-1.699 3.737-3.578.468-1.545-.472-2.55-2.055-2.247-2.282.436-4.204 2.533-4.578 4.99-.315 2.073.995 3.385 3.051 2.971 2.142-.43 3.746-1.634 4.774-3.576.138-.144.126-.318-.026-.397z" fill="#fff"/><path d="M300.725 196.512c-.283.255-.526.353-.639-.157-.322-1.454-.843-2.872-.857-4.376-.007-.728-.068-1.739.817-1.871.903-.136 1.056.879 1.285 1.559.23.675.318 1.391.329 2.244-.053.866-.114 1.864-.935 2.601zm3.868-5.708c-.017-.251.086-.644-.29-.645-.414-.001-.255.391-.252.633.018.935-.15 1.786-1.026 2.446-.178-1.091-.229-2.116-.701-3.031-.432-.835-.974-1.645-2.024-1.619-1.065.026-1.691.748-2.027 1.722-.156.362-.273.737-.292 1.095-.068-.281.211-.578-.061-.888-.757.048-1.669 1.215-1.417 1.929.644 1.83.838 3.675.369 5.566-.149.602-.173 1.514-.92 1.494-.628-.016-.509-.914-.648-1.45-.058-.225-.039-.471-.066-.706-.161-1.465-.324-2.93-.511-4.609-.604.726-1.669.724-1.657 1.686.011.937.219 1.873.341 2.81.323.994-.218 2.161.616 3.054.062.137.116.279.217.395.962.666 1.758.434 2.497-.691.546-.83.532-1.827.994-2.752l1.313 5.458c.241-.024.388-.168.482-.38.042-.658.859-.67 1.025-1.224-.129-.591-.209-1.199-.399-1.772-.321-.967-.449-1.784.836-2.135.293-.08.597-.373.758-.649.844-1.432 1.67-2.871 2.596-4.256.275-.411.282-.969.247-1.481z" fill="#fff"/><path d="M255.345 305.082c-.251 10.636 2.557 20.677 6.192 30.538.328.888.185 1.39-.443 2.044-7.015 7.295-13.592 14.957-19.25 23.366-4.584 6.814-7.777 14.239-9.726 22.201-.179.725-.51 1.175-1.171 1.509-3.425 1.732-6.937 3.145-10.875 3.018-3.518-.115-6.687-1.355-9.706-3.065-.382-.216-.505-.538-.589-.905-2.076-9.033-6.101-17.177-11.275-24.813-5.63-8.308-11.771-16.227-18.286-23.86-.317-.372-.369-.59-.17-1.051 3.952-9.151 6.351-18.636 6.165-28.678-.051-2.751-.081-5.501-.436-8.232-.101-.779.108-.749.763-.566 12.006 3.344 24.189 5.544 36.709 5.218 10.344-.271 20.461-2.081 30.408-4.882 1.519-.428 1.738-.221 1.703 1.378-.05 2.258-.013 4.519-.013 6.78zm79.339-177.232c5.13 10.137 10.261 20.273 15.389 30.411 2.597 5.135 5.191 10.272 7.788 15.407.098.196.215.384.465.828l8.013-33.216c.343.015.263.25.266.41.323 13.567.631 27.134.974 40.701.027 1.094-.208 2.048-.695 3.016-2.263 4.504-4.483 9.029-6.716 13.547-.199.401-.388.804-.7 1.455 8.604-2.767 16.994-5.464 25.477-8.19-.053.531-.394.663-.62.857a30405.794 30405.794 0 01-33.049 28.068 7.715 7.715 0 00-1.836 2.251c-4.005 7.418-8.049 14.815-12.057 22.231-.333.616-.731.929-1.431 1.093-17.749 4.166-35.484 8.386-53.239 12.518-2.444.568-4.523 1.49-6.422 3.195-4.713 4.237-9.591 8.292-14.408 12.413-.369.315-.76.632-1.192.844-8.256 4.037-16.518 8.058-24.779 12.081-.135.065-.278.109-.428.168-.177-.461.137-.805.285-1.168 3.571-8.774 7.16-17.539 10.721-26.316.245-.605.634-.972 1.166-1.298 8.736-5.367 17.461-10.752 26.197-16.116a6.631 6.631 0 001.688-1.474c7.343-8.953 14.697-17.897 22.055-26.837.204-.248.317-.617.926-.684l-8.487 21.019c4.074-.568 8.068-1.121 12.061-1.686 7.17-1.014 14.339-2.038 21.509-3.055.71-.1 1.42-.262 2.132-.261 2.039.003 3.075-1.007 3.952-2.857 5.039-10.639 10.233-21.204 15.398-31.784.305-.625.324-1.206.217-1.847-1.218-7.273-2.426-14.548-3.647-21.82-1.645-9.798-3.302-19.593-4.947-29.391-.771-4.599-1.522-9.202-2.281-13.803-.038-.281-.319-.647.255-.71zM185.22 295.559c.234 1.027-.198 1.275-1.246 1.356-2.398.184-4.777.594-7.165.908-2.092.275-4.182.569-6.277.804-.755.085-1.461-.211-2.1-.604-3.443-2.113-6.879-4.241-10.32-6.356-1.827-1.121-3.614-2.316-5.502-3.324-1.812-.968-3.158-2.449-4.455-3.924-1.261-1.433-2.646-2.742-3.9-4.181-2.585-2.963-5.329-5.786-7.993-8.68-.476-.518-.943-1.063-1.296-1.664-.538-.912-.342-1.22.691-1.091.8.101 1.587.335 2.37.549 8.109 2.22 16.213 4.46 24.326 6.668 5.882 1.602 11.722 3.353 17.652 4.775.739.177 1.174.566 1.391 1.32a867.45 867.45 0 003.411 11.508c.194.634.575 1.212.413 1.936zm120.845-26.688c-.083 1.096-.874 1.815-1.518 2.535-2.501 2.793-5.08 5.519-7.639 8.262-2.1 2.25-4.204 4.495-6.318 6.732-1.587 1.68-3.716 2.583-5.624 3.79-4.019 2.543-8.158 4.894-12.124 7.51-1.781 1.175-3.545.8-5.344.613-2.537-.264-5.057-.694-7.588-1.027-1.288-.169-2.559-.443-3.872-.47-.749-.014-1.036-.828-.629-1.837.924-2.29 1.529-4.679 2.258-7.03.632-2.038 1.275-4.071 1.861-6.123.143-.501.353-.706.86-.842 5.542-1.483 11.073-2.998 16.606-4.51 4.669-1.276 9.336-2.557 14.003-3.841 4.496-1.235 8.989-2.484 13.489-3.706.496-.134 1.025-.277 1.579-.056zM108.622 127.85l-15.39 30.411c-2.597 5.135-5.19 10.272-7.787 15.407-.099.196-.215.384-.465.828-2.71-11.234-5.362-22.229-8.014-33.216-.343.015-.262.25-.266.41-.322 13.567-.63 27.134-.974 40.701-.028 1.094.21 2.048.696 3.016 2.263 4.504 4.482 9.029 6.716 13.547.197.401.387.804.7 1.455a91242.55 91242.55 0 00-25.479-8.19c.055.531.396.663.622.857a28608.73 28608.73 0 0033.049 28.068 7.703 7.703 0 011.835 2.251c4.006 7.418 8.049 14.815 12.059 22.231.332.616.73.929 1.43 1.093 17.748 4.166 35.483 8.386 53.239 12.518 2.443.568 4.522 1.49 6.421 3.195 4.714 4.237 9.591 8.292 14.409 12.413.369.315.76.632 1.193.844 8.254 4.037 16.517 8.058 24.778 12.081.133.065.278.109.427.168.178-.461-.136-.805-.284-1.168-3.571-8.774-7.16-17.539-10.72-26.316-.246-.605-.636-.972-1.167-1.298-8.736-5.367-17.461-10.752-26.197-16.116a6.653 6.653 0 01-1.689-1.474 19510.643 19510.643 0 00-22.055-26.837c-.203-.248-.317-.617-.925-.684l8.487 21.019c-4.074-.568-8.069-1.121-12.061-1.686-7.171-1.014-14.339-2.038-21.509-3.055-.71-.1-1.422-.262-2.131-.261-2.04.003-3.077-1.007-3.953-2.857-5.04-10.639-10.233-21.204-15.399-31.784-.304-.625-.324-1.206-.217-1.847 1.219-7.273 2.427-14.548 3.647-21.82 1.645-9.798 3.303-19.593 4.947-29.391.772-4.599 1.521-9.202 2.282-13.803.038-.281.319-.647-.255-.71z" fill="#000"/></svg>