<svg width="582" height="194" fill="none" xmlns="http://www.w3.org/2000/svg"><rect width="582" height="194" rx="20" fill="#fff"/><path fill-rule="evenodd" clip-rule="evenodd" d="M144.356 62.806c-5.811 2.23-9.668.41-14.336.164C92.855 59.773 68.062 69.747 66 93.755c1.328 29.426 43.702 34.852 77.232 25.397-.181-3.497.43-6.633 1.08-9.928.108-.534-.005-1.214.109-1.758l-2.866.153c-3.737 22.653-59.015 18.852-58.042-15.222-.486-34.052 53.286-36.429 56.242-12.924.978.334 2.038.404 3.612.14-1.525-5.248-1.802-10.11.812-15.16.216-.426-.006-1.198.177-1.647z" fill="#00ADEF"/><path fill-rule="evenodd" clip-rule="evenodd" d="M154.403 64.76c.164-.736.786-1 1.345-.996 9.711.08 15.361.304 17.742-2.97l2.639-.029V89.79c8.569-9.622 29.223-10.119 35.136-1.823 4.189 5.271 2.976 13.704 3.254 24.267.152 4.657 1.928 7.136 8.603 8.292.305.157.249.723-2.265.25-6.297-1.191-13.428-1.621-19.865.137.759-22.499 2.156-36.159-12.015-34.958-12.848.948-14.805 7.482-12.91 28.348.383 3.962 3.531 5.441 8.497 6.754.134.03.345.023.317.25-.44.225-1.364.091-2.049-.031-8.821-1.598-16.065-1.868-24.716.163-.203.048-.861.214-1.073.093.012-.129.148-.16.264-.205 3.612-1.608 5.47-4.228 5.574-8.071V69.497c-1.009-5.22-7.954-3.502-8.478-4.737z" fill="#2E3192"/><path fill-rule="evenodd" clip-rule="evenodd" d="M283.234 57.562l44.021 42.984L284.7 145l-44.017-42.977 42.551-44.46z" fill="#ED1C24"/><path fill-rule="evenodd" clip-rule="evenodd" d="M229.868 85.866c1.325-.522 2.629-.66 3.83-.67 9.879-.085 11.685.879 16.409-3.531.491-.455 1.197-.68 1.908-.379v30.49c-.01 4.748 2.987 7.136 8.002 8.001.334.065.724.027.753.397-6.493.257-10.342-1.078-15.508-1.105-4.851-.021-7.603 1.749-13.731 1.461.28-.417.273-.362.542-.417 4.573-.913 6.037-3.062 6.356-6.517V90.129c-.53-3.024-4.568-4.054-8.641-3.63l.08-.633z" fill="#A0148E"/><path fill-rule="evenodd" clip-rule="evenodd" d="M296.784 91.654c4.753 1.266 9.429-1.31 8.099-6.428-3.806-4.653-18.802-5.62-28.05-2.78-10.494 3.216-19.787 10.416-19.395 21.058.82 22.141 42.704 22.007 50.323 10.745.098-.524-.93-.425-1.384-.239-20.538 8.134-37.984-2.138-35.748-19.803 1.618-12.094 22.993-15.832 26.155-2.553z" fill="#fff"/><path fill-rule="evenodd" clip-rule="evenodd" d="M406.574 115.009c10.991-3.289 9.928-13.266 9.712-13.478-28.139 1.141-19.888 16.731-9.712 13.478zm-6.978-22.612c-13.734 3.828-16.089-7.93.285-11.96 10.81-2.11 21.452-1.193 26.21 3.794 9.796 7.29-3.397 35.143 13.723 29.765.362-.109.582-.167.96.126-4.817 6.087-20.356 6.918-21.881-1.727-.054-.281-.693-.243-.915-.044-7.793 9.421-30.166 10.937-33.561.681-1.072-15.648 28.331-10.575 32.583-17.631 6.559-15.84-21.572-20.337-17.404-3.004z" fill="#EC008C"/><path fill-rule="evenodd" clip-rule="evenodd" d="M465.18 56.146c-5.352 6.355-10.611 2.435-20.674 4.848.082 2.342 8.385-1.171 9.226 5.612l.393 44.948c-.164 4.173-2.234 5.691-7.475 6.11l-.125.513 4.668-.26 10.148-1.322c4.712-.564 8.698 1.509 14.815 1.537 0-.359-.111-.974-.522-1.077-4.28-1.075-8.482-2.316-8.351-6.969l-.767-53.505c-.308-.582-.763-.726-1.336-.435z" fill="#F47216"/><path fill-rule="evenodd" clip-rule="evenodd" d="M470.883 95.113l18.63-15.305 18.409.342s-.519.4-.912.468c-9.772 1.595-17.961 5.17-25.018 10.075-.504 1.214.603 1.831.965 2.238 11.645 13.033 21.195 23.871 32.043 23.497l-.104 1.363h-17.518c-7.852-3.251-15.843-11.553-26.495-22.678z" fill="#F47216"/><path fill-rule="evenodd" clip-rule="evenodd" d="M308.421 64.76c.16-.736.788-1 1.345-.996 9.71.08 15.364.304 17.744-2.97l2.633-.029V89.79c8.571-9.622 29.222-10.119 35.136-1.823 4.188 5.271 2.979 13.704 3.258 24.267.149 4.657 1.926 7.136 8.6 8.292.303.157.252.723-2.267.25-6.294-1.191-13.425-1.621-19.86.137.755-22.499 2.154-36.159-12.015-34.958-12.852.948-14.812 7.482-12.914 28.348.391 3.962 3.534 5.441 8.494 6.754.139.03.348.023.324.25-.444.225-1.363.091-2.047-.031-8.823-1.598-16.075-1.868-24.72.163-.205.048-.865.214-1.076.093.015-.129.152-.16.264-.205 3.618-1.608 5.472-4.228 5.578-8.071V69.497c-1.009-5.22-7.96-3.502-8.477-4.737z" fill="#99D420"/><path fill-rule="evenodd" clip-rule="evenodd" d="M241.325 78.573c5.195 0 9.434-2.447 9.434-5.445 0-2.994-4.239-5.444-9.434-5.444-5.198 0-9.433 2.45-9.433 5.444 0 2.998 4.235 5.445 9.433 5.445z" fill="#A0148E"/></svg>