<svg width="324" height="65" fill="none" xmlns="http://www.w3.org/2000/svg"><path fill-rule="evenodd" clip-rule="evenodd" d="M56.542 5.614c-4.193 1.59-6.977.292-10.345.117C19.38 3.45 1.487 10.564 0 27.689c.958 20.99 31.535 24.86 55.731 18.115-.131-2.494.31-4.731.779-7.081.078-.381-.003-.866.08-1.255l-2.069.11C51.824 53.736 11.935 51.025 12.638 26.72 12.287 2.432 51.088.736 53.222 17.502c.706.238 1.47.288 2.606.099-1.1-3.742-1.3-7.21.586-10.813.156-.304-.004-.854.128-1.174z" fill="#00ADEF"/><path fill-rule="evenodd" clip-rule="evenodd" d="M63.792 7.007c.118-.525.567-.713.97-.71 7.008.056 11.085.217 12.803-2.118l1.904-.021V24.86c6.184-6.863 21.088-7.217 25.355-1.3 3.023 3.76 2.147 9.775 2.348 17.31.11 3.321 1.391 5.09 6.208 5.914.22.113.18.516-1.634.179-4.545-.85-9.69-1.157-14.335.097.547-16.048 1.555-25.79-8.67-24.934-9.272.676-10.684 5.336-9.317 20.22.277 2.826 2.549 3.88 6.132 4.817.097.021.25.017.23.178-.319.16-.985.065-1.48-.022-6.365-1.14-11.592-1.332-17.834.117-.147.034-.622.152-.775.066.009-.092.107-.115.19-.147 2.607-1.146 3.948-3.015 4.022-5.756V10.386c-.728-3.723-5.739-2.498-6.117-3.379z" fill="#2E3192"/><path fill-rule="evenodd" clip-rule="evenodd" d="M156.757 1.873l31.766 30.66-30.708 31.708-31.764-30.655 30.706-31.713z" fill="#ED1C24"/><path fill-rule="evenodd" clip-rule="evenodd" d="M118.248 22.062c.956-.373 1.896-.47 2.763-.478 7.129-.061 8.432.627 11.841-2.519.354-.324.864-.485 1.377-.27v21.748c-.008 3.386 2.155 5.09 5.774 5.707.241.046.522.019.544.283-4.686.183-7.464-.769-11.191-.788-3.501-.015-5.486 1.247-9.909 1.042.202-.297.198-.258.391-.297 3.3-.652 4.357-2.184 4.587-4.649V25.103c-.383-2.157-3.296-2.892-6.235-2.59l.058-.45z" fill="#A0148E"/><path fill-rule="evenodd" clip-rule="evenodd" d="M166.535 26.19c3.429.903 6.804-.934 5.844-4.584-2.747-3.32-13.568-4.01-20.242-1.984-7.572 2.294-14.278 7.43-13.995 15.021.592 15.792 30.815 15.697 36.313 7.664.071-.374-.671-.303-.998-.17-14.821 5.802-27.41-1.525-25.796-14.126 1.167-8.626 16.591-11.292 18.874-1.82z" fill="#fff"/><path fill-rule="evenodd" clip-rule="evenodd" d="M245.759 42.849c7.932-2.346 7.165-9.462 7.009-9.613-20.306.814-14.352 11.934-7.009 9.613zm-5.034-16.129c-9.911 2.73-11.611-5.656.205-8.53 7.8-1.505 15.48-.852 18.913 2.705 7.069 5.2-2.451 25.067 9.903 21.232.261-.078.42-.12.693.09-3.476 4.341-14.69 4.934-15.79-1.232-.039-.2-.5-.174-.661-.032-5.623 6.72-21.767 7.801-24.217.486-.774-11.161 20.444-7.543 23.512-12.576 4.733-11.298-15.566-14.506-12.558-2.143z" fill="#EC008C"/><path fill-rule="evenodd" clip-rule="evenodd" d="M288.05.863c-3.863 4.533-7.658 1.737-14.919 3.458.059 1.67 6.051-.835 6.657 4.003l.284 32.06c-.118 2.977-1.612 4.06-5.394 4.359l-.09.365 3.369-.185 7.322-.943c3.4-.402 6.277 1.077 10.691 1.097 0-.256-.08-.695-.377-.768-3.088-.767-6.12-1.652-6.026-4.971l-.553-38.165c-.222-.415-.551-.518-.964-.31z" fill="#F47216"/><path fill-rule="evenodd" clip-rule="evenodd" d="M292.165 28.657l13.443-10.917 13.284.245s-.375.285-.658.334c-7.051 1.137-12.96 3.687-18.053 7.186-.364.866.435 1.306.696 1.596 8.403 9.296 15.294 17.027 23.123 16.76l-.076.972h-12.641c-5.665-2.318-11.432-8.24-19.118-16.175z" fill="#F47216"/><path fill-rule="evenodd" clip-rule="evenodd" d="M174.932 7.007c.115-.525.568-.713.97-.71 7.007.056 11.087.217 12.804-2.118l1.9-.021V24.86c6.185-6.863 21.087-7.217 25.355-1.3 3.022 3.76 2.149 9.775 2.35 17.31.108 3.321 1.39 5.09 6.206 5.914.219.113.182.516-1.635.179-4.542-.85-9.688-1.157-14.332.097.545-16.048 1.555-25.79-8.67-24.934-9.274.676-10.688 5.336-9.318 20.22.282 2.826 2.55 3.88 6.129 4.817.1.021.251.017.234.178-.321.16-.984.065-1.478-.022-6.366-1.14-11.6-1.332-17.837.117-.148.034-.624.152-.777.066.011-.092.11-.115.191-.147 2.61-1.146 3.948-3.015 4.025-5.756V10.386c-.728-3.723-5.744-2.498-6.117-3.379z" fill="#99D420"/><path fill-rule="evenodd" clip-rule="evenodd" d="M126.515 16.86c3.749 0 6.808-1.745 6.808-3.884 0-2.136-3.059-3.883-6.808-3.883-3.751 0-6.807 1.747-6.807 3.883 0 2.139 3.056 3.884 6.807 3.884z" fill="#A0148E"/></svg>