<svg width="309" height="86" fill="none" xmlns="http://www.w3.org/2000/svg"><path d="M10.192 76.74c-.85 0-1.817-.193-2.9-.58a12.522 12.522 0 01-3.132-1.392 8.503 8.503 0 01-2.436-2.552C1.028 71.211.68 70.051.68 68.736v-.116h.116c.155 0 .232-.077.232-.232a8.49 8.49 0 00-.116-1.392 7.81 7.81 0 01-.116-1.276c0-1.47.193-2.359.58-2.668l.116-.58c0-.387.077-.85.232-1.392a8.352 8.352 0 01.464-1.74c.232-.619.464-1.121.696-1.508.155-.232.541-.85 1.16-1.856.619-1.005.928-2.01.928-3.016.232-.387.657-1.005 1.276-1.856a33.95 33.95 0 011.972-2.668c.696-.928 1.315-1.74 1.856-2.436.619-.696.967-1.044 1.044-1.044l.116.116.232-.232c.077-.077.116-.155.116-.232h-.116c0-.077.077-.232.232-.464l.696-.696c.232-.31.464-.541.696-.696.232-.232.387-.348.464-.348h.116l-.232.232c-.232.232-.348.387-.348.464h.232c.155 0 .232-.039.232-.116 0 .232.155.232.464 0a8.2 8.2 0 001.16-1.16c.464-.464.89-.928 1.276-1.392.464-.464.812-.773 1.044-.928l.696-.348c.464-.31 1.005-.619 1.624-.928a22.415 22.415 0 011.856-1.044c.619-.31 1.121-.464 1.508-.464.232 0 .348-.039.348-.116v-.232c.077 0 .155.116.232.348.155.155.387.232.696.232-.077 0 .31-.27 1.16-.812a5.331 5.331 0 013.016-.928c.31 0 .58.077.812.232.31.155.58.232.812.232h.348a1.03 1.03 0 01.464-.116c.541 0 1.16.077 1.856.232a6.609 6.609 0 011.856.696c.619.232 1.121.541 1.508.928.464.31.696.657.696 1.044s-.039.657-.116.812a1.03 1.03 0 00-.116.464c0 .155.155.232.464.232.31 0 .464.116.464.348 0 .232-.27.657-.812 1.276-.541.619-.812 1.044-.812 1.276-.155.464-.503 1.044-1.044 1.74-.464.619-1.083 1.315-1.856 2.088a36.506 36.506 0 01-2.436 2.204c-.85.696-1.74 1.392-2.668 2.088l-1.74 1.276c-1.16.773-2.59 1.701-4.292 2.784a82.223 82.223 0 01-5.336 3.016c-1.856.928-3.519 1.547-4.988 1.856-.541.155-.89.31-1.044.464-.155.155-.27.387-.348.696-.077.31-.193.657-.348 1.044-.077.387-.348.812-.812 1.276-.773.85-1.276 2.01-1.508 3.48-.155 1.47-.232 2.63-.232 3.48 0 1.315.348 2.32 1.044 3.016.773.696 1.701 1.044 2.784 1.044 1.083 0 2.127-.116 3.132-.348 1.083-.31 2.05-.657 2.9-1.044.85-.464 1.547-.89 2.088-1.276.619-.387 1.044-.696 1.276-.928l1.044-.812a59.122 59.122 0 002.9-2.204 93.034 93.034 0 004.06-3.248 68.167 68.167 0 004.292-3.944 173.473 173.473 0 012.668-2.436l1.624-1.624.812-.812a3.46 3.46 0 00.464-.348c.541-.619.967-1.005 1.276-1.16l.928-.696c.387-.31.812-.735 1.276-1.276.541-.541 1.276-1.43 2.204-2.668 1.16-1.547 2.397-2.9 3.712-4.06 1.392-1.237 2.745-1.856 4.06-1.856.155 0 .232.039.232.116h.232c.155 0 .232.039.232.116 0 .077-.232.348-.696.812a153.439 153.439 0 00-3.248 3.132 65.33 65.33 0 00-2.9 3.132l-5.568 5.568-3.248 3.248c-.773.773-1.392 1.353-1.856 1.74l-1.392 1.16-1.16 1.16a202.56 202.56 0 01-2.668 2.32 334.911 334.911 0 00-3.596 3.132 50.105 50.105 0 01-4.06 3.016c-.387.31-.928.735-1.624 1.276-.696.464-1.547.928-2.552 1.392-1.005.464-2.165.85-3.48 1.16-1.315.387-2.784.58-4.408.58zm2.32-19.952l.696-.232c.464-.155.967-.348 1.508-.58l1.856-.928c.619-.31 1.16-.619 1.624-.928-.077.077.155-.039.696-.348.541-.31 1.199-.696 1.972-1.16.85-.541 1.74-1.121 2.668-1.74a15.913 15.913 0 002.436-1.972c.077-.077.541-.464 1.392-1.16a63.353 63.353 0 002.9-2.32 51.588 51.588 0 002.9-2.668c.928-.85 1.392-1.43 1.392-1.74l-.116-.116c0-.077.155-.27.464-.58.31-.387.464-.696.464-.928 0-.077-.193-.27-.58-.58-.31-.31-.541-.464-.696-.464-.155 0-.464.077-.928.232-.387.155-.735.31-1.044.464a62.76 62.76 0 01-3.248 1.624c-.773.387-1.47.773-2.088 1.16-.541.387-1.121.812-1.74 1.276-.541.387-1.237.928-2.088 1.624l-1.044.696c-.31.155-.89.696-1.74 1.624-.85.85-1.624 1.47-2.32 1.856h-.232c.077 0 .077.077 0 .232 0 .155-.116.425-.348.812-.232.387-.735.967-1.508 1.74-.387.232-.696.657-.928 1.276-.155.619-.541 1.237-1.16 1.856-.232.31-.503.696-.812 1.16-.31.464-.425.735-.348.812zm24.17 19.372c-1.006 0-1.586-.039-1.74-.116-.232-.077-.387-.116-.464-.116a.493.493 0 01-.464 0c-.232 0-.542-.116-.928-.348-.464-.232-1.122-.657-1.972-1.276h-.116c-.155-.387-.232-.696-.232-.928-.078-.232-.116-.657-.116-1.276.077-.077.232-.619.464-1.624.232-1.083 1.121-2.436 2.668-4.06 2.32-2.243 4.562-4.137 6.728-5.684a79.642 79.642 0 005.916-4.872c.077-.541.232-1.353.464-2.436a43.5 43.5 0 00.58-3.364c.232-1.16.425-2.204.58-3.132.154-.928.232-1.47.232-1.624-.078-.773-.039-1.353.116-1.74.154-.464.309-1.083.464-1.856 0-.31.154-.85.464-1.624a35.3 35.3 0 011.044-2.552c.464-.85.889-1.585 1.276-2.204.386-.696.696-1.121.928-1.276.464-.232.657-.387.58-.464 0-.077.154-.116.464-.116l.116.116c.232 0 .618-.116 1.16-.348.541-.232.928-.348 1.16-.348.309 0 .85.077 1.624.232.773.077 1.237.193 1.392.348 0 .232-.039.503-.116.812v.58c.077.232 0 .619-.232 1.16-.232.464-.658 1.121-1.276 1.972-.619.773-1.624 1.74-3.016 2.9-.928.85-1.47 1.74-1.624 2.668-.078.85-.116 1.972-.116 3.364 0-.155.038.27.116 1.276a32.54 32.54 0 01.116 2.32v2.436l.464-.232c3.016-1.624 5.374-2.823 7.076-3.596 1.778-.773 3.209-1.43 4.292-1.972 1.16-.541 2.165-1.005 3.016-1.392.85-.464 1.933-1.16 3.248-2.088l1.276.464c.464.155.657.387.58.696-.078.232-.348.503-.812.812-.387.232-1.044.58-1.972 1.044-.851.464-2.011 1.083-3.48 1.856-1.47.696-3.287 1.624-5.452 2.784-1.315.619-2.436 1.16-3.364 1.624-.928.464-1.779.85-2.552 1.16 0 .077-.271.27-.812.58l-1.74 1.16c-.155 1.083-.31 1.933-.464 2.552-.155.619-.31 1.16-.464 1.624l-.464 1.16a7.15 7.15 0 00-.116 1.392c0 .077.038.155.116.232 0 .077-.039.116-.116.116-.078 0-.116.077-.116.232v.116c0 .155-.039.232-.116.232-.078-.077-.116.039-.116.348v.232c0 .077-.271.425-.812 1.044-.542.541-1.044 1.47-1.508 2.784-.155.387-.31.541-.464.464-.078-.077-.116-.039-.116.116 0 .232.038.348.116.348v-.116c.154 0 .232.039.232.116 0 .155-.039.232-.116.232v.232c0-.077-.116 0-.348.232l-.812.812c-.232.31-.503.619-.812.928-.232.232-.464.348-.696.348-.387 0-.735.193-1.044.58-.232.31-.542.696-.928 1.16-.387.387-.851.773-1.392 1.16-.464.31-1.044.464-1.74.464-.155 0-.232.039-.232.116 0 .155-.078.31-.232.464-.078.155-.348.27-.812.348-.464.155-1.276.232-2.436.232zm-2.436-3.596c.154 0 .309-.039.464-.116.077-.155.193-.232.348-.232.077 0 .154.039.232.116h.116c.309 0 .773-.077 1.392-.232.541-.232.773-.387.696-.464 0-.155.541-.541 1.624-1.16 1.16-.696 2.358-2.05 3.596-4.06 0-.077.309-.27.928-.58.618-.31.928-.773.928-1.392l-.116-.116c0-.077.038-.077.116 0 .077 0 .154-.039.232-.116.154-.077.27-.27.348-.58.154-.387.309-1.044.464-1.972v-.116c0-.232.038-.425.116-.58v-.232c.077-.077.116-.155.116-.232-.078 0-.039-.232.116-.696.077-.232.154-.425.232-.58-.078 0-.31.116-.696.348l-.928.696a71.047 71.047 0 00-3.48 2.668 45.421 45.421 0 00-3.48 3.132c-1.083 1.005-1.972 1.972-2.668 2.9-.696.928-1.044 1.74-1.044 2.436 0 .773.116 1.16.348 1.16zm19.256-32.016c.386 0 .773-.232 1.16-.696a14.36 14.36 0 001.276-1.74c.386-.696.696-1.315.928-1.856.309-.619.464-.967.464-1.044-.078-.155-.348-.27-.812-.348-.387-.077-.658-.116-.812-.116-.232 0-.348.155-.348.464-.619.696-1.044 1.237-1.276 1.624-.155.387-.232.735-.232 1.044a6.207 6.207 0 00-.464 2.32v.232c0 .077.038.116.116.116zm9.896 44.66c-.928 0-1.933-.27-3.016-.812l-.58-.348a7.118 7.118 0 01-1.276-.696 4.896 4.896 0 01-1.276-.928c-.387-.31-.58-.619-.58-.928v-.232c0-.077-.116-.425-.348-1.044-.31-.773-.503-1.237-.58-1.392-.077-.077-.116-.541-.116-1.392.077-.31.116-.657.116-1.044v-1.044c.155-2.01.425-3.635.812-4.872.31-1.237.464-2.32.464-3.248.31-.464.58-.928.812-1.392.387-.773.657-1.47.812-2.088.077 0 .193-.27.348-.812.155-.541.31-.89.464-1.044-.155 0-.116-.116.116-.348.155-.232.387-.541.696-.928.31-.387.58-.85.812-1.392.31-.541.464-1.16.464-1.856 0-.077-.077-.116-.232-.116-.077 0-.116-.039-.116-.116 0-.232.039-.27.116-.116.077.077.232.077.464 0s.503-.387.812-.928c.387-.619.85-1.779 1.392-3.48.077-.155.27-.425.58-.812l.928-1.392c.31-.464.58-.89.812-1.276.31-.464.464-.773.464-.928l.464-.58c.31-.387.619-.85.928-1.392.387-.619.735-1.199 1.044-1.74.387-.541.58-.967.58-1.276l.348-.348c.232-.232.464-.503.696-.812.31-.387.58-.773.812-1.16.232-.387.348-.657.348-.812 0-.077-.039-.116-.116-.116h-.116c-.155 0-.232-.077-.232-.232.077-.077.193-.116.348-.116h.116c.155 0 .387-.193.696-.58.31-.387.464-.657.464-.812 0-.077-.077-.116-.232-.116-.696 0-1.624.193-2.784.58-1.16.387-2.32.812-3.48 1.276-1.16.464-2.204.89-3.132 1.276l-1.276.58-.58.348-.58-.348c-.077 0-.348-.193-.812-.58-.464-.387-.696-1.044-.696-1.972l.464-.232c.232-.155.503-.27.812-.348.31-.155.619-.27.928-.348.31-.155.503-.232.58-.232 3.093-.85 5.839-1.779 8.236-2.784 2.397-1.005 3.944-1.508 4.64-1.508.387-.232.85-.85 1.392-1.856a75.044 75.044 0 001.624-3.48 27.78 27.78 0 001.276-3.48c.387-1.083.58-1.74.58-1.972 0-.387-.193-.735-.58-1.044-.31-.31-.464-.541-.464-.696 0-.155.193-.232.58-.232.696 0 1.547.348 2.552 1.044 1.083.696 1.624 1.43 1.624 2.204.077.077.193.27.348.58.077.232.155.619.232 1.16.077.464.116 1.083.116 1.856 0 1.005-.077 1.74-.232 2.204-.155.464-.232.773-.232.928v.116c.077 0 .116.039.116.116-.077.077-.155.116-.232.116-.077 0-.116.039-.116.116 0 .077.039.116.116.116h.116c.232 0 .348.039.348.116.31-.155.657-.348 1.044-.58a6.15 6.15 0 011.276-.348 6.308 6.308 0 011.74-.232c1.47 0 2.475-.116 3.016-.348.541-.232 1.276-.348 2.204-.348 2.784 0 4.756.27 5.916.812 1.237.541 2.281 1.121 3.132 1.74.309.31.464.58.464.812 0 .077-.039.116-.116.116a8.125 8.125 0 00-.348 1.044 6.31 6.31 0 00-.348.812c0 .232-.077.387-.232.464h-1.044c0-.232.077-.425.232-.58a.786.786 0 00.232-.58c0-.077-.155-.232-.464-.464-.077 0-.116-.039-.116-.116 0-.155-.155-.27-.464-.348-.232-.155-.696-.27-1.392-.348-.696-.155-1.779-.232-3.248-.232-.773 0-1.315.039-1.624.116-.31 0-.541.039-.696.116-.077 0-.193.039-.348.116h-.58c-.31 0-.464-.039-.464-.116a1.291 1.291 0 01-.928.348c-.155 0-.232-.039-.232-.116 0-.155-.077-.232-.232-.232-.155 0-.503.155-1.044.464-.464.232-.773.348-.928.348-.077 0-.116-.039-.116-.116l.116-.116c0-.077-.077-.116-.232-.116-.387.155-.735.31-1.044.464-.464.155-.735.232-.812.232-.155.077-.27.116-.348.116-.155 0-.232-.039-.232-.116 0-.077-.039-.116-.116-.116-.155 0-.348.077-.58.232-.232.155-.425.232-.58.232-.077 0-.155-.039-.232-.116-.232 0-.348.039-.348.116 0 .155-.155.27-.464.348-.31 0-.657.077-1.044.232a3.092 3.092 0 00-1.044.696c-.31.232-.464.619-.464 1.16l.116.116c0 .155-.232.619-.696 1.392-.464.696-.773 1.121-.928 1.276l-.232.232h.232c.155-.077.27-.116.348-.116v.232c-.077-.155-.27-.116-.58.116-.232.155-.696 1.044-1.392 2.668l-.232.232v.232c0 .464-.27.967-.812 1.508-.464.541-.696.85-.696.928v.232c.077 0 .116.039.116.116 0 .155-.155.425-.464.812l-.348.348c0 .232-.27.541-.812.928-.464.31-.696.541-.696.696l.116.116c.155 0 .232-.039.232-.116.077-.155.155-.232.232-.232v.116c0 .155-.039.31-.116.464-.077.155-.193.232-.348.232h-.116c-.155.541-.348.967-.58 1.276-.464.85-.85 1.276-1.16 1.276h-.116c-.31.232-.58.503-.812.812-.541.541-.812.967-.812 1.276.232 0 .425-.039.58-.116.077-.077.193-.155.348-.232v.116c0 .155-.116.425-.348.812-.232.31-.425.541-.58.696-.387.155-.58.27-.58.348.077 0 .116.116.116.348.077.155 0 .464-.232.928-.155.387-.657 1.005-1.508 1.856l-.116.116-.58.58c-.155.232-.348.503-.58.812-.155.232-.232.425-.232.58l.232.232.232-.116a26.62 26.62 0 00-.464 1.044c-.232.464-.657 1.005-1.276 1.624-.155.155-.31.735-.464 1.74-.155 1.005-.657 1.933-1.508 2.784-.155 0-.31.232-.464.696a21.75 21.75 0 00-.464 1.624 10.26 10.26 0 00-.464 2.32c0 .773-.193 1.547-.58 2.32-.387.85-.58 2.05-.58 3.596v.696c0 .464.039.928.116 1.392.077.541.193 1.005.348 1.392.232.387.541.58.928.58.464 0 1.005-.077 1.624-.232a6.526 6.526 0 001.856-.464 5.157 5.157 0 001.624-.696c.464-.232.773-.464.928-.696l.116-.348.232.464c.077.155.116.31.116.464 0 .232-.193.541-.58.928-.387.464-.89.89-1.508 1.276a6.95 6.95 0 01-1.856.928c-.619.31-1.199.464-1.74.464zm7.424-30.16c.155 0 .232-.039.232-.116 0-.077-.039-.155-.116-.232l-.116.232-.116.116h.116zm15.954 20.068c-.387-.387-.658-.89-.812-1.508-.155-.696-.194-1.276-.116-1.74 0-.155.077-.387.232-.696.154-.31.348-.58.58-.812.154-.31.309-.541.464-.696.077-.155.116-.155.116 0h.232c.154 0 .348-.116.58-.348.618-.155 1.314-.155 2.088 0 .773.077 1.276.27 1.508.58.154.232.348.619.58 1.16.232.464.27.85.116 1.16-.62.85-1.006 1.47-1.16 1.856-.155.387-.542.657-1.16.812-.387.155-.967.31-1.74.464-.774.155-1.276.077-1.508-.232zm54.141-39.556l.348-.116a6.31 6.31 0 00.812-.348c.309-.232.58-.464.812-.696.309-.31.464-.58.464-.812.077 0 .116-.039.116-.116h-.116c-.155 0-.387.077-.696.232-.232.155-.348.27-.348.348v.116c0 .387-.232.619-.696.696-.464 0-.774.193-.928.58 0 .077.077.116.232.116zm-.232 28.768c.696 0 1.121-.193 1.276-.58 0-.077-.078-.116-.232-.116h-.116c-.155 0-.232-.039-.232-.116 0-.077-.039-.116-.116-.116-.078 0-.155.039-.232.116 0 .077-.039.116-.116.116l-.232-.116c-.078 0-.194.077-.348.232-.078.077-.194.116-.348.116-.078 0-.116.039-.116.116l.232.232c.077.077.27.116.58.116zm-27.724 8.236c.309 0 .734-.077 1.276-.232.541-.232.812-.464.812-.696 0-.232-.078-.348-.232-.348.077 0 0 .039-.232.116-.155.077-.232.193-.232.348l.116.116h-.464c-.774.155-1.16.348-1.16.58l.116.116zm23.664-30.16c0-.077.038-.155.116-.232.154-.077.464-.348.928-.812.154-.077.348-.232.58-.464l.232-.232c0-.077-.039-.116-.116-.116.077 0-.232.193-.928.58-.619.31-.928.696-.928 1.16 0 .077.038.116.116.116zm-4.292.696c.154 0 .425-.155.812-.464.386-.31.58-.541.58-.696 0-.077-.039-.116-.116-.116-.387 0-.774.232-1.16.696-.31.464-.426.657-.348.58h.232zm16.008-7.308c.077 0 .309-.116.696-.348.464-.31.773-.619.928-.928V34.4c-.078 0-.387.193-.928.58-.542.387-.812.657-.812.812h.116zm-14.616 9.512c.077 0 .193-.077.348-.232.928-.85 1.392-1.353 1.392-1.508h-.116c-.31.31-.735.657-1.276 1.044-.464.387-.619.58-.464.58 0 .077.038.116.116.116zm-1.856 22.504c.154 0 .464-.116.928-.348.541-.232.734-.387.58-.464 0 .077-.116.116-.348.116a22.47 22.47 0 00-1.044.232c-.232.077-.348.155-.348.232 0 .155.077.232.232.232zm1.856-3.596c.309 0 .541-.077.696-.232 0-.155-.232-.232-.696-.232-.542 0-.812.077-.812.232.077.077.154.116.232.116.077.077.27.116.58.116zm5.8-26.912c.232-.232.386-.348.464-.348.232-.077.348-.232.348-.464 0-.155-.039-.232-.116-.232-.155 0-.387.193-.696.58-.232.387-.348.657-.348.812l.348-.348zm-10.672 27.376c.85 0 1.276-.155 1.276-.464-.078 0-.348.039-.812.116-.464.077-.696.155-.696.232l.232.116zm-13.108 6.844c.154 0 .386-.039.696-.116.309-.155.425-.31.348-.464h-.116c-.155 0-.387.039-.696.116-.232.077-.348.193-.348.348l.116.116zm13.224-4.872c0-.077.038-.116.116-.116.154 0 .309-.039.464-.116.309-.077.464-.193.464-.348h-.348c-.078 0-.232.039-.464.116-.232.077-.348.193-.348.348l.116.116zm15.776-33.524c.309-.155.502-.232.58-.232 0-.232-.039-.348-.116-.348-.155 0-.31.077-.464.232l-.464.464.464-.116zm-13.804 14.732c.077 0 .232-.116.464-.348.077-.077.116-.193.116-.348l-.116-.116c-.155 0-.31.116-.464.348-.078.232-.116.387-.116.464h.116zm4.176 19.72h.58c.232-.077.348-.193.348-.348 0-.077-.039-.116-.116-.116-.155 0-.31.039-.464.116-.31.155-.464.27-.464.348h.116zm2.088-.348c.232 0 .348-.077.348-.232h-.116c0-.077-.039-.116-.116-.116-.078 0-.155.039-.232.116h-.116l-.116.116c0 .077.116.116.348.116zm7.076 3.132h.116c.077-.077.154-.116.232-.116 0-.155-.078-.232-.232-.232-.232 0-.348.077-.348.232l.232.116zm-28.652-12.992v-.116c.077 0 .116-.039.116-.116l.116-.116-.232-.232-.232 1.044.232-.464zm15.66 10.672l.116-.116c-.155-.155-.31-.232-.464-.232h-.116c0 .232.154.348.464.348zm-6.264-1.972c.154 0 .232-.077.232-.232l-.116-.116-.116.116h-.232l-.116.116c.077.077.193.116.348.116zm19.952-64.496c.232 0 .348-.077.348-.232v-.232l-.58.464h.232zm-4.292 1.74c.154 0 .27-.039.348-.116.077-.077.116-.155.116-.232-.31 0-.464.116-.464.348zm4.176 67.164v-.116c.077 0 .116-.039.116-.116-.232 0-.348.039-.348.116 0 .077.077.116.232.116zm-2.9-67.744v-.116l-.116-.116v.348l.116-.116zm-6.496 40.6c.077-.077.116-.155.116-.232h-.116c.154 0 .154.077 0 .232zm-28.652 33.292c-.31 0-.464-.077-.464-.232-.078-.077-.194-.116-.348-.116l-.116.116c-.078 0-.194-.425-.348-1.276-.232-.773-.348-1.856-.348-3.248 0-.155.116-.541.348-1.16.232-.696.696-1.044 1.392-1.044 0-.155.154-.232.464-.232.232 0 .348-.077.348-.232v-.116c0-.077.541-.27 1.624-.58.464-.155.773-.387.928-.696.154-.387.27-.735.348-1.044l.232-1.16c.077-.387.27-.735.58-1.044.077-.077.116-.193.116-.348v-.232c0-.155.038-.232.116-.232l.116.116c0 .077.038.116.116.116 0-.077.038-.155.116-.232v-.116c.077-.077.116-.155.116-.232 0-.077-.039-.116-.116-.116v-.116c0-.155.038-.232.116-.232.154-.077.309-.348.464-.812.309-1.16.502-1.817.58-1.972.154-.232.232-.425.232-.58v-.116c0-.077.154-.425.464-1.044.154-.232.309-.503.464-.812.077 0 .116.039.116.116h.232c.077 0 .27-.155.58-.464l.232-.464c0-.155.077-.425.232-.812.232-.464.541-.696.928-.696.154 0 .27-.077.348-.232.077-.155.193-.232.348-.232h.116c-.078.155-.155.27-.232.348l-.232.464c0 .077.038.116.116.116.154 0 .348-.155.58-.464.309-.31.657-.464 1.044-.464.077 0 .116.039.116.116h.232l.116.116h-.232c-.155 0-.232.155-.232.464v.116c.154 0 .425-.232.812-.696.386-.464.657-.696.812-.696.386 0 .58-.193.58-.58 0-.077-.039-.116-.116-.116h.116l.232-.116c.154 0 .232.077.232.232 0 .077-.039.155-.116.232-.078 0-.116.077-.116.232 0 .077.038.116.116.116.077 0 .27-.155.58-.464.386-.387.541-.58.464-.58 0-.31.154-.58.464-.812.386-.31.773-.58 1.16-.812.386-.232.734-.425 1.044-.58.386-.232.58-.425.58-.58 0-.077.154-.27.464-.58l.928-.928 1.044-1.044c.309-.387.464-.619.464-.696v-.232h.116c.077 0 .27-.077.58-.232l.928-.696c.386-.31.734-.619 1.044-.928.309-.31.464-.619.464-.928.077-.077.154-.193.232-.348.077-.155.154-.232.232-.232.077-.077.116-.155.116-.232 0-.077-.039-.116-.116-.116-.155 0-.387.077-.696.232-.232.155-.387.232-.464.232h-.116l.232-.348c.232-.31.464-.58.696-.812.232-.31.464-.58.696-.812.232-.31.464-.464.696-.464.077 0 .116.039.116.116.077.077.154.116.232.116.386 0 .58-.116.58-.348v-.116c0 .077.116 0 .348-.232l.812-.812a6.633 6.633 0 011.044-1.044c.386-.387.734-.657 1.044-.812.154 0 .386-.31.696-.928.309-.696.696-1.121 1.16-1.276l.348-.232c.232-.155.502-.31.812-.464.309-.232.58-.425.812-.58.309-.232.464-.387.464-.464 0-.232-.039-.348-.116-.348-.155 0-.426.155-.812.464-.387.232-.619.348-.696.348-.078 0-.116-.039-.116-.116 0-.155.116-.425.348-.812.309-.387 1.198-1.237 2.668-2.552.696-.696 1.044-1.121 1.044-1.276h-.464c0-.077.038-.116.116-.116l.232-.116c-.155.077-.194.116-.116.116.154 0 .348-.077.58-.232l-.116.116c0 .155.038.232.116.232l.116-.232-.116-.116c.386-.155.889-.425 1.508-.812.696-.387 1.044-.85 1.044-1.392 0-.077.116-.232.348-.464l.696-.696c.309-.232.58-.425.812-.58.232-.232.348-.387.348-.464h-.348c-.232 0-.619.27-1.16.812-.542.541-.89.812-1.044.812h-.232c.077 0 .27-.193.58-.58.386-.464.58-.812.58-1.044-.31.155-.619.232-.928.232-.155 0-.232-.039-.232-.116 0-.077.116-.116.348-.116h.348c.077 0 .116-.039.116-.116v-.464c0-.155.077-.232.232-.232v.232c.077 0 .27-.155.58-.464l.812-.812c.077-.077.154-.116.232-.116 0-.077-.039-.116-.116-.116h-.58c0-.155.116-.193.348-.116.232 0 .348-.077.348-.232 0-.155.077-.27.232-.348.154-.077.232-.193.232-.348h-.116c-.078 0-.116-.039-.116-.116.232-.155.618-.464 1.16-.928.618-.541 1.044-1.121 1.276-1.74.232-.541.58-1.121 1.044-1.74a16.14 16.14 0 011.508-1.74 93.314 93.314 0 001.392-1.624c.386-.464.58-.89.58-1.276v-.116c.541-1.47.85-2.32.928-2.552a4.33 4.33 0 00.116-1.044c0-1.315-.271-2.165-.812-2.552-.464-.464-.774-.735-.928-.812-.619-.541-1.276-.928-1.972-1.16-.619-.232-1.006-.348-1.16-.348-.155 0-.31.039-.464.116-.155.077-.271.116-.348.116V4.24c0-.077-.116-.116-.348-.116h-.232c0 .155-.078.232-.232.232h-.696c-.232-.077-.503-.077-.812 0-.232 0-.464.116-.696.348-.155 0-.232-.077-.232-.232a1.374 1.374 0 01-.348.232c-.31.155-.503.232-.58.232-.078 0-.116-.039-.116-.116 0-.077.038-.155.116-.232.077-.155.116-.27.116-.348l-.464.232-.464.232h-.116c-.078 0-.116.039-.116.116h-.348c-.078 0-.116-.039-.116-.116 0-.077-.039-.116-.116-.116l-.232.232a.787.787 0 01-.58.232l-.464.464c-.078.155-.155.232-.232.232-.155 0-.194-.077-.116-.232.077-.155.038-.232-.116-.232-.155 0-.232.077-.232.232.077.155.038.232-.116.232-.078 0-.116-.039-.116-.116l-.116-.116c-.155 0-.232.077-.232.232 0 .155-.078.232-.232.232-.155 0-.232-.039-.232-.116 0-.077-.039-.116-.116-.116.154 0-.271.348-1.276 1.044-.928.696-2.05 1.47-3.364 2.32-.851.464-1.547.967-2.088 1.508a22.504 22.504 0 00-1.392 1.508c-.31.464-.619.89-.928 1.276-.232.31-.464.464-.696.464-.696 0-1.083-.039-1.16-.116-.078-.077-.116-.155-.116-.232 0-.232.154-.696.464-1.392.386-.696.812-1.43 1.276-2.204a129.09 129.09 0 011.508-2.32c.541-.696.966-1.16 1.276-1.392l1.856-1.392c.618-.464 1.044-.812 1.276-1.044a3.88 3.88 0 00.58-.464 7.174 7.174 0 001.276-.812c.386-.155.696-.31.928-.464.232-.232.386-.348.464-.348l.116.116c-.078.077-.116.155-.116.232-.078.077-.116.155-.116.232 0 .232.077.348.232.348.154 0 .309-.039.464-.116.154-.155.232-.27.232-.348l-.232-.232.232-.116.232-.116a8.98 8.98 0 011.16-.464 8.7 8.7 0 011.508-.58c.541-.232 1.005-.348 1.392-.348h.232c0 .077.27.155.812.232.541 0 1.16.039 1.856.116.696 0 1.392.039 2.088.116.696.077 1.198.193 1.508.348l.696.58c.464.31.966.696 1.508 1.16.618.387 1.198.773 1.74 1.16l.812.464v-.116c.077 0 .193.116.348.348.077 0 .464.31 1.16.928.696.619 1.237 1.547 1.624 2.784 0 .155-.078.348-.232.58a1.888 1.888 0 00-.116.58c0 .077.038.116.116.116l.116.116.116-.116c0-.077.038-.155.116-.232.077 0 .116.077.116.232v.116c0 .155.038.232.116.232.077 0 .116.039.116.116 0 .155-.078.27-.232.348-.078.077-.116.193-.116.348 0 .155.038.27.116.348.154.077.232.193.232.348 0 .155-.039.31-.116.464-.078.077-.116.155-.116.232 0 .077.038.155.116.232.077 0 .116.155.116.464 0 .387-.078.696-.232.928-.078.155-.116.27-.116.348 0 .232.077.348.232.348l.116-.116c.077-.077.154-.116.232-.116.232 0 .348.116.348.348 0 .232-.155.619-.464 1.16-.232.541-.542 1.16-.928 1.856l-.116.116c-.155.155-.348.425-.58.812-.232.31-.464.657-.696 1.044-.155.31-.232.58-.232.812v.116c.077 0 .154-.039.232-.116h.116c.077.155-.464.812-1.624 1.972a48.824 48.824 0 01-1.508 1.624c-.232.232-.348.387-.348.464h.232c.077 0 .348-.232.812-.696.541-.464.85-.696.928-.696.077 0-.078.193-.464.58-.31.387-.426.58-.348.58 0 .155-.426.387-1.276.696-.774.232-1.16.696-1.16 1.392v.116c.077 0 .116.039.116.116v.232c.618 0 .928-.155.928-.464.077-.31.27-.464.58-.464l.116.116c0 .077-.232.387-.696.928a33.424 33.424 0 00-1.508 1.624l-1.508 1.508c-.464.464-.735.696-.812.696.154 0 0 .232-.464.696-.464.464-.696.773-.696.928.154 0 .425-.116.812-.348.464-.31.696-.503.696-.58 0-.077.038-.116.116-.116 0 .077.038.116.116.116v.116c.077 0 .116.039.116.116 0 .155-.039.232-.116.232-.078 0-.116.039-.116.116h-.116c-.155 0-.232.039-.232.116l.116.116c-.078.077-.464.425-1.16 1.044a19.857 19.857 0 00-1.856 1.624c-.155.077-.348.31-.58.696a6.11 6.11 0 01-.696 1.044l-.928.928a1.7 1.7 0 01-1.044.348c-.155 0-.194.077-.116.232.077.077.038.116-.116.116l-.116-.116c-.387.232-.851.541-1.392.928-.542.387-.851.58-.928.58-.078-.077.116-.387.58-.928.541-.541.889-.812 1.044-.812l.232-.116c.154 0 .58-.155 1.276-.464.696-.387 1.044-.812 1.044-1.276 0-.077-.078-.116-.232-.116l-1.624.696c-1.006.541-1.508.967-1.508 1.276.464 0 .077.232-1.16.696-1.16.464-2.514 1.47-4.06 3.016 0 .077-.194.348-.58.812-.31.387-.696.812-1.16 1.276-.464.464-.967.89-1.508 1.276-.464.387-.812.58-1.044.58l.348-.348c.232-.31.502-.619.812-.928.386-.31.734-.58 1.044-.812l.58-.58c.077 0 .116-.039.116-.116h-.232c-.078 0-.116-.039-.116-.116l.116-.232c0-.077.038-.116.116-.116h-.116c-.078.077-.387.31-.928.696-.542.387-1.122.928-1.74 1.624a75.198 75.198 0 01-1.392 1.508l-.348.348c-.078 0-.116-.077-.116-.232v-.116c-.31 0-.464.193-.464.58 0-.077-.194 0-.58.232-.31.232-.735.541-1.276.928a10.51 10.51 0 00-1.624 1.16c-.542.464-1.044.928-1.508 1.392-1.779 1.779-3.132 3.21-4.06 4.292-.851 1.005-1.547 1.779-2.088 2.32l-.464.58c-.31.31-.658.696-1.044 1.16-.387.464-.774.89-1.16 1.276-.31.387-.503.58-.58.58 0-.077.116-.232.348-.464.232-.31.348-.503.348-.58v-.116c0-.077.27-.541.812-1.392.928-1.16 1.392-1.817 1.392-1.972v-.116c0-.155.193-.31.58-.464.386-.155.58-.31.58-.464v-.116c-.078 0-.194.077-.348.232l-.696.348c-.31 0-.774.619-1.392 1.856-.542 1.237-1.702 2.668-3.48 4.292 0 .387-.232.85-.696 1.392l-1.624 1.624a28.644 28.644 0 00-1.508 1.624c-.464.541-.696 1.044-.696 1.508h.116c.386 0 .618-.077.696-.232.077-.232.154-.31.232-.232 0 .077.038.116.116.116.154 0 .232-.039.232-.116 0-.077.077-.116.232-.116l.116.116c.154 0 .309-.039.464-.116.232-.155.386-.232.464-.232.85-.232 1.392-.387 1.624-.464.309-.155.889-.31 1.74-.464.773-.077 1.198-.077 1.276 0 .154.077.541.039 1.16-.116h.116l.58-.348c.541-.077 1.353-.348 2.436-.812l1.972-.116c-.155.077-.31.116-.464.116l-.464.232c0 .077.116.116.348.116.154-.155.502-.232 1.044-.232.618 0 .928-.077.928-.232 0-.077-.194-.116-.58-.116h-.696l.696-.116c.541-.155 1.121-.27 1.74-.348.696-.155 1.276-.232 1.74-.232.154 0 .232.077.232.232l-.116.116v.116c.154 0 .27-.116.348-.348.077-.232.309-.348.696-.348.154 0 .232.039.232.116h.116c.077 0 .116-.039.116-.116 0-.155.077-.232.232-.232 0 .077.077.116.232.116.232 0 .502-.039.812-.116a5.896 5.896 0 011.16-.116c.386 0 .696.077.928.232.232.077.502.116.812.116.618 0 .966-.077 1.044-.232.077-.155.154-.232.232-.232.077 0 .116.077.116.232 0 .155.116.232.348.232a.787.787 0 00.58-.232c.154-.155.27-.232.348-.232l.116.232c0 .155-.155.27-.464.348-.31 0-.542.039-.696.116 0 .155.077.232.232.232.232 0 .464-.077.696-.232.232-.155.386-.232.464-.232.077 0 .116.039.116.116 0 .077.038.116.116.116.077 0 .309-.155.696-.464.464-.31.928-.464 1.392-.464.154 0 .232.039.232.116h.232l.116-.116c.154 0 .232.039.232.116 0 .387.348.619 1.044.696.696.077 1.044.27 1.044.58 0 .077-.039.116-.116.116v.116l.116.116h.232c.077-.077.154-.116.232-.116.541 0 .812.193.812.58v.348c.154 0 .193-.077.116-.232 0-.232.077-.348.232-.348.232 0 .425.155.58.464.154.232.232.425.232.58 0 .077-.039.116-.116.116-.155 0-.271-.077-.348-.232-.078-.232-.271-.348-.58-.348 0 .155.116.387.348.696.309.232.502.348.58.348.077-.077.116-.155.116-.232 0-.155.038-.232.116-.232.386 0 .58.348.58 1.044 0 .619.077 1.121.232 1.508 0 .232-.078.348-.232.348-.155 0-.232.077-.232.232 0 .077.038.155.116.232.077 0 .116.039.116.116 0 .077-.039.077-.116 0-.078-.077-.116-.039-.116.116v.116c0 .155-.232.27-.696.348-.464.077-.696.193-.696.348 0 .077.038.155.116.232.077 0 .116.039.116.116-.851 0-1.392-.116-1.624-.348-.232-.232-.348-.387-.348-.464 0-.31-.116-.464-.348-.464-.155 0-.348.039-.58.116a2.573 2.573 0 01-.812.116c-.232 0-.426-.193-.58-.58h-.116l.116-.116c0-.077-.039-.116-.116-.116-.155 0-.271.039-.348.116-.078.077-.155.116-.232.116.077 0 0-.077-.232-.232-.155-.155-.426-.232-.812-.232-.619 0-.928.077-.928.232-.078-.077-.116-.27-.116-.58-.078 0-.271.077-.58.232-.31.077-.503.116-.58.116-.078-.077-.271-.116-.58-.116h-.58c-.155 0-.31.077-.464.232-.31 0-.426-.077-.348-.232.077-.155.038-.232-.116-.232-.078 0-.31.116-.696.348-.31.155-.542.232-.696.232-.232 0-.387-.077-.464-.232-.078-.155-.31-.232-.696-.232.154 0 0 .039-.464.116-.464.077-.735.155-.812.232-.155 0-.271-.039-.348-.116-.078-.077-.155-.116-.232-.116-.078 0-.31.077-.696.232-.31.077-.696.116-1.16.116l-.928.116v-.464c0-.232-.116-.348-.348-.348-.078 0-.155.039-.232.116h-.116l-.116-.116.464-.232.464-.232c0-.077-.039-.116-.116-.116-.155 0-.31.039-.464.116h-.696c-.619 0-1.122.193-1.508.58-.387.31-.774.464-1.16.464h-.232c-.155 0-.232.155-.232.464h.464c.309-.155.502-.27.58-.348.077-.077.27-.116.58-.116.696 0 .966-.116.812-.348-.155-.232-.116-.348.116-.348.154 0 .232.077.232.232v.116c0 .077.038.116.116.116.077 0 .116-.039.116-.116.077-.077.193-.116.348-.116.541 0 .812.155.812.464l-2.32.464c-.619.155-1.238.27-1.856.348-.542.077-.928.116-1.16.116-.078 0-.116-.039-.116-.116l.116-.116c.077 0 .154-.039.232-.116v-.116l-.116.116h-.232c-.232 0-.348-.039-.348-.116V69.2c-.078 0-.426.116-1.044.348-.619.232-.928.387-.928.464v.232c-.155-.077-.426.039-.812.348-.31.31-.619.503-.928.58l-1.044.348-.232.116h-.116c0-.077-.039-.116-.116-.116.077 0 0 .077-.232.232a2.19 2.19 0 01-.696.116h-.348a6.335 6.335 0 00-.812.348c-.31.155-.464.31-.464.464 0 .077-.039.116-.116.116-.078 0-.116-.077-.116-.232-.155.077-.464.155-.928.232-.464.077-.696.27-.696.58v.232c0 .232-.078.348-.232.348-.155 0-.271-.039-.348-.116-.232 0-.387.077-.464.232 0 .077-.078.116-.232.116-.155 0-.232-.077-.232-.232 0-.077.116-.193.348-.348.077-.077.193-.116.348-.116 0-.077-.039-.116-.116-.116-.078 0-.271.116-.58.348-.31.155-.464.387-.464.696v.116c.077 0-.116.116-.58.348-.387.232-.58.31-.58.232.077-.077-.194.155-.812.696-.619.541-1.315.812-2.088.812zM190.07 12.36l.348-.348c.155-.155.309-.27.464-.348l.58-.58.116-.116a1.82 1.82 0 00.348-.464c.155-.155.309-.348.464-.58 0-.077-.077-.116-.232-.116-.232 0-.503.232-.812.696-.232.464-.541.89-.928 1.276-.309.31-.464.503-.464.58h.116zm-19.952 57.188l.116-.116c-.232-.232-.58-.541-1.044-.928-.387-.464-.657-.696-.812-.696v.116c0 .077.116.232.348.464.309.232.58.464.812.696l.232.232c.077 0 .155.039.232.116l.116.116zm1.276-15.892c.155 0 .232-.116.232-.348 0-.077-.039-.232-.116-.464 0-.232-.039-.348-.116-.348-.077 0-.116.077-.116.232v.58c0 .077-.039.116-.116.116v.116l-.116.116h.348zm16.588-45.124c.155 0 .348-.155.58-.464.309-.31.503-.541.58-.696.077-.077.116-.155.116-.232-.155.077-.425.31-.812.696-.309.387-.464.619-.464.696zm-3.48 3.016c.155-.619.541-1.083 1.16-1.392a4.629 4.629 0 01-.58.696 4.629 4.629 0 01-.58.696zm-16.82 58.232c.077 0 .116-.039.116-.116a1.338 1.338 0 01-.348-.232h-.116c0-.077-.039-.116-.116-.116-.077 0-.116-.039-.116-.116v.116c-.077.155-.039.27.116.348.232.077.387.116.464.116zm6.728-27.956c.232 0 .348-.116.348-.348 0-.077-.039-.155-.116-.232-.232.155-.348.348-.348.58h.116zm.58-.696c0 .077.077.039.232-.116.232-.232.348-.387.348-.464-.309 0-.464.155-.464.464l-.116.116zm14.848-28.42c-.077 0-.077 0 0 0 .155 0 .232-.077.232-.232h-.232l-.116.116.116.116zm-.232-5.684l-.116-.116-.116.116h.232zm-17.632 64.96c-.851-.155-1.237-.232-1.16-.232h-.232c-.232 0-.619-.116-1.16-.348a30.929 30.929 0 01-1.508-.812 25.694 25.694 0 01-1.508-1.16c-.387-.387-.58-.773-.58-1.16v-.232c.077 0 .155.116.232.348.155.155.271.232.348.232h.116c.155 0 .232.077.232.232v.116c.077 0 .116-.116.116-.348 0 .077-.155-.116-.464-.58a41.624 41.624 0 01-1.044-1.972 46.428 46.428 0 01-.928-2.552 11.44 11.44 0 01-.348-2.784c0-.155.077-.31.232-.464l.232-.232.116.116c0 .077.039.155.116.232 0 .077-.039.155-.116.232-.077 0-.116.077-.116.232 0 .541.116.85.348.928l.116.232v-.232l-.232-.464c0-.155.077-.232.232-.232.155-.077.232-.31.232-.696v-.696c0-.464.039-.735.116-.812 0-.155-.116-.232-.348-.232h-.232c0-.155.116-.464.348-.928.232-.541.348-1.005.348-1.392v-2.088c.077-.619.155-1.005.232-1.16l.116-.116-.116-.232c0-.077.039-.27.116-.58.155-.387.309-.58.464-.58-.077-.077-.116-.193-.116-.348a1.034 1.034 0 01-.116-.464c0-.077.116-.193.348-.348.232-.155.348-.425.348-.812v-.116c0 .155.039 0 .116-.464.077-.541.116-1.005.116-1.392l-.116-.116.232.116.116.348.116-.348c.155-.232.348-.657.58-1.276a6.92 6.92 0 00.348-2.204c0-.155-.077-.193-.232-.116-.077 0-.116-.077-.116-.232 0-.232.155-.425.464-.58.155-.077.387-.503.696-1.276.387-.773.773-1.624 1.16-2.552.387-.928.696-1.779.928-2.552.309-.773.464-1.237.464-1.392h-.232c-.155 0-.232-.039-.232-.116.077 0 .271-.155.58-.464.387-.387.58-.773.58-1.16l-.116-.116c-.232 0-.348.077-.348.232 0 .077-.039.116-.116.116-.077 0-.116-.039-.116-.116 0-.155.155-.425.464-.812.387-.464.696-.773.928-.928.387-.155.541-.387.464-.696 0-.387.077-.657.232-.812.155 0 .309-.155.464-.464.155-.387.309-.812.464-1.276a9 9 0 01.464-1.16c.155-.387.348-.58.58-.58.077 0 .232-.232.464-.696a9.38 9.38 0 00.812-1.508l.812-1.624c.309-.541.503-.812.58-.812.077 0 .116.039.116.116 0 .155-.116.425-.348.812-.232.31-.348.503-.348.58 0 .077-.193.348-.58.812-.387.464-.58.85-.58 1.16h.116c.155 0 .232-.039.232-.116 0-.155.077-.232.232-.232v.116c0 .387-.193.89-.58 1.508a81.089 81.089 0 01-1.276 1.972 44.505 44.505 0 01-1.16 1.972c-.387.619-.58 1.121-.58 1.508l-.232.464-.116.116h.116c0 .155-.155.464-.464.928-.232.464-.348.773-.348.928 0 .077.039.116.116.116.155-.155.116.039-.116.58l-.928 1.856a82.175 82.175 0 00-.928 2.436c-.309.85-.464 1.547-.464 2.088h.232v.116c0 .232-.077.348-.232.348h-.116c-.155 0-.232.155-.232.464 0 .077.039.116.116.116l.116-.116.232-.232c0 .077-.039.193-.116.348-.077.155-.155.232-.232.232v-.116c0-.155-.077-.077-.232.232-.155.31-.232.541-.232.696.155 0 .232-.116.232-.348.077-.31.155-.425.232-.348v.116c0 .541-.116.812-.348.812h-.116l.116.232c-.309.387-.58.812-.812 1.276-.541.928-.812 2.165-.812 3.712 0 .232.039.348.116.348.155-.232.193-.387.116-.464 0-.077.077-.116.232-.116v.116c0 .077-.077.27-.232.58-.077.31-.155.464-.232.464-.077 0-.155.193-.232.58-.077.31-.116.541-.116.696 0 .155.039.193.116.116.077-.077.116-.039.116.116 0 .232-.116.619-.348 1.16-.232.541-.348.89-.348 1.044v.116c0 .155-.039.27-.116.348-.077.077-.116.155-.116.232h.116c.155 0 .232-.077.232-.232 0-.232.077-.348.232-.348 0 .31.039.425.116.348.077-.077.116.039.116.348-.077.077-.116.155-.116.232 0 .077-.039.193-.116.348a1.296 1.296 0 00-.116.58v.232c.077 0 .116.039.116.116 0 .232-.077.541-.232.928-.077.31-.116.541-.116.696v.116c.077 0 .116.039.116.116l-.116.116c-.077 0-.116.039-.116.116l.116.116v1.16c0 .464-.039.773-.116.928v.348c.077-.077.116-.077.116 0s-.039.116-.116.116v.116c0 .31.077.735.232 1.276.155.464.309.696.464.696V63.4c0-.077-.039-.155-.116-.232v-.232c0-.31.077-.464.232-.464.155-.077.232-.31.232-.696 0-.619-.039-.928-.116-.928v-.232c0-.155.039-.232.116-.232.077-.077.116-.193.116-.348 0-.155-.039-.31-.116-.464a1.918 1.918 0 01-.116-.58c0-.464.039-.812.116-1.044.155-.31.232-.696.232-1.16l-.116-.116c0 .077.077-.155.232-.696a5.5 5.5 0 00.232-1.508l.928-5.104c0 .155.155-.425.464-1.74.309-1.392.696-2.939 1.16-4.64a80.23 80.23 0 011.508-5.104c.541-1.624 1.005-2.63 1.392-3.016l.116-.232c0-.077.039-.116.116-.116l-.116-.116c0 .077.232-.425.696-1.508a83.952 83.952 0 001.508-3.364c.387-.928.735-1.392 1.044-1.392 0 .155.039-.116.116-.812.155-.773.425-1.237.812-1.392.387-1.547.928-2.668 1.624-3.364.773-.773 1.16-1.353 1.16-1.74 0-.077-.039-.116-.116-.116v-.116c0-.232.271-.387.812-.464.619-.155.928-.735.928-1.74l-.116-.116c.077.077.155-.039.232-.348.155-.387.348-.58.58-.58l.232.116c-.077-.077-.155-.27-.232-.58 0-.31.193-.735.58-1.276.387-.541 1.276-1.276 2.668-2.204.155 0 .232-.077.232-.232.077-.232.193-.348.348-.348 0-.155.155-.387.464-.696.387-.387.58-.657.58-.812h-.116c-.232 0-.503.155-.812.464-.232.232-.348.31-.348.232v.116h-.116c-.232 0-.348.116-.348.348.077.155.039.232-.116.232-.077 0-.155-.039-.232-.116 0-.155-.039-.232-.116-.232-.155 0-.387.155-.696.464-.232.232-.348.425-.348.58 0 .077-.193.193-.58.348-.387.155-.619.425-.696.812-.077.155-.193.425-.348.812l-.58 1.16a3.917 3.917 0 01-.928 1.044c-.309.31-.696.464-1.16.464 0-.077.116-.31.348-.696.309-.387.619-.812.928-1.276.309-.464.58-.89.812-1.276l.464-.58h-.116c0-.155.077-.193.232-.116.232.077.619-.425 1.16-1.508l.232-.232-.348.116c-.155.077-.387.116-.696.116h-.232c0-.077.039-.155.116-.232l.696-.812v.696c0 .077.039.116.116.116l.232-.348.116.116v.116l.464-.464.928-.928c0-.077-.039-.077-.116 0-.077 0-.077-.039 0-.116l1.392-1.392c.232-.232.348-.425.348-.58h-.348c-.541.155-.812.425-.812.812v.116c.077 0 .116.039.116.116 0 .077-.155.116-.464.116-.232 0-.503.077-.812.232.309-.464.58-.696.812-.696 0 .077.039.116.116.116V9.46l-.116-.116c0-.155.039-.232.116-.232.077-.077.116-.193.116-.348 0-.155-.039-.232-.116-.232-.077 0-.116-.039-.116-.116 0-.077.077-.193.232-.348.155-.155.271-.232.348-.232.077 0 .116.116.116.348l.348-.348c.232-.155.387-.31.464-.464h-.348c0-.232.077-.348.232-.348h.116v.116c0 .077.039.116.116.116-.077 0 .039-.116.348-.348.309-.232.657-.503 1.044-.812.464-.31.889-.619 1.276-.928.387-.31.657-.503.812-.58.309-.155.503-.27.58-.348.077-.077.155-.116.232-.116 0-.155-.077-.232-.232-.232l-.232.232c-.077.077-.309.116-.696.116l.464-.232.928-.464c.387-.232.696-.425.928-.58l.464-.232a.787.787 0 00-.58.232c0-.077.077-.193.232-.348l.232-.232h-.116c.155-.232.387-.464.696-.696.155-.155.348-.27.58-.348a5.64 5.64 0 01.58-.348c.309-.155.464-.27.464-.348.077-.155.155-.232.232-.232.077 0 .193.077.348.232.155.077.309.116.464.116h.116c.077 0 .271.077.58.232l.696.232c.464.077.967.193 1.508.348a8.732 8.732 0 011.508.58c.464.155.696.348.696.58 0 .155-.077.27-.232.348-.077 0-.116.039-.116.116l.116.116c0-.077-.348.155-1.044.696a88.418 88.418 0 01-2.204 1.856 30.007 30.007 0 01-2.436 1.972c-.773.619-1.315 1.005-1.624 1.16.077-.232.039-.232-.116 0a14.47 14.47 0 01-.696.928l-.928 1.16c-.309.31-.58.464-.812.464h-.116c-.077 0-.155.039-.232.116-.077.077-.116.232-.116.464l-.464.928c-.309.619-.619.928-.928.928.155 0-.039.155-.58.464-.464.31-.696.657-.696 1.044.077.077 0 .232-.232.464a7.605 7.605 0 01-.812.696c-.309.232-.58.464-.812.696l-.348.348h.116c.155 0 .309-.039.464-.116.155-.155.309-.232.464-.232 0 .387-.425.812-1.276 1.276-.773.387-1.16.696-1.16.928 0 .155.039.232.116.232 0 .232-.116.425-.348.58-.696.387-1.083.696-1.16.928 0 .232-.155.348-.464.348h-.116c-.155 0-.232.116-.232.348 0 .077.039.155.116.232.077 0 .116.039.116.116 0 .155-.116.232-.348.232-.155 0-.232.039-.232.116l.116.116c0 .077-.077.155-.232.232-.155.077-.232.232-.232.464v.116c0 .077-.116.193-.348.348-.232.077-.348.31-.348.696 0 .155.039.232.116.232.077 0 .116-.039.116-.116.077-.077.155-.116.232-.116.077 0 .116.077.116.232 0 .31-.309.541-.928.696-.541.077-.812.31-.812.696 0 .077.039.116.116.116.155 0 .271-.077.348-.232.155-.155.309-.232.464-.232.077 0 .116.039.116.116h.116c0 .155-.116.27-.348.348-.309.155-.464.348-.464.58 0 .155-.077.232-.232.232v-.116c-.541 0-.812.155-.812.464 0 .077.039.116.116.116.232 0 .58-.116 1.044-.348.464-.31.812-.464 1.044-.464 0 .232-.232.464-.696.696-.387.155-1.005.657-1.856 1.508 0-.155-.077-.155-.232 0a5.551 5.551 0 01-.348.58 2.903 2.903 0 01-.348.696 3.513 3.513 0 01-.348.464c.155 0 .271-.039.348-.116a1.03 1.03 0 01.464-.116h.116c0 .077-.077.193-.232.348-.155.155-.232.27-.232.348v.116c0 .155-.077.387-.232.696a3.803 3.803 0 01-.464.58l-.232.348.348-.116c.155-.077.309-.193.464-.348.232-.155.425-.232.58-.232v.116l-.116.116.116.116c0 .077-.039.155-.116.232-.077 0-.116-.039-.116-.116a1.03 1.03 0 00-.464.116c-.155.077-.232.155-.232.232 0 .077-.039.193-.116.348l-.232.464-.348.696.464-.348h.232c.077-.077.155-.116.232-.116-.232.387-.503.58-.812.58h-.116c-.155.232-.503.657-1.044 1.276-.541.541-.812.967-.812 1.276 0 .155.039.193.116.116.077-.077.116-.039.116.116s-.077.27-.232.348c-.155.077-.232.193-.232.348 0 .155.039.232.116.232.077-.077.116-.039.116.116 0 .232-.193.425-.58.58-.309.155-.464.619-.464 1.392l.116.116.58-.58c.387-.31.619-.464.696-.464.077 0 .116.039.116.116 0 .387-.271.812-.812 1.276-.541.387-.812.812-.812 1.276 0 .077.077.116.232.116.155 0 .232-.077.232-.232 0-.232.077-.27.232-.116v.116c0 .232-.193.464-.58.696v-.116c0-.077-.039-.116-.116-.116-.077 0-.116.039-.116.116 0 .077-.039.155-.116.232-.387.155-.657.541-.812 1.16-.155.541-.425 1.276-.812 2.204 0 .155.039.232.116.232-.077 0 .116-.31.58-.928.541-.696.928-1.044 1.16-1.044-.077.077-.116.193-.116.348a1.296 1.296 0 00-.116.58v.116-.116c-.077 0-.155-.039-.232-.116-.077 0-.116.039-.116.116 0 .155.039.232.116.232.077 0 .116.039.116.116 0 .387-.348.696-1.044.928-.696.232-1.044.657-1.044 1.276 0 .155-.039.232-.116.232v.348c.077 0 .116.039.116.116-.077.077-.193.27-.348.58a3.43 3.43 0 00-.116.812v.116c0 .155-.077.27-.232.348-.155.077-.232.193-.232.348 0 .155.116.232.348.232h.232c.077-.077.155-.116.232-.116.077 0 .116.039.116.116 0 .155-.077.27-.232.348-.077.077-.116.193-.116.348 0 .077.077.116.232.116h.348c.155 0 .232.039.232.116l-.232.232c-.077.077-.116.155-.116.232l.116.116v.232c.077 0 .116.039.116.116 0 .85-.155 1.237-.464 1.16-.232-.077-.348.039-.348.348v.348c.077 0 .155-.039.232-.116l.232-.232.116.232c0 .387-.232.619-.696.696-.387.077-.58.232-.58.464s.077.348.232.348c.155 0 .232.116.232.348-.155.155-.348.31-.58.464-.155.155-.232.464-.232.928 0 .155.039.27.116.348 0 .077.039.116.116.116.077-.155.193-.31.348-.464.155-.155.232-.27.232-.348.077-.155.193-.232.348-.232h.116v.116c0 .077-.039.155-.116.232v.116c.077-.077.039 0-.116.232a5.148 5.148 0 00-.464.928l-.464.928c-.155.31-.232.503-.232.58v.348c.077 0 .232-.077.464-.232.309-.232.503-.348.58-.348a11.15 11.15 0 00-.232.812 2.199 2.199 0 00-.116.696v.464c0 .155.039.232.116.232.077 0 .116.077.116.232 0 .077-.039.193-.116.348v.348c0 1.083.193 2.204.58 3.364.464 1.16 1.353 1.817 2.668 1.972 1.16 0 2.436-.541 3.828-1.624a60.75 60.75 0 004.06-3.712c.619-.619 1.392-1.547 2.32-2.784a121.9 121.9 0 002.9-3.712 158.506 158.506 0 002.32-3.364c.696-.928 1.083-1.392 1.16-1.392.232-.464.387-.735.464-.812l.116-.116.116-.116.58-1.16.116.116c.077 0 .193-.155.348-.464.232-.31.541-.928.928-1.856.464-.928 1.083-2.32 1.856-4.176 0-.387.039-.619.116-.696.155-.155.232-.27.232-.348v-.116c0-.232.077-.348.232-.348l.464-.464c-.077.077-.193.077-.348 0-.077-.155-.077-.503 0-1.044.155-.619.657-1.74 1.508-3.364.773-1.547 1.353-3.287 1.74-5.22.387-2.01 1.121-4.137 2.204-6.38.155-.155.309-.58.464-1.276.155-.696.309-1.508.464-2.436l.696-2.784c.232-.928.503-1.74.812-2.436 0 .077.155-.387.464-1.392.387-1.083.58-2.745.58-4.988v-1.16c0-.464-.039-.89-.116-1.276 0-.31-.232-.541-.696-.696-.464-.232-.696-.425-.696-.58V6.56h-.232c-.232 0-.387-.039-.464-.116-.077-.155-.193-.232-.348-.232h-.116c-.077 0-.116-.077-.116-.232 0-.155.039-.31.116-.464 0-.155-.039-.193-.116-.116-.077 0-.116-.039-.116-.116 0-.077.155-.31.464-.696.387-.464 1.237-.696 2.552-.696.696 0 1.276.503 1.74 1.508.464.928.696 1.779.696 2.552-.077 0-.116.077-.116.232 0 .155.039.27.116.348v.928c0 .155-.039.425-.116.812a129.68 129.68 0 00-.348 1.856c-.309 1.315-.58 2.204-.812 2.668-.155.464-.232.89-.232 1.276v.232c0 .077-.039.27-.116.58-.077.31-.193.657-.348 1.044a22.47 22.47 0 01-.232 1.044l-.116.348v.116c0 .155-.116.503-.348 1.044l-.58 1.74a21.112 21.112 0 01-.58 2.088c-.155.619-.232 1.083-.232 1.392v.116c0-.155-.039-.039-.116.348 0 .387-.077.58-.232.58.077 0-.039.387-.348 1.16-.309.696-.464 1.199-.464 1.508 0 .31-.077.425-.232.348-.155-.077-.232-.039-.232.116v.116c.077-.077.116.077.116.464-.155.31-.232.425-.232.348v.116c-.155.232-.464 1.005-.928 2.32a759.84 759.84 0 01-1.508 4.756c0 .464-.077.735-.232.812-.077 0-.193.039-.348.116-.155.077-.309.27-.464.58-.077.232-.116.773-.116 1.624 0 .077.039.116.116.116 0 .155-.077.193-.232.116-.155-.077-.271.387-.348 1.392-.077 0-.116.039-.116.116 0 .077.039.155.116.232h-.116c-.155 0-.193.077-.116.232.077.077.039.116-.116.116v.232c.077 0 .116.039.116.116 0 .077-.077.116-.232.116-.077-.077-.116-.039-.116.116v.116c0 .155-.039.232-.116.232-.077 0-.116.039-.116.116v.116c0 .155-.077.464-.232.928-.077.387-.232.85-.464 1.392a5.813 5.813 0 01-.58 1.392c-.155.387-.348.58-.58.58-.077 0-.116-.077-.116-.232 0-.232-.039-.31-.116-.232l-.116.232c0 .155.039.232.116.232.077 0 .116.039.116.116 0 .077-.039.193-.116.348-.077.155-.155.232-.232.232 0-.155-.077-.232-.232-.232l-.116.232v.116c0 .232-.039.348-.116.348 0-.077-.039-.077-.116 0-.077 0-.193.116-.348.348-.077.232-.155.696-.232 1.392l-.116-.116c-.077 0-.116-.039-.116-.116l.116.464c.155 0 0 .155-.464.464-.464.232-.812.812-1.044 1.74v.116c0 .387-.077.58-.232.58v-.116l-.116-.116c-.077.077-.116.155-.116.232-.077.077-.116.155-.116.232h.116c0 .155-.077.31-.232.464-.077.155-.155.232-.232.232h-.116c-.232 0-.348.155-.348.464v.348c0 .077-.039.155-.116.232v.116c-.155 0-.541.348-1.16 1.044-.619.619-.928 1.237-.928 1.856v.116h-.232c.077.077-.155.31-.696.696-.464.387-.967 1.121-1.508 2.204 0-.077-.077 0-.232.232l-.348.696-.464.696c-.155.232-.271.348-.348.348-.077 0-.116-.039-.116-.116l-.116-.116-.116.116.116.116c0 .077-.271.348-.812.812-.464.464-.696.812-.696 1.044l-.696.696c-.155.387-.541.696-1.16.928-.541.155-.889.425-1.044.812l-.928.464c-.619.31-1.353.657-2.204 1.044-.851.31-1.74.619-2.668.928-.851.232-1.624.348-2.32.348zm64.401-59.624l.348-.348a1.8 1.8 0 01.464-.348l.58-.58.116-.116c.154-.155.27-.31.348-.464a3.88 3.88 0 00.464-.58c0-.077-.078-.116-.232-.116-.232 0-.503.232-.812.696a4.9 4.9 0 01-.928 1.276c-.31.31-.464.503-.464.58h.116zm-19.952 57.188l.116-.116c-.232-.232-.58-.541-1.044-.928-.387-.464-.658-.696-.812-.696v.116c0 .077.116.232.348.464.309.232.58.464.812.696l.232.232c.077 0 .154.039.232.116l.116.116zm1.276-15.892c.154 0 .232-.116.232-.348 0-.077-.039-.232-.116-.464 0-.232-.039-.348-.116-.348-.078 0-.116.077-.116.232v.58c0 .077-.039.116-.116.116v.116l-.116.116h.348zm16.588-45.124c.154 0 .348-.155.58-.464.309-.31.502-.541.58-.696.077-.077.116-.155.116-.232-.155.077-.426.31-.812.696-.31.387-.464.619-.464.696zm-3.48 3.016c.154-.619.541-1.083 1.16-1.392a4.629 4.629 0 01-.58.696 4.629 4.629 0 01-.58.696zm-16.82 58.232c.077 0 .116-.039.116-.116a1.338 1.338 0 01-.348-.232h-.116c0-.077-.039-.116-.116-.116-.078 0-.116-.039-.116-.116v.116c-.078.155-.039.27.116.348.232.077.386.116.464.116zm6.728-27.956c.232 0 .348-.116.348-.348 0-.077-.039-.155-.116-.232-.232.155-.348.348-.348.58h.116zm.58-.696c0 .077.077.039.232-.116.232-.232.348-.387.348-.464-.31 0-.464.155-.464.464l-.116.116zm14.848-28.42c-.078 0-.078 0 0 0 .154 0 .232-.077.232-.232h-.232l-.116.116.116.116zm-.232-5.684l-.116-.116-.116.116h.232zm-17.632 64.96c-.851-.155-1.238-.232-1.16-.232h-.232c-.232 0-.619-.116-1.16-.348a30.929 30.929 0 01-1.508-.812 25.364 25.364 0 01-1.508-1.16c-.387-.387-.58-.773-.58-1.16v-.232c.077 0 .154.116.232.348.154.155.27.232.348.232h.116c.154 0 .232.077.232.232v.116c.077 0 .116-.116.116-.348 0 .077-.155-.116-.464-.58a39.85 39.85 0 01-1.044-1.972 45.618 45.618 0 01-.928-2.552 11.44 11.44 0 01-.348-2.784c0-.155.077-.31.232-.464l.232-.232.116.116c0 .077.038.155.116.232 0 .077-.039.155-.116.232-.078 0-.116.077-.116.232 0 .541.116.85.348.928l.116.232v-.232l-.232-.464c0-.155.077-.232.232-.232.154-.077.232-.31.232-.696v-.696c0-.464.038-.735.116-.812 0-.155-.116-.232-.348-.232h-.232c0-.155.116-.464.348-.928.232-.541.348-1.005.348-1.392v-2.088c.077-.619.154-1.005.232-1.16l.116-.116-.116-.232c0-.077.038-.27.116-.58.154-.387.309-.58.464-.58-.078-.077-.116-.193-.116-.348a1.021 1.021 0 01-.116-.464c0-.077.116-.193.348-.348.232-.155.348-.425.348-.812v-.116c0 .155.038 0 .116-.464.077-.541.116-1.005.116-1.392l-.116-.116.232.116.116.348.116-.348c.154-.232.348-.657.58-1.276a6.92 6.92 0 00.348-2.204c0-.155-.078-.193-.232-.116-.078 0-.116-.077-.116-.232 0-.232.154-.425.464-.58.154-.077.386-.503.696-1.276a41.38 41.38 0 001.16-2.552c.386-.928.696-1.779.928-2.552.309-.773.464-1.237.464-1.392h-.232c-.155 0-.232-.039-.232-.116.077 0 .27-.155.58-.464.386-.387.58-.773.58-1.16l-.116-.116c-.232 0-.348.077-.348.232 0 .077-.039.116-.116.116-.078 0-.116-.039-.116-.116 0-.155.154-.425.464-.812.386-.464.696-.773.928-.928.386-.155.541-.387.464-.696 0-.387.077-.657.232-.812.154 0 .309-.155.464-.464.154-.387.309-.812.464-1.276.154-.464.309-.85.464-1.16.154-.387.348-.58.58-.58.077 0 .232-.232.464-.696a9.38 9.38 0 00.812-1.508l.812-1.624c.309-.541.502-.812.58-.812.077 0 .116.039.116.116 0 .155-.116.425-.348.812-.232.31-.348.503-.348.58 0 .077-.194.348-.58.812-.387.464-.58.85-.58 1.16h.116c.154 0 .232-.039.232-.116 0-.155.077-.232.232-.232v.116c0 .387-.194.89-.58 1.508a81.089 81.089 0 01-1.276 1.972 45.505 45.505 0 01-1.16 1.972c-.387.619-.58 1.121-.58 1.508l-.232.464-.116.116h.116c0 .155-.155.464-.464.928-.232.464-.348.773-.348.928 0 .077.038.116.116.116.154-.155.116.039-.116.58l-.928 1.856a79.48 79.48 0 00-.928 2.436c-.31.85-.464 1.547-.464 2.088h.232v.116c0 .232-.078.348-.232.348h-.116c-.155 0-.232.155-.232.464 0 .077.038.116.116.116l.116-.116.232-.232c0 .077-.039.193-.116.348-.078.155-.155.232-.232.232v-.116c0-.155-.078-.077-.232.232-.155.31-.232.541-.232.696.154 0 .232-.116.232-.348.077-.31.154-.425.232-.348v.116c0 .541-.116.812-.348.812h-.116l.116.232c-.31.387-.58.812-.812 1.276-.542.928-.812 2.165-.812 3.712 0 .232.038.348.116.348.154-.232.193-.387.116-.464 0-.077.077-.116.232-.116v.116c0 .077-.078.27-.232.58-.078.31-.155.464-.232.464-.078 0-.155.193-.232.58-.078.31-.116.541-.116.696 0 .155.038.193.116.116.077-.077.116-.039.116.116 0 .232-.116.619-.348 1.16-.232.541-.348.89-.348 1.044v.116c0 .155-.039.27-.116.348-.078.077-.116.155-.116.232h.116c.154 0 .232-.077.232-.232 0-.232.077-.348.232-.348 0 .31.038.425.116.348.077-.077.116.039.116.348-.078.077-.116.155-.116.232 0 .077-.039.193-.116.348a1.282 1.282 0 00-.116.58v.232c.077 0 .116.039.116.116 0 .232-.078.541-.232.928-.078.31-.116.541-.116.696v.116c.077 0 .116.039.116.116l-.116.116c-.078 0-.116.039-.116.116l.116.116v1.16c0 .464-.039.773-.116.928v.348c.077-.077.116-.077.116 0s-.039.116-.116.116v.116c0 .31.077.735.232 1.276.154.464.309.696.464.696V63.4c0-.077-.039-.155-.116-.232v-.232c0-.31.077-.464.232-.464.154-.077.232-.31.232-.696 0-.619-.039-.928-.116-.928v-.232c0-.155.038-.232.116-.232.077-.077.116-.193.116-.348 0-.155-.039-.31-.116-.464a1.888 1.888 0 01-.116-.58c0-.464.038-.812.116-1.044.154-.31.232-.696.232-1.16l-.116-.116c0 .077.077-.155.232-.696a5.538 5.538 0 00.232-1.508l.928-5.104c0 .155.154-.425.464-1.74.309-1.392.696-2.939 1.16-4.64.464-1.779.966-3.48 1.508-5.104.541-1.624 1.005-2.63 1.392-3.016l.116-.232c0-.077.038-.116.116-.116l-.116-.116c0 .077.232-.425.696-1.508a85.41 85.41 0 001.508-3.364c.386-.928.734-1.392 1.044-1.392 0 .155.038-.116.116-.812.154-.773.425-1.237.812-1.392.386-1.547.928-2.668 1.624-3.364.773-.773 1.16-1.353 1.16-1.74 0-.077-.039-.116-.116-.116v-.116c0-.232.27-.387.812-.464.618-.155.928-.735.928-1.74l-.116-.116c.077.077.154-.039.232-.348.154-.387.348-.58.58-.58l.232.116c-.078-.077-.155-.27-.232-.58 0-.31.193-.735.58-1.276.386-.541 1.276-1.276 2.668-2.204.154 0 .232-.077.232-.232.077-.232.193-.348.348-.348 0-.155.154-.387.464-.696.386-.387.58-.657.58-.812h-.116c-.232 0-.503.155-.812.464-.232.232-.348.31-.348.232v.116h-.116c-.232 0-.348.116-.348.348.077.155.038.232-.116.232-.078 0-.155-.039-.232-.116 0-.155-.039-.232-.116-.232-.155 0-.387.155-.696.464-.232.232-.348.425-.348.58 0 .077-.194.193-.58.348-.387.155-.619.425-.696.812a11.57 11.57 0 00-.348.812l-.58 1.16a3.935 3.935 0 01-.928 1.044c-.31.31-.696.464-1.16.464 0-.077.116-.31.348-.696.309-.387.618-.812.928-1.276.309-.464.58-.89.812-1.276l.464-.58h-.116c0-.155.077-.193.232-.116.232.077.618-.425 1.16-1.508l.232-.232-.348.116c-.155.077-.387.116-.696.116h-.232c0-.077.038-.155.116-.232l.696-.812v.696c0 .077.038.116.116.116l.232-.348.116.116v.116l.464-.464.928-.928c0-.077-.039-.077-.116 0-.078 0-.078-.039 0-.116l1.392-1.392c.232-.232.348-.425.348-.58h-.348c-.542.155-.812.425-.812.812v.116c.077 0 .116.039.116.116 0 .077-.155.116-.464.116-.232 0-.503.077-.812.232.309-.464.58-.696.812-.696 0 .077.038.116.116.116V9.46l-.116-.116c0-.155.038-.232.116-.232.077-.077.116-.193.116-.348 0-.155-.039-.232-.116-.232-.078 0-.116-.039-.116-.116 0-.077.077-.193.232-.348.154-.155.27-.232.348-.232.077 0 .116.116.116.348l.348-.348c.232-.155.386-.31.464-.464h-.348c0-.232.077-.348.232-.348h.116v.116c0 .077.038.116.116.116-.078 0 .038-.116.348-.348.309-.232.657-.503 1.044-.812.464-.31.889-.619 1.276-.928.386-.31.657-.503.812-.58.309-.155.502-.27.58-.348.077-.077.154-.116.232-.116 0-.155-.078-.232-.232-.232l-.232.232c-.078.077-.31.116-.696.116l.464-.232.928-.464c.386-.232.696-.425.928-.58l.464-.232a.786.786 0 00-.58.232c0-.077.077-.193.232-.348l.232-.232h-.116c.154-.232.386-.464.696-.696.154-.155.348-.27.58-.348a5.64 5.64 0 01.58-.348c.309-.155.464-.27.464-.348.077-.155.154-.232.232-.232.077 0 .193.077.348.232.154.077.309.116.464.116h.116c.077 0 .27.077.58.232l.696.232c.464.077.966.193 1.508.348a8.732 8.732 0 011.508.58c.464.155.696.348.696.58 0 .155-.078.27-.232.348-.078 0-.116.039-.116.116l.116.116c0-.077-.348.155-1.044.696a90.288 90.288 0 01-2.204 1.856 30.357 30.357 0 01-2.436 1.972c-.774.619-1.315 1.005-1.624 1.16.077-.232.038-.232-.116 0a14.47 14.47 0 01-.696.928l-.928 1.16c-.31.31-.58.464-.812.464h-.116c-.078 0-.155.039-.232.116-.078.077-.116.232-.116.464l-.464.928c-.31.619-.619.928-.928.928.154 0-.039.155-.58.464-.464.31-.696.657-.696 1.044.077.077 0 .232-.232.464a7.605 7.605 0 01-.812.696c-.31.232-.58.464-.812.696l-.348.348h.116c.154 0 .309-.039.464-.116.154-.155.309-.232.464-.232 0 .387-.426.812-1.276 1.276-.774.387-1.16.696-1.16.928 0 .155.038.232.116.232 0 .232-.116.425-.348.58-.696.387-1.083.696-1.16.928 0 .232-.155.348-.464.348h-.116c-.155 0-.232.116-.232.348 0 .077.038.155.116.232.077 0 .116.039.116.116 0 .155-.116.232-.348.232-.155 0-.232.039-.232.116l.116.116c0 .077-.078.155-.232.232-.155.077-.232.232-.232.464v.116c0 .077-.116.193-.348.348-.232.077-.348.31-.348.696 0 .155.038.232.116.232.077 0 .116-.039.116-.116.077-.077.154-.116.232-.116.077 0 .116.077.116.232 0 .31-.31.541-.928.696-.542.077-.812.31-.812.696 0 .077.038.116.116.116.154 0 .27-.077.348-.232.154-.155.309-.232.464-.232.077 0 .116.039.116.116h.116c0 .155-.116.27-.348.348-.31.155-.464.348-.464.58 0 .155-.078.232-.232.232v-.116c-.542 0-.812.155-.812.464 0 .077.038.116.116.116.232 0 .58-.116 1.044-.348.464-.31.812-.464 1.044-.464 0 .232-.232.464-.696.696-.387.155-1.006.657-1.856 1.508 0-.155-.078-.155-.232 0a5.927 5.927 0 01-.348.58 2.979 2.979 0 01-.348.696 3.513 3.513 0 01-.348.464c.154 0 .27-.039.348-.116a1.03 1.03 0 01.464-.116h.116c0 .077-.078.193-.232.348-.155.155-.232.27-.232.348v.116c0 .155-.078.387-.232.696a3.88 3.88 0 01-.464.58l-.232.348.348-.116a1.82 1.82 0 00.464-.348c.232-.155.425-.232.58-.232v.116l-.116.116.116.116c0 .077-.039.155-.116.232-.078 0-.116-.039-.116-.116-.155 0-.31.039-.464.116-.155.077-.232.155-.232.232 0 .077-.039.193-.116.348l-.232.464-.348.696.464-.348h.232c.077-.077.154-.116.232-.116-.232.387-.503.58-.812.58h-.116c-.155.232-.503.657-1.044 1.276-.542.541-.812.967-.812 1.276 0 .155.038.193.116.116.077-.077.116-.039.116.116s-.078.27-.232.348c-.155.077-.232.193-.232.348 0 .155.038.232.116.232.077-.077.116-.039.116.116 0 .232-.194.425-.58.58-.31.155-.464.619-.464 1.392l.116.116.58-.58c.386-.31.618-.464.696-.464.077 0 .116.039.116.116 0 .387-.271.812-.812 1.276-.542.387-.812.812-.812 1.276 0 .077.077.116.232.116.154 0 .232-.077.232-.232 0-.232.077-.27.232-.116v.116c0 .232-.194.464-.58.696v-.116c0-.077-.039-.116-.116-.116-.078 0-.116.039-.116.116 0 .077-.039.155-.116.232-.387.155-.658.541-.812 1.16-.155.541-.426 1.276-.812 2.204 0 .155.038.232.116.232-.078 0 .116-.31.58-.928.541-.696.928-1.044 1.16-1.044-.078.077-.116.193-.116.348a1.282 1.282 0 00-.116.58v.116-.116c-.078 0-.155-.039-.232-.116-.078 0-.116.039-.116.116 0 .155.038.232.116.232.077 0 .116.039.116.116 0 .387-.348.696-1.044.928-.696.232-1.044.657-1.044 1.276 0 .155-.039.232-.116.232v.348c.077 0 .116.039.116.116-.078.077-.194.27-.348.58-.078.31-.116.58-.116.812v.116c0 .155-.078.27-.232.348-.155.077-.232.193-.232.348 0 .155.116.232.348.232h.232c.077-.077.154-.116.232-.116.077 0 .116.039.116.116 0 .155-.078.27-.232.348-.078.077-.116.193-.116.348 0 .077.077.116.232.116h.348c.154 0 .232.039.232.116l-.232.232c-.078.077-.116.155-.116.232l.116.116v.232c.077 0 .116.039.116.116 0 .85-.155 1.237-.464 1.16-.232-.077-.348.039-.348.348v.348c.077 0 .154-.039.232-.116l.232-.232.116.232c0 .387-.232.619-.696.696-.387.077-.58.232-.58.464s.077.348.232.348c.154 0 .232.116.232.348-.155.155-.348.31-.58.464-.155.155-.232.464-.232.928 0 .155.038.27.116.348 0 .077.038.116.116.116.077-.155.193-.31.348-.464.154-.155.232-.27.232-.348.077-.155.193-.232.348-.232h.116v.116c0 .077-.039.155-.116.232v.116c.077-.077.038 0-.116.232-.155.232-.31.541-.464.928l-.464.928c-.155.31-.232.503-.232.58v.348c.077 0 .232-.077.464-.232.309-.232.502-.348.58-.348-.078.232-.155.503-.232.812a2.171 2.171 0 00-.116.696v.464c0 .155.038.232.116.232.077 0 .116.077.116.232 0 .077-.039.193-.116.348v.348c0 1.083.193 2.204.58 3.364.464 1.16 1.353 1.817 2.668 1.972 1.16 0 2.436-.541 3.828-1.624a60.75 60.75 0 004.06-3.712c.618-.619 1.392-1.547 2.32-2.784a121.9 121.9 0 002.9-3.712 158.506 158.506 0 002.32-3.364c.696-.928 1.082-1.392 1.16-1.392.232-.464.386-.735.464-.812l.116-.116.116-.116.58-1.16.116.116c.077 0 .193-.155.348-.464.232-.31.541-.928.928-1.856.464-.928 1.082-2.32 1.856-4.176 0-.387.038-.619.116-.696.154-.155.232-.27.232-.348v-.116c0-.232.077-.348.232-.348l.464-.464c-.078.077-.194.077-.348 0-.078-.155-.078-.503 0-1.044.154-.619.657-1.74 1.508-3.364.773-1.547 1.353-3.287 1.74-5.22.386-2.01 1.121-4.137 2.204-6.38.154-.155.309-.58.464-1.276a48.09 48.09 0 00.464-2.436l.696-2.784c.232-.928.502-1.74.812-2.436 0 .077.154-.387.464-1.392.386-1.083.58-2.745.58-4.988v-1.16c0-.464-.039-.89-.116-1.276 0-.31-.232-.541-.696-.696-.464-.232-.696-.425-.696-.58V6.56h-.232c-.232 0-.387-.039-.464-.116-.078-.155-.194-.232-.348-.232h-.116c-.078 0-.116-.077-.116-.232 0-.155.038-.31.116-.464 0-.155-.039-.193-.116-.116-.078 0-.116-.039-.116-.116 0-.077.154-.31.464-.696.386-.464 1.237-.696 2.552-.696.696 0 1.276.503 1.74 1.508.464.928.696 1.779.696 2.552-.078 0-.116.077-.116.232 0 .155.038.27.116.348v.928c0 .155-.039.425-.116.812-.078.387-.194 1.005-.348 1.856-.31 1.315-.58 2.204-.812 2.668-.155.464-.232.89-.232 1.276v.232c0 .077-.039.27-.116.58-.078.31-.194.657-.348 1.044-.078.387-.155.735-.232 1.044a53.16 53.16 0 00-.116.348v.116c0 .155-.116.503-.348 1.044l-.58 1.74a21.112 21.112 0 01-.58 2.088c-.155.619-.232 1.083-.232 1.392v.116c0-.155-.039-.039-.116.348 0 .387-.078.58-.232.58.077 0-.039.387-.348 1.16-.31.696-.464 1.199-.464 1.508 0 .31-.078.425-.232.348-.155-.077-.232-.039-.232.116v.116c.077-.077.116.077.116.464-.155.31-.232.425-.232.348v.116c-.155.232-.464 1.005-.928 2.32-.387 1.237-.89 2.823-1.508 4.756 0 .464-.078.735-.232.812-.078 0-.194.039-.348.116-.155.077-.31.27-.464.58-.078.232-.116.773-.116 1.624 0 .077.038.116.116.116 0 .155-.078.193-.232.116-.155-.077-.271.387-.348 1.392-.078 0-.116.039-.116.116 0 .077.038.155.116.232h-.116c-.155 0-.194.077-.116.232.077.077.038.116-.116.116v.232c.077 0 .116.039.116.116 0 .077-.078.116-.232.116-.078-.077-.116-.039-.116.116v.116c0 .155-.039.232-.116.232-.078 0-.116.039-.116.116v.116c0 .155-.078.464-.232.928-.078.387-.232.85-.464 1.392a5.813 5.813 0 01-.58 1.392c-.155.387-.348.58-.58.58-.078 0-.116-.077-.116-.232 0-.232-.039-.31-.116-.232l-.116.232c0 .155.038.232.116.232.077 0 .116.039.116.116 0 .077-.039.193-.116.348-.078.155-.155.232-.232.232 0-.155-.078-.232-.232-.232l-.116.232v.116c0 .232-.039.348-.116.348 0-.077-.039-.077-.116 0-.078 0-.194.116-.348.348-.078.232-.155.696-.232 1.392l-.116-.116c-.078 0-.116-.039-.116-.116l.116.464c.154 0 0 .155-.464.464-.464.232-.812.812-1.044 1.74v.116c0 .387-.078.58-.232.58v-.116l-.116-.116c-.078.077-.116.155-.116.232-.078.077-.116.155-.116.232h.116c0 .155-.078.31-.232.464-.078.155-.155.232-.232.232h-.116c-.232 0-.348.155-.348.464v.348c0 .077-.039.155-.116.232v.116c-.155 0-.542.348-1.16 1.044-.619.619-.928 1.237-.928 1.856v.116h-.232c.077.077-.155.31-.696.696-.464.387-.967 1.121-1.508 2.204 0-.077-.078 0-.232.232l-.348.696-.464.696c-.155.232-.271.348-.348.348-.078 0-.116-.039-.116-.116l-.116-.116-.116.116.116.116c0 .077-.271.348-.812.812-.464.464-.696.812-.696 1.044l-.696.696c-.155.387-.542.696-1.16.928-.542.155-.89.425-1.044.812l-.928.464c-.619.31-1.354.657-2.204 1.044-.851.31-1.74.619-2.668.928-.851.232-1.624.348-2.32.348zm66.172-35.264l.232-.116a4.61 4.61 0 00.696-.58l.812-.812.812-.812c0-.077-.038-.116-.116-.116l-.232.116h-.116c0-.232.271-.58.812-1.044.387-.387.58-.657.58-.812 0-.155-.116-.232-.348-.232.078 0 0 .077-.232.232a6.633 6.633 0 01-.696.58l-.696.696c-.232.232-.348.464-.348.696 0 .077.039.116.116.116h.464c0 .077-.27.27-.812.58-.541.232-.812.464-.812.696h.116l-.232.232c-.077.077-.116.193-.116.348 0 .155.039.232.116.232zm4.64-5.916c.155 0 .232-.077.232-.232 0-.155.194-.31.58-.464.464-.31.696-.503.696-.58 0-.387-.116-.58-.348-.58.078 0-.038.116-.348.348-.309.232-.464.387-.464.464 0 .077-.154.27-.464.58-.232.232-.309.348-.232.348.078.077.194.116.348.116zm-18.908 23.084c.155 0 .232-.116.232-.348v-.116c0 .077.155-.039.464-.348.387-.387.58-.773.58-1.16v-.348c-.077 0-.348.31-.812.928-.386.541-.58.967-.58 1.276l.116.116zm13.34-15.312c.155 0 .232-.077.232-.232.078-.155.271-.387.58-.696.078-.155.155-.27.232-.348.078-.077.116-.155.116-.232 0-.077-.038-.155-.116-.232-.154 0-.27.116-.348.348-.077.155-.193.31-.348.464a7.42 7.42 0 01-.464.812c0 .077.039.116.116.116zm4.408-6.496c.387 0 .658-.077.812-.232.155-.155.232-.31.232-.464 0-.077-.077-.116-.232-.116-.154 0-.386.077-.696.232-.232.155-.348.31-.348.464 0 .077.078.116.232.116zm-14.616 22.736c.232 0 .387-.155.464-.464.078-.31.194-.541.348-.696l.232-.464-.116-.116c-.154 0-.348.193-.58.58-.232.387-.348.773-.348 1.16zm-1.044-4.64c.155 0 .31-.116.464-.348.155-.232.232-.425.232-.58l-.116-.116c.078.077-.077.232-.464.464-.309.155-.464.31-.464.464 0 .077.116.116.348.116zm-3.016 4.872c.078 0 .232-.116.464-.348.078-.077.116-.155.116-.232 0-.077.039-.155.116-.232 0-.077.039-.116.116-.116h-.116c-.309 0-.502.155-.58.464 0 .232-.038.387-.116.464zm-20.3 22.04c-.309 0-.618-.193-.928-.58-.386-.31-.58-.773-.58-1.392 0-.464.232-.696.696-.696.387-.077 1.238-.503 2.552-1.276l.232-.116h.232c.387 0 1.006-.232 1.856-.696.851-.464 1.47-.696 1.856-.696v.116c.155 0 .348-.077.58-.232.232-.155.542-.232.928-.232h.232c.31 0 .735-.116 1.276-.348.542-.31.967-.464 1.276-.464h.232c.232 0 .58-.039 1.044-.116l1.392-.464c.542-.155 1.006-.27 1.392-.348l.58-.232c0-.077-.038-.116-.116-.116 0-.077-.038-.193-.116-.348 0-.155-.038-.425-.116-.812v-2.088c0-.85.116-1.353.348-1.508.232-.232.348-.464.348-.696l-.116-.116c0-.155.039-.232.116-.232.155 0 .232-.039.232-.116 0-.077-.077-.077-.232 0-.077 0-.116-.077-.116-.232 0-.077.116-.232.348-.464.31-.232.464-.464.464-.696v-.232c.155-.077.426-.387.812-.928.387-.541 1.006-1.585 1.856-3.132.542-1.005.89-1.663 1.044-1.972.232-.31.348-.541.348-.696 0-.077.116-.27.348-.58l.696-1.16c.232-.464.464-.89.696-1.276.232-.387.348-.696.348-.928v-.232c0-.155.078-.27.232-.348a3.77 3.77 0 00.58-.464c.155-.31.271-.464.348-.464.155-.077.232-.155.232-.232 0-.232.155-.657.464-1.276l1.16-2.088 1.16-1.74.58-.812v-.116c0-.155.039-.193.116-.116.078.077.116 0 .116-.232v-.116h-.232c0-.077.039-.193.116-.348.155-.232.194-.348.116-.348.078 0 .116.077.116.232 0 .155.078.232.232.232.155 0 .271-.116.348-.348.155-.232.31-.348.464-.348h.116c.078 0 .271-.155.58-.464a1.82 1.82 0 00.348-.464c0-.077-.116-.116-.348-.116l-.116.116c-.077 0-.116-.039-.116-.116 0-.155.232-.232.696-.232.542-.077.812-.464.812-1.16 0-.155-.077-.232-.232-.232-.232 0-.386.155-.464.464-.077.31-.154.464-.232.464h-.232c.078-.077.155-.31.232-.696.155-.387.194-.58.116-.58l.116.116c0 .077.039.116.116.116.078 0 .116-.077.116-.232 0-.155-.038-.193-.116-.116v-.116c0-.232.155-.425.464-.58.31-.232.542-.348.696-.348.232-.077.464-.193.696-.348.387-.232.542-.464.464-.696l-.116-.116c0-.155.039-.27.116-.348l.232-.232.232.116c.078 0 .155-.116.232-.348.155-.232.232-.464.232-.696v-.232c0-.232.078-.348.232-.348h.116c.31 0 .464-.116.464-.348v-.116l.464-.464c.31-.31.464-.58.464-.812-.077 0-.232.116-.464.348-.154.155-.27.232-.348.232v-.116l.464-.696c.31-.464.464-.85.464-1.16 0-.077.078-.27.232-.58.155-.31.348-.58.58-.812.232-.31.426-.58.58-.812l.348-.348c.155 0 .271-.077.348-.232.078-.232.542-1.005 1.392-2.32 0-.155.039-.387.116-.696.078-.31.658-1.005 1.74-2.088.387-.232.658-.503.812-.812.078-.155.155-.27.232-.348 0-.232-.077-.348-.232-.348h-.116c0-.077.039-.155.116-.232.155-.077.232-.155.232-.232v-.116.116c-.077 0 0-.116.232-.348.232-.31.464-.58.696-.812.31-.31.58-.541.812-.696l.464-.348c0-.077-.077-.193-.232-.348.232-.077.542-.27.928-.58.464-.31.696-.696.696-1.16l.464-.348c.31-.31.619-.657.928-1.044.387-.464.735-.89 1.044-1.276.31-.464.464-.812.464-1.044-.077 0-.116-.077-.116-.232h.232c.155 0 .464-.31.928-.928.464-.619.696-1.005.696-1.16-.928.85-1.585 1.47-1.972 1.856l-.812.812-.58.58-1.392.928c-.154.155-.812.619-1.972 1.392-1.082.773-2.397 1.933-3.944 3.48l-.696.696c-.386.387-.889.85-1.508 1.392-.618.541-1.276 1.121-1.972 1.74-.696.541-1.392.967-2.088 1.276l-.348.348c-.077 0-.154.039-.232.116-.077.077-.154.116-.232.116l-.928.696c-.541.387-1.121.85-1.74 1.392a31.448 31.448 0 01-1.856 1.508l-.812.58c-.154-.077-.309 0-.464.232-.077.155-.348.464-.812.928-.464.387-1.198.928-2.204 1.624-.928.619-2.242 1.353-3.944 2.204l-2.088 1.392c-1.082.696-2.165 1.044-3.248 1.044-.386 0-.812-.116-1.276-.348-.386-.232-.58-.541-.58-.928v-.232c.078 0 .232.077.464.232.232.077.426.116.58.116.232.077.774-.116 1.624-.58a72.457 72.457 0 012.9-1.74c1.006-.619 1.779-1.044 2.32-1.276.542-.31.967-.541 1.276-.696.31-.155.58-.31.812-.464.31-.232.735-.541 1.276-.928.619-.464 1.431-1.083 2.436-1.856 1.083-.85 2.552-2.01 4.408-3.48l.232-.232.928-.696c.387-.31.735-.58 1.044-.812.31-.31.542-.464.696-.464 0 .155.039.155.116 0 .155-.155.31-.348.464-.58.232-.31.464-.58.696-.812.31-.232.58-.348.812-.348l1.044-1.044.464-.464.464-.232c.155-.077.503-.31 1.044-.696-.154.077-.038-.039.348-.348a41.23 41.23 0 011.624-1.276 43.867 43.867 0 001.972-1.624c.696-.541 1.199-.967 1.508-1.276l.464-.116c.31-.155.619-.348.928-.58a5.374 5.374 0 001.044-.812c.31-.31.464-.657.464-1.044 0-.077.039-.116.116-.116l.116.116.348-.348c.232-.232.348-.31.348-.232 0 .077.078.077.232 0 .232-.155.658-.503 1.276-1.044.619-.541 1.702-1.585 3.248-3.132.232-.232.58-.696 1.044-1.392.542-.696 1.122-1.43 1.74-2.204a24.183 24.183 0 011.74-1.972c.542-.619 1.006-.928 1.392-.928a5.16 5.16 0 011.276.464c.464.232.774.425.928.58v.232c0 .232-.154.58-.464 1.044a90.742 90.742 0 01-1.16 1.856c-.541.85-1.314 1.972-2.32 3.364-.928 1.315-1.508 2.165-1.74 2.552-.154.31-.232.541-.232.696v.116c-.154-.077-.425.116-.812.58-.386.387-.58.812-.58 1.276 0 .155-.116.348-.348.58 0-.077-.116 0-.348.232l-.928.928c-.309.31-.618.696-.928 1.16a2.434 2.434 0 00-.348 1.276v.116c.078 0 .116.039.116.116a4.61 4.61 0 00-.696.58c-.464.464-.696.967-.696 1.508 0 .155-.116.232-.348.232-.154 0-.232.039-.232.116 0 .077.039.116.116.116.078 0 .116.039.116.116 0 .541-.193.89-.58 1.044-.386.077-.58.193-.58.348l.116.116c0-.077-.116.077-.348.464-.154.387-.232.657-.232.812 0 .541-.386.928-1.16 1.16-.773.155-1.16.503-1.16 1.044 0 .077.039.116.116.116-.077 0 0-.155.232-.464.31-.387.58-.58.812-.58.078 0 .116.039.116.116 0 .155-.193.464-.58.928-.386.464-.696.696-.928.696-.077 0-.116-.039-.116-.116v-.116c-.077.077-.27.425-.58 1.044-.309.619-.657.928-1.044.928v.116c0 .077-.077.193-.232.348-.154.077-.232.193-.232.348h.116c.155 0 .31-.155.464-.464.232-.31.464-.464.696-.464.078 0 .116.077.116.232 0 .31-.154.541-.464.696l-1.044 1.044c-.232.31-.464.657-.696 1.044-.154.31-.232.619-.232.928.31-.155.348-.116.116.116-.232.155-.541.387-.928.696-.386.31-.773.657-1.16 1.044-.309.31-.464.541-.464.696 0 .077.078.116.232.116.155 0 .348-.193.58-.58.31-.387.503-.619.58-.696l.116.116c0 .464-.27 1.005-.812 1.624a31.14 31.14 0 01-1.624 1.74 36.413 36.413 0 00-1.74 1.624c-.464.464-.696.85-.696 1.16l.116.116c0 .155-.154.232-.464.232-.309 0-.657.077-1.044.232-.309.077-.618.27-.928.58-.232.232-.348.696-.348 1.392 0 .155.078.31.232.464v.116c-.077 0-.116-.039-.116-.116-.541 0-.812.27-.812.812v.232h-.232c-.154 0-.232.077-.232.232l.116.232c0 .155-.154.348-.464.58-.232.232-.348.387-.348.464h.812c.155 0 .232.039.232.116 0 .077-.116.155-.348.232a1.458 1.458 0 00-.58.348c0-.077.039-.155.116-.232 0-.155-.077-.232-.232-.232-.077 0-.193.077-.348.232-.154.155-.232.31-.232.464V46c0 .077-.077.116-.232.116h-.116c0 .077.039.116.116.116a.786.786 0 01-.232.58c-.154.155-.232.27-.232.348 0 .077.078.116.232.116l.464-.696v.696c.232 0 .58-.31 1.044-.928.542-.619.967-.928 1.276-.928.078 0 .116.077.116.232 0-.077-.116.155-.348.696-.232.541-.889 1.083-1.972 1.624-.154 0-.232-.039-.232-.116.078-.155.078-.232 0-.232-.077 0-.154.077-.232.232-.077.155-.193.232-.348.232l-.116-.116c-.154 0-.425.155-.812.464-.309.31-.464.541-.464.696 0 .077.078.116.232.116.696 0 .967-.039.812-.116-.077-.077.116-.116.58-.116h.696c.387 0 .58-.077.58-.232.078-.232.194-.348.348-.348.155 0 .232.039.232.116-.232.232-.348.425-.348.58 0 .077-.309.193-.928.348-.309 0-.618.27-.928.812-.309.464-.502.696-.58.696h-.232c0-.155.116-.387.348-.696.31-.31.464-.541.464-.696-.154 0-.348.077-.58.232-.232.077-.348.193-.348.348 0 .077.039.116.116.116 0 .077-.116.27-.348.58-.154.31-.309.464-.464.464h-.116l.116-.116c0-.077.078-.193.232-.348a.765.765 0 01.348-.348h-.116c-.154 0-.27.039-.348.116a1.338 1.338 0 01-.348.232l-.348.348-.116-.116c-.077-.077-.154-.116-.232-.116 0 .155-.038.27-.116.348v.232l.116-.116c.155 0 .194.039.116.116 0 .077.116.116.348.116.31 0 .503-.039.58-.116v-.116.116c.078.077.155.116.232.116h.232c0-.077.039-.116.116-.116.078 0 .155.039.232.116 0 .232-.154.464-.464.696-.232.232-.386.348-.464.348-.077 0-.154-.039-.232-.116 0-.077-.038-.116-.116-.116-.077 0-.348.232-.812.696-.464.464-.696.773-.696.928l.348-.232c.078 0 .116.039.116.116 0 .077-.116.232-.348.464-.154.232-.348.503-.58.812-.309.31-.618.657-.928 1.044 0 .077.039.116.116.116h.116l.116.116c0 .31-.348.503-1.044.58-.618 0-.928.27-.928.812 0 .077.116.116.348.116.31 0 .464.039.464.116 0 .232-.154.348-.464.348h-.232c0-.077-.038-.116-.116-.116-.154 0-.464.31-.928.928-.386.619-.58 1.121-.58 1.508 0-.077-.116.039-.348.348-.154.232-.348.541-.58.928-.154.387-.348.812-.58 1.276-.154.387-.232.657-.232.812 0 .232-.309.696-.928 1.392-.541.619-.812 1.353-.812 2.204 0 .31-.116.425-.348.348-.154-.077-.232-.039-.232.116 0 .31.271.464.812.464l.464-.232c.155-.155.31-.193.464-.116.232 0 .348-.077.348-.232 0 .077.232.077.696 0a21.89 21.89 0 011.624-.464 26.983 26.983 0 011.972-.58c.619-.155 1.044-.232 1.276-.232.078 0 .116.039.116.116.078.077.194.116.348.116.078 0 .116.039.116.116.078 0 .194-.039.348-.116 0 .077.039.116.116.116l.116-.116 2.32-.812h.464c0 .077-.038.116-.116.116-.077 0-.116.039-.116.116h.464c.31 0 .464-.039.464-.116 0-.155-.077-.193-.232-.116-.154.077-.232.077-.232 0l.116-.116.232-.116c.232 0 .348.077.348.232v.232h.464c.31-.155.503-.232.58-.232.078-.077.155-.116.232-.116.078 0 .155.039.232.116.078.077.155.116.232.116.078 0 .116-.039.116-.116.155 0 .271.077.348.232.078.155.155.232.232.232v-.116c.464 0 .928.425 1.392 1.276.464.85.696 1.585.696 2.204 0 .619-.232 1.121-.696 1.508-.386.31-.85.464-1.392.464-.232 0-.541-.077-.928-.232-.309-.232-.464-.464-.464-.696 0-.31.116-.58.348-.812.31-.31.464-.619.464-.928 0-.232-.464-.348-1.392-.348-.541-.077-.928-.039-1.16.116-.232.155-.889.232-1.972.232-.928 0-1.585.039-1.972.116-.386.077-.618.116-.696.116-.154 0-.232-.039-.232-.116.078-.077.078-.116 0-.116l-.232.232c-.154.077-.464.116-.928.116l-1.392.348c-.232.077-.386.116-.464.116-.85 0-1.546.116-2.088.348-.541.232-.889.348-1.044.348-.154 0-.232-.039-.232-.116.078-.077.078-.116 0-.116a3.086 3.086 0 01-.812.58c-.309.155-.657.27-1.044.348-.309.077-.773.116-1.392.116-.154 0-.232-.077-.232-.232v-.232c-.154.077-.27.155-.348.232-.232.155-.348.193-.348.116 0 .077.039.155.116.232.078.077.116.155.116.232a1.908 1.908 0 01-.58.116l-.464.232c-1.16 0-2.049.193-2.668.58a6.182 6.182 0 01-2.088.812c-.773.155-1.43.387-1.972.696-.541.31-.85.425-.928.348l-.696.232a31.4 31.4 0 00-1.508.812c-.541.31-1.082.58-1.624.812-.541.232-.85.348-.928.348z" fill="#4F2549"/></svg>