<svg width="331" height="93" fill="none" xmlns="http://www.w3.org/2000/svg"><path d="M330.743 47.17c-.29-9.548-5.32-17.33-13.802-21.348-4.407-2.089-8.949-3.154-13.498-3.167.012-.793.031-1.582.06-2.37.271-7.724-3.798-13.972-10.885-16.712-2.703-1.043-5.351-1.536-7.687-1.97-.848-.157-1.71-.315-2.58-.509a9.37 9.37 0 00-7.289 1.394 9.326 9.326 0 00-3.974 6.256c-.069.43-.124.734-.166.961-.112.634-.253 1.424-.253 2.445l-.011 11.662-.001 1.798a22.074 22.074 0 00-4.483-1.44c-3.845-.782-7.667-1.179-11.361-1.179-2.064 0-4.091.127-6.024.377-3.042.392-5.853 1.188-8.383 2.331a9.385 9.385 0 00-.634-.632 9.358 9.358 0 00-8.225-2.13c-1.099.244-2.144.46-3.147.666-2.419.5-4.704.97-7.087 1.667-3.123.913-5.704 2.509-7.633 4.653a9.358 9.358 0 00-10.733-5.313c-.68.163-1.344.302-1.995.439-1.739.367-3.709.783-5.749 1.522-4.389 1.59-7.261 3.828-9.128 6.178a13.281 13.281 0 00-2.064-2.803c-4.132-4.287-9.161-5.775-13.493-6.33.16-.916.255-1.853.255-2.815 0-4.316-1.604-8.23-4.622-11.3-3.062-3.132-7.165-4.856-11.555-4.856-4.399 0-8.375 1.628-11.512 4.721-3.137 3.106-4.796 7.06-4.796 11.435 0 1.055.107 2.093.309 3.104l-11.43-.003c-3.967 0-7.929.002-11.891.009-6.377.01-10.492 2.387-12.987 4.69-1.982-1.443-4.255-2.639-6.804-3.542-4.696-1.664-9.469-2.507-14.188-2.507-2.915 0-5.83.325-8.666.966-2.031.46-5.107 1.159-8.184 2.602l.581-1.11c.93-1.783 1.884-3.61 2.888-5.478a9.323 9.323 0 00.349-8.114A9.345 9.345 0 0062.117 6.1c-3.632-.98-6.822-1.455-9.753-1.455-11.738 0-17.235 7.8-19.656 12.29a16.177 16.177 0 00-3.018-5.098C25.91 7.504 19.701 5.02 12.658 5.02c-1.556 0-3.128.122-4.67.361a9.34 9.34 0 00-7.912 9.225L.073 25.842c-.005 16.2-.01 32.95.087 49.447.026 4.481 2.522 9.093 6.21 11.475 4.759 3.074 10.35 4.568 17.093 4.568.356 0 .715-.004 1.076-.012 5.084-.11 9.148-4.257 9.148-9.334v-4.497l.105.204c4.313 8.442 12.376 13.48 21.57 13.48 3.58 0 7.197-.812 10.511-2.337 3.787 1.802 8.145 2.7 13.147 2.7 2.82 0 5.588-.281 7.684-.523.992-.115 1.98-.25 2.968-.387 2.025-.28 3.938-.544 5.593-.544 1.38 0 2.44.176 3.436.572a9.35 9.35 0 003.457.662 9.36 9.36 0 003.174-.56c.034.001.067.004.101.004l16.452.002 11.184-.004c5.594-.004 9.946-1.04 13.247-3.221.054.021.106.05.16.071 3.008 1.191 5.936 1.99 9.034 2.835 1.127.307 2.294.625 3.508.977a9.369 9.369 0 008.22-1.503 9.336 9.336 0 003.732-7.465v-.04c2.983 3.207 6.521 6.212 10.725 8.963a9.34 9.34 0 005.122 1.527c2.2 0 4.387-.773 6.135-2.288l5.649-4.902a141.573 141.573 0 005.376 4.122c2.541 1.842 5.372 2.229 7.3 2.229 1.894 0 4.673-.382 7.164-2.203a57.24 57.24 0 0011.235-10.842c2.161 3.451 5.323 6.33 9.392 8.467 5.378 2.824 11.251 4.257 17.458 4.257 3.712 0 7.536-.52 11.369-1.547 3.267-.875 6.175-2.247 8.626-4.013 1.054.873 2.206 1.591 3.423 2.09 3.168 1.297 6.224 1.841 9.181 2.365.998.177 2.02.357 3.06.579a9.362 9.362 0 007.831-1.877 9.33 9.33 0 002.836-3.89c1.891 1.567 4.142 2.598 6.417 3.498l.153.06c2.946 1.167 5.741 1.471 8.206 1.74.852.094 1.657.18 2.384.298a9.35 9.35 0 007.548-2.112 9.327 9.327 0 003.286-7.106c0-3.509.021-6.961.042-10.372.051-8.339.098-16.215-.145-24.284z" fill="#fff"/><path d="M37.468 46.322c13.667 7.558 17.816 21.736 24.87 33.866-7.169 3.525-16.032 1.455-20.217-6.738-3.032-5.935-7.014-11.428-10.968-16.829-1.44-1.966-4.026-3.095-6.816-5.139v30.504c-4.895.106-9.15-.647-12.888-3.061-1.037-.67-1.931-2.427-1.939-3.69-.119-20.22-.084-40.439-.084-60.629 7.524-1.17 15.906 1.728 14.848 9.364-.401 2.9-.063 5.9-.063 8.856v7.96c5.38-2.552 8.706-6.621 11.78-10.897a46.717 46.717 0 004.142-6.924c3.818-7.916 8.601-10.803 19.546-7.851-6.914 12.852-11.463 23.88-22.21 31.208zm160.921 27.205l-11.57 10.039c-18.711-12.242-21.847-30.778-22.179-50.974 4.602.11 9.329.4 12.634 3.829 1.536 1.593 1.591 4.71 2.084 7.183 1.203 6.025 2.028 12.137 3.512 18.088.568 2.278 2.515 4.214 3.835 6.305 2.031-2.047 4.673-3.793 5.891-6.243.881-1.772-.196-4.478-.282-6.772-.161-4.292-.539-8.608-.257-12.876.242-3.66 3.14-5.6 6.337-6.759 2.081-.754 4.32-1.08 6.731-1.657.348 11.88-3.778 24.314 5.993 34.544 4.35-4.025 5.156-9.334 6.03-14.577.755-4.534 1.526-9.076 1.962-13.646.308-3.203 2.048-4.967 4.83-5.78 2.951-.862 6.004-1.375 9.629-2.177-.358 3.649-.617 6.524-.927 9.395-.779 7.228-.912 14.55-4.002 21.382-3.565 7.881-8.763 14.412-15.72 19.495-.767.56-2.666.522-3.452-.048-3.727-2.7-7.247-5.68-11.079-8.75zm81.931-63.318c3.136.695 6.173 1.01 8.922 2.072 3.286 1.27 5.049 3.872 4.915 7.676-.167 4.71-.039 9.432-.039 14.182 6.078-2.857 12.426-2.91 18.815.118 5.619 2.663 8.289 7.414 8.464 13.196.338 11.23.098 22.476.098 34.374-3.043-.489-6.042-.475-8.628-1.499-4.186-1.656-5.749-2.203-5.577-7.887.227-7.493.125-14.998.03-22.496-.07-5.537-3.499-8.12-8.703-6.66-3.109.873-4.537 2.984-4.513 6.272.072 9.43.026 18.861.026 28.292v4.234c-3.842-.816-7.443-1.14-10.64-2.45-1.553-.635-3.321-3.104-3.339-4.76-.222-20.904-.142-41.811-.133-62.718 0-.33.099-.66.302-1.946z" fill="#372F87"/><path d="M87.84 71.332V59.407c-1.45.587-2.656 1.103-3.881 1.563-1.253.471-2.532.872-3.788 1.333-3.783 1.386-4.65 2.695-3.897 6.27.654 3.104 3.11 3.601 5.736 3.483 1.894-.086 3.775-.458 5.83-.724zM65.214 52.53c-.709-3.609-2.212-7.275-1.956-10.815.48-6.611 6.324-7.935 11.44-9.092 5.905-1.336 11.891-.81 17.66 1.234 6.052 2.144 9.547 6.559 9.712 12.83.309 11.686.089 23.386.089 35.291-5.619-2.233-11.035-.878-16.533-.24-7.831.908-15.744 1.146-21.385-5.914-4.59-5.745-2.831-16.069 3.643-19.459 4.496-2.354 9.532-3.682 14.33-5.458.948-.35 2.06-.448 2.835-1.017 1.098-.805 2.94-2.382 2.728-2.85-.654-1.454-1.908-3.165-3.321-3.66-6.072-2.123-16.952.218-18.008 9.097l-1.233.053zm184.757.11c7.275 1.275 10.149.13 10.554-4.095.335-3.5-1.814-5.983-5.2-6.006-4.397-.03-5.914 2.755-5.354 10.101zm.052 10.088c-.509 5.387.554 7.12 5.523 8.363 5.17 1.292 15.168-1.092 17.2-8.013 5.546 7.686 2.353 15.522-7.274 18.1-7.41 1.984-15.051 1.72-22.051-1.956-4.877-2.561-7.785-6.686-7.776-12.47.01-6.13.115-12.265-.058-18.39-.266-9.388 6.26-14.683 14.4-15.735 4.68-.605 9.675-.253 14.318.692 6.246 1.272 9.996 6.763 10.079 13.134.166 13.028-9.046 20.109-21.81 16.776-.836-.219-1.699-.337-2.551-.501zM121.116 70.2h23.94c-.987 8.935-3.472 11.216-11.994 11.222-9.197.007-18.394.002-27.629.002-2.672-10.011 2.605-16.84 8.513-23.323 4.082-4.48 8.456-8.694 12.701-13.027l-.515-1.006h-20.096c-.503-7.032 2.877-10.81 9.256-10.82 9.784-.017 19.569-.005 29.445-.005-.402 8.175-3.104 15.15-9.196 20.838-4.391 4.1-8.359 8.651-12.468 13.045-.649.695-1.047 1.624-1.957 3.075zm40.504 12.252c-4.373-1.265-8.146-2.118-11.699-3.524-1.128-.447-2.361-2.36-2.376-3.617-.167-14.158-.106-28.32-.106-43.625 4.417 1.39 8.352 2.377 12.04 3.945 1.076.458 2.035 2.562 2.05 3.923.149 13.826.091 27.656.091 42.898zm-7.024-54.958c-1.917 0-3.572-.67-4.918-1.989-1.352-1.306-2.041-2.892-2.041-4.704 0-1.853.683-3.472 2.029-4.803 1.358-1.34 3.017-2.017 4.93-2.017 1.9 0 3.539.686 4.864 2.042 1.304 1.327 1.962 2.933 1.962 4.778 0 1.8-.662 3.373-1.976 4.68-1.32 1.335-2.954 2.013-4.85 2.013z" fill="#372F87"/></svg>