<svg width="108" height="47" fill="none" xmlns="http://www.w3.org/2000/svg"><path d="M2.48 46c-.768 0-1.28-.128-1.536-.384S.56 44.848.56 44.08V3.12c0-.768.128-1.28.384-1.536S1.712 1.2 2.48 1.2h5.76c.768 0 1.28.128 1.536.384s.384.768.384 1.536v14.72c0 .512.085.853.256 1.024.17.17.512.256 1.024.256h1.92c.512 0 .853-.085 1.024-.256.17-.17.256-.512.256-1.024V3.12c0-.768.128-1.28.384-1.536s.768-.384 1.536-.384h5.76c.768 0 1.28.128 1.536.384s.384.768.384 1.536v40.96c0 .768-.128 1.28-.384 1.536S23.088 46 22.32 46h-5.76c-.768 0-1.28-.128-1.536-.384s-.384-.768-.384-1.536v-16c0-.512-.085-.853-.256-1.024-.17-.17-.512-.256-1.024-.256h-1.92c-.512 0-.853.085-1.024.256-.17.17-.256.512-.256 1.024v16c0 .768-.128 1.28-.384 1.536S9.008 46 8.24 46H2.48zm28.172 0c-.768 0-1.28-.128-1.536-.384s-.383-.768-.383-1.536V3.12c0-.768.127-1.28.383-1.536s.768-.384 1.537-.384h5.76c.768 0 1.28.128 1.536.384s.384.768.384 1.536v16.64h.64l4.032-16.704c.213-.725.469-1.216.767-1.472.3-.256.833-.384 1.6-.384h5.12c.769 0 1.28.128 1.537.384.255.256.383.768.383 1.536v40.96c0 .768-.127 1.28-.383 1.536-.257.256-.769.384-1.537.384h-5.76c-.767 0-1.28-.128-1.535-.384-.257-.256-.385-.768-.385-1.536V27.44h-.64l-4.031 16.704c-.214.725-.47 1.216-.768 1.472-.3.256-.832.384-1.6.384h-5.12zm46.733.32c-2.773 0-4.757-.576-5.952-1.728-1.152-1.195-1.728-3.179-1.728-5.952V28.4c0-1.067-.49-1.6-1.472-1.6h-.256c-.597 0-1.003.107-1.216.32-.17.213-.256.64-.256 1.28v16c0 .64-.107 1.067-.32 1.28-.213.213-.64.32-1.28.32h-6.4c-.64 0-1.067-.107-1.28-.32-.213-.213-.32-.64-.32-1.28V2.8c0-.64.107-1.067.32-1.28.213-.213.64-.32 1.28-.32h6.4c.64 0 1.067.107 1.28.32.213.213.32.64.32 1.28v14.72c0 .64.085 1.067.256 1.28.213.213.619.32 1.216.32h.256c.981 0 1.472-.533 1.472-1.6V8.56c0-2.773.576-4.736 1.728-5.888C72.628 1.477 74.612.88 77.385.88h2.88c.64 0 1.067.107 1.28.32.213.213.32.64.32 1.28v4.48c0 .64-.107 1.067-.32 1.28-.17.213-.49.32-.96.32s-.81.107-1.024.32c-.17.213-.256.64-.256 1.28v6.08c0 1.45-.213 2.603-.64 3.456-.384.81-.81 1.45-1.28 1.92a4.21 4.21 0 01-1.92 1.024v.64a4.21 4.21 0 011.92 1.024c.47.47.896 1.13 1.28 1.984.427.81.64 1.941.64 3.392v7.36c0 .64.085 1.067.256 1.28.213.213.555.32 1.024.32.47 0 .79.107.96.32.213.213.32.64.32 1.28v4.48c0 .64-.107 1.067-.32 1.28-.213.213-.64.32-1.28.32h-2.88zm9.612-.32c-.767 0-1.28-.128-1.535-.384-.257-.256-.385-.768-.385-1.536V11.12c0-1.536.257-2.944.769-4.224.554-1.323 1.3-2.453 2.24-3.392.98-.939 2.154-1.664 3.52-2.176C93.013.816 94.57.56 96.278.56c1.706 0 3.242.256 4.608.768 1.408.512 2.581 1.237 3.52 2.176a9.246 9.246 0 012.24 3.392c.554 1.28.832 2.688.832 4.224v32.96c0 .768-.128 1.28-.384 1.536s-.768.384-1.536.384h-5.76c-.769 0-1.28-.128-1.537-.384-.255-.256-.383-.768-.383-1.536v-12.8c0-.512-.086-.853-.257-1.024-.17-.17-.511-.256-1.023-.256h-2.56c-.513 0-.854.085-1.025.256-.17.17-.256.512-.256 1.024v12.8c0 .768-.128 1.28-.383 1.536-.256.256-.768.384-1.536.384h-3.84zm9.6-23.68c.513 0 .854-.085 1.025-.256.17-.17.255-.512.255-1.024V10.8c0-.725-.255-1.323-.767-1.792-.47-.512-1.067-.768-1.793-.768-.725 0-1.343.256-1.855.768-.47.47-.705 1.067-.705 1.792v10.24c0 .512.086.853.256 1.024.171.17.512.256 1.024.256h2.56z" fill="#4F2549"/></svg>