<svg width="359" height="159" fill="none" xmlns="http://www.w3.org/2000/svg"><path fill-rule="evenodd" clip-rule="evenodd" d="M318.25 80.117l-20.754 36.044h-9.683l30.434-52.385L359 133.923l-9.494-.006-31.256-53.8zm-258.48 36.07l-6.315-10.871-6.316 10.871h-9.475l29.474-50.733 29.474 50.733h-9.49L67.13 81.777 58.192 97.16l11.054 19.026H59.77zm-19.99-34.41L9.487 133.919 0 133.913l39.772-68.46 11.51 19.812-4.738 8.155-6.764-11.643zm71.535 13.536v12.69h26.161v8.184H103.08v-28.96l.344-.098h34.052v8.184h-26.161zm26.161-29.11v8.184H103.08v-8.183h34.396zm25.727 29.05l12.6 20.934h-9.507L148.771 87.07l9.077-.002 12.017.001a6.377 6.377 0 004.503-1.866 6.3 6.3 0 001.878-4.475 6.295 6.295 0 00-1.878-4.475 6.377 6.377 0 00-4.503-1.866h-25.16v-8.184h25.16c3.886 0 7.58 1.535 10.326 4.264a14.438 14.438 0 014.29 10.261c0 3.862-1.545 7.533-4.29 10.262a14.622 14.622 0 01-10.326 4.263h-6.662zm99.889.068h9.103c1.696 0 3.304.675 4.502 1.866a6.299 6.299 0 011.878 4.475 6.297 6.297 0 01-1.877 4.475 6.377 6.377 0 01-4.503 1.866h-28.057l-4.755 8.184h32.812c3.886 0 7.579-1.535 10.325-4.263 2.746-2.729 4.29-6.4 4.29-10.262s-1.544-7.533-4.29-10.261a14.621 14.621 0 00-10.325-4.264h-12.343a6.377 6.377 0 01-4.503-1.866 6.3 6.3 0 01-1.878-4.475c0-1.686.679-3.284 1.877-4.475a6.381 6.381 0 014.504-1.866h26.65l4.83-8.184h-31.48c-3.886 0-7.58 1.535-10.326 4.264a14.438 14.438 0 00-4.29 10.261c0 3.862 1.544 7.533 4.29 10.261a14.622 14.622 0 0010.326 4.264h3.24zm-48.043-29.213a25.587 25.587 0 0118.092 7.447c4.63 4.602 7.495 10.959 7.495 17.98 0 7.022-2.864 13.379-7.495 17.98a25.584 25.584 0 01-18.092 7.448 25.589 25.589 0 01-18.092-7.448c-4.63-4.601-7.494-10.959-7.494-17.98 0-7.02 2.864-13.378 7.494-17.98a25.588 25.588 0 0118.092-7.447zm0 8.374a17.16 17.16 0 0112.134 4.995 16.945 16.945 0 015.025 12.058c0 4.71-1.92 8.973-5.025 12.059a17.163 17.163 0 01-12.134 4.994 17.163 17.163 0 01-12.134-4.994 16.947 16.947 0 01-5.025-12.059 16.95 16.95 0 015.025-12.058 17.161 17.161 0 0112.134-4.995zM185.64 40.29l.472-4.834-3.999 7.207 3.527-2.374zm31.723 5.311c-1.648 1.69-2.06 4.403-2.06 4.403 1.288-1.229 6.181-5.477 6.181-5.477s-2.472-.615-4.121 1.074zm16.329-9.521l-9.015 9.983c11.178-6.297 21.046-2.471 21.046-2.471s-13.15-11.258-12.711-9.786l.68 2.274zm-19.463-13.33l7.86 6.401s-6.114 2.067-7.608 2.476c-.933.256-1.826 1.532-2.944 3.128-.67.957-1.421 2.03-2.31 3.066-1.455 1.698-2.599 1.812-3.564 1.908-.606.061-1.141.114-1.638.55-.608.531-.584 1.92-.558 3.438.029 1.694.061 3.548-.782 4.546-1.425 1.69-3.588-.003-5.612-1.588-.244-.19-.485-.38-.723-.561-2.216-1.69-6.902-1.024-6.902-1.024l2.473-2.098c6.027 1.126 12.052-4.096 10.817-6.553-1.236-2.457-6.337-1.434-6.337-1.434 1.442-1.51 2.324-1.702 3.873-2.039a30.687 30.687 0 001.742-.418c13.578-3.748 9.62-8.66 5.965-13.194-1.526-1.895-3-3.724-3.119-5.375l9.367 8.77zM178.121 7.518c1.802-3.02 6.799-7.372 6.799-7.372-2.425 3.84-3.301 7.064-2.889 10.903.413 3.84-.152 5.836-2.469 8.139-2.318 2.303-3.709 5.375-2.37 7.832s.979 5.324.979 5.324c-4.79 3.072-5.048 9.776-5.048 9.776s-1.236-1.586-3.193-1.689c-1.958-.103-4.379 3.276-4.379 3.276-.142-.899.632-2.276 1.428-3.69.654-1.164 1.322-2.352 1.508-3.322.412-2.15-1.133-2.815-2.524-2.048-.57.314-1.235.87-1.822 1.36-.844.705-1.526 1.274-1.526.79 0-.305.424-.997 1.023-1.974 1.004-1.636 2.498-4.073 3.304-6.83l.065-.223c1.255-4.29 2.186-7.476 4.161-8.735l.334-.212c1.995-1.263 4.722-2.99 4.868-5.266.019-.3.033-.574.045-.828.089-1.77.129-2.57 1.706-5.211zm-37.649 24.72c-.156 3.736-2.679 5.937-2.679 5.937 3.929-1.348 6.471-4.026 8.055-5.694.7-.738 1.213-1.278 1.576-1.42 1.184-.461 1.803 1.638 2.06 5.53.257 3.89-3.502 13.257-3.502 13.257 4.172-3.736 8.447-8.907 8.705-15.664.083-2.181.054-3.936.029-5.39-.051-3.048-.08-4.772 1.001-6.332 1.597-2.304 6.747.308 6.747.308s-.051-.922.568-3.123c.441-1.57 2.95-4.128 5.082-6.302.858-.875 1.655-1.688 2.232-2.349 2.008-2.303 1.184-4.402 1.184-4.402l-31.058 25.643zm-3.295-4.148l-15.195 16.74c.041-.046 2.833 2.457 2.833 2.457l4.996-7.68 2.73 1.178c.412-4.248 4.636-12.694 4.636-12.694z" fill="#000"/><path d="M113.278 43.908s3.244-4.095 6.026-3.276c0 0-2.988 3.02-6.026 3.276z" fill="#000"/><path d="M113.904 152.357l2.196 1.963c-3.237 2.914-6.791 4.371-10.679 4.371-4.178 0-7.74-1.464-10.679-4.385-2.939-2.92-4.405-6.453-4.405-10.605 0-4.124 1.466-7.65 4.405-10.584 2.939-2.935 6.501-4.406 10.679-4.406 3.888 0 7.442 1.471 10.679 4.413l-2.196 1.935c-2.584-2.266-5.417-3.399-8.483-3.399-3.35 0-6.21 1.175-8.583 3.526-2.372 2.35-3.555 5.186-3.555 8.515 0 3.343 1.183 6.186 3.555 8.544 2.373 2.357 5.233 3.539 8.583 3.539 3.066 0 5.899-1.14 8.483-3.427zm5.453-23.294h2.925v10.781c.708-.668 2.089-1.006 4.149-1.006 2.217 0 4.03.697 5.439 2.097 1.409 1.401 2.139 3.153 2.181 5.257v12.168h-2.925v-11.999c0-1.281-.467-2.371-1.395-3.265-.927-.901-2.025-1.351-3.3-1.351-1.267 0-2.365.436-3.292 1.316-.418.415-.701.781-.857 1.112v14.187h-2.925v-29.297zm28.467 9.254c2.861 0 5.297 1 7.301 3.005 2.004 1.999 3.01 4.42 3.01 7.263 0 2.836-1.006 5.257-3.01 7.263-2.004 2.005-4.44 3.005-7.301 3.005-2.854 0-5.282-1-7.3-3.005-2.019-2.006-3.031-4.427-3.031-7.263 0-2.843 1.012-5.264 3.031-7.263 2.018-2.005 4.446-3.005 7.3-3.005zm0 2.97c-2.018 0-3.746.718-5.176 2.147-1.431 1.428-2.146 3.145-2.146 5.151s.715 3.723 2.139 5.137c1.423 1.415 3.151 2.126 5.183 2.126 2.019 0 3.747-.711 5.177-2.126 1.43-1.414 2.146-3.131 2.146-5.137s-.716-3.723-2.146-5.151c-1.43-1.429-3.158-2.147-5.177-2.147zm29.204 11.485l2.946 1.091c-.68.908-1.218 1.562-1.615 1.964-2.018 2.019-4.461 3.026-7.329 3.026-2.847 0-5.283-1-7.301-3.005-2.018-2.006-3.031-4.434-3.031-7.284 0-2.829 1.013-5.243 3.031-7.242 2.018-2.005 4.454-3.005 7.301-3.005 2.868 0 5.304 1.007 7.308 3.012.411.401.956 1.049 1.636 1.957l-2.946 1.077a13.007 13.007 0 00-.828-.95c-1.424-1.415-3.152-2.126-5.17-2.126s-3.739.711-5.162 2.133c-1.423 1.428-2.139 3.138-2.139 5.144 0 2.02.716 3.744 2.139 5.158 1.423 1.415 3.144 2.126 5.162 2.126s3.753-.718 5.191-2.147c.177-.176.446-.485.807-.929zm15.848-14.455c2.861 0 5.297 1 7.301 3.005 2.004 1.999 3.01 4.42 3.01 7.263 0 2.836-1.006 5.257-3.01 7.263-2.004 2.005-4.44 3.005-7.301 3.005-2.853 0-5.282-1-7.3-3.005-2.019-2.006-3.031-4.427-3.031-7.263 0-2.843 1.012-5.264 3.031-7.263 2.018-2.005 4.447-3.005 7.3-3.005zm0 2.97c-2.018 0-3.746.718-5.176 2.147-1.431 1.428-2.146 3.145-2.146 5.151s.715 3.723 2.139 5.137c1.423 1.415 3.151 2.126 5.183 2.126 2.019 0 3.747-.711 5.177-2.126 1.43-1.414 2.146-3.131 2.146-5.137s-.716-3.723-2.146-5.151c-1.43-1.429-3.158-2.147-5.177-2.147zm17.003-12.224v29.297h-2.925v-29.297h2.925zm24.254 29.297h-2.932v-2.168c-1.919 1.774-4.313 2.661-7.173 2.661-2.854 0-5.283-1-7.301-3.005-2.018-2.006-3.031-4.427-3.031-7.263 0-2.843 1.013-5.264 3.031-7.263 2.018-2.005 4.447-3.005 7.301-3.005 2.86 0 5.254.88 7.173 2.639v-1.091h2.932v18.495zm-2.932-8.29v-2.97c-.262-1.372-.92-2.597-1.99-3.666-1.437-1.429-3.165-2.147-5.183-2.147-2.019 0-3.746.718-5.177 2.147-1.43 1.428-2.146 3.145-2.146 5.151s.709 3.723 2.132 5.137c1.423 1.415 3.158 2.126 5.191 2.126 2.018 0 3.746-.718 5.183-2.147 1.07-1.062 1.728-2.273 1.99-3.631zm8.965-10.205v-7.318h2.903v7.318h3.527v2.907h-3.527v15.588h-2.903v-15.588h-3.526v-2.907h3.526zm11.776 5.567h13.363c-.163-.521-.651-1.189-1.452-1.998-1.437-1.429-3.172-2.147-5.19-2.147-2.033 0-3.76.718-5.184 2.147-.857.865-1.374 1.527-1.537 1.998zm-.644 2.928c.028 2.16.758 3.948 2.181 5.362 1.424 1.415 3.151 2.126 5.184 2.126 2.018 0 3.753-.718 5.19-2.147.248-.246.574-.626.992-1.133l2.91 1.007a11.158 11.158 0 01-1.784 2.252c-2.004 2.019-4.44 3.026-7.308 3.026-2.847 0-5.283-1-7.301-3.005-2.019-2.006-3.031-4.427-3.031-7.263 0-2.843 1.012-5.264 3.031-7.263 2.018-2.005 4.454-3.005 7.301-3.005 2.868 0 5.311 1.007 7.329 3.012 1.777 1.788 2.67 4.131 2.67 7.031h-17.364z" fill="#070707"/></svg>