<svg width="498" height="222" fill="none" xmlns="http://www.w3.org/2000/svg"><path fill-rule="evenodd" clip-rule="evenodd" d="M441.472 111.863l-28.789 50.419h-13.432l42.217-73.277L498 187.128l-13.17-.008-43.358-75.257zm-358.56 50.455l-8.76-15.206-8.761 15.206H52.247l40.886-70.966 40.885 70.966h-13.165l-27.731-48.133-12.398 21.52 15.333 26.613H82.912zm-27.73-48.133L13.16 187.122 0 187.113l55.171-95.761 15.967 27.712-6.573 11.408-9.383-16.287zm99.232 18.935v17.75h36.291v11.448H142.99v-40.51l.479-.136h47.236v11.448h-36.291zm36.291-40.72v11.448H142.99V92.401h47.715zm35.688 40.636l17.478 29.282h-13.188l-24.31-40.73 12.592-.002 16.67.002a8.811 8.811 0 006.246-2.61 8.848 8.848 0 002.605-6.26 8.848 8.848 0 00-2.605-6.26 8.811 8.811 0 00-6.246-2.61h-34.903V92.4h34.903c5.39 0 10.514 2.147 14.323 5.964a20.282 20.282 0 015.951 14.354 20.282 20.282 0 01-5.951 14.354c-3.809 3.817-8.933 5.964-14.323 5.964h-9.242zm138.564.095h12.627c2.353 0 4.584.945 6.246 2.61a8.848 8.848 0 012.605 6.26 8.849 8.849 0 01-2.604 6.26 8.811 8.811 0 01-6.247 2.609h-38.92l-6.596 11.448h45.516c5.391 0 10.515-2.146 14.324-5.963a20.284 20.284 0 00-.001-28.708c-3.808-3.817-8.933-5.964-14.323-5.964h-17.122a8.811 8.811 0 01-6.246-2.61 8.848 8.848 0 01-2.605-6.26c0-2.359.942-4.594 2.604-6.26a8.812 8.812 0 016.247-2.61h36.969l6.701-11.448h-43.67c-5.39 0-10.514 2.147-14.323 5.964a20.283 20.283 0 000 28.708c3.809 3.817 8.933 5.964 14.323 5.964h4.495zm-66.644-40.864c9.801 0 18.675 3.981 25.098 10.418 6.423 6.436 10.396 15.329 10.396 25.15a35.495 35.495 0 01-10.396 25.151c-6.423 6.437-15.297 10.418-25.098 10.418-9.8 0-18.674-3.982-25.097-10.418-6.423-6.437-10.396-15.329-10.396-25.151 0-9.821 3.974-18.714 10.396-25.15 6.423-6.436 15.297-10.418 25.097-10.418zm0 11.715c6.574 0 12.525 2.67 16.832 6.986a23.805 23.805 0 016.972 16.867 23.806 23.806 0 01-6.972 16.868c-4.307 4.316-10.258 6.986-16.832 6.986-6.573 0-12.524-2.67-16.831-6.986a23.806 23.806 0 01-6.972-16.868 23.805 23.805 0 016.972-16.867c4.307-4.316 10.258-6.986 16.831-6.986zm-40.796-47.831l.655-6.76-5.548 10.081 4.893-3.32zm44.006 7.43c-2.286 2.364-2.858 6.16-2.858 6.16 1.786-1.72 8.575-7.662 8.575-7.662s-3.43-.86-5.717 1.503zm22.651-13.318l-12.505 13.964c15.505-8.808 29.194-3.456 29.194-3.456s-18.241-15.748-17.632-13.69l.943 3.182zm-26.998-18.647l10.902 8.955s-8.481 2.89-10.553 3.463c-1.294.358-2.534 2.143-4.084 4.376-.93 1.339-1.972 2.839-3.204 4.289-2.019 2.375-3.606 2.535-4.944 2.67-.841.084-1.583.159-2.272.767-.844.744-.811 2.688-.775 4.81.04 2.37.085 4.963-1.084 6.36-1.977 2.364-4.978-.006-7.786-2.222a91.312 91.312 0 00-1.003-.785c-3.073-2.363-9.574-1.432-9.574-1.432l3.43-2.935c8.361 1.575 16.719-5.73 15.006-9.166-1.714-3.437-8.79-2.006-8.79-2.006 2-2.113 3.223-2.381 5.372-2.852a42.173 42.173 0 002.417-.585c18.834-5.243 13.344-12.114 8.275-18.457-2.118-2.65-4.163-5.208-4.328-7.517l12.995 12.267zm-50.09-21.304C249.587 6.087 256.518 0 256.518 0c-3.364 5.37-4.578 9.882-4.007 15.252.572 5.37-.211 8.162-3.426 11.384-3.214 3.221-5.145 7.518-3.287 10.956 1.857 3.437 1.358 7.447 1.358 7.447-6.644 4.297-7.002 13.675-7.002 13.675s-1.715-2.218-4.43-2.362c-2.716-.145-6.075 4.582-6.075 4.582-.196-1.257.878-3.183 1.981-5.163.907-1.627 1.834-3.29 2.092-4.647.572-3.007-1.571-3.937-3.501-2.864-.791.44-1.713 1.217-2.527 1.902-1.172.986-2.117 1.783-2.117 1.107 0-.428.588-1.396 1.419-2.762 1.392-2.29 3.465-5.698 4.584-9.555l.09-.312c1.74-6.001 3.031-10.457 5.771-12.217l.464-.297c2.767-1.767 6.55-4.182 6.752-7.366.027-.422.046-.804.064-1.158.122-2.476.178-3.595 2.365-7.29zM194.86 44.889c-.215 5.227-3.716 8.306-3.716 8.306 5.45-1.885 8.976-5.63 11.174-7.965.971-1.032 1.682-1.787 2.186-1.985 1.642-.646 2.502 2.29 2.858 7.734.356 5.443-4.858 18.545-4.858 18.545 5.787-5.226 11.718-12.46 12.075-21.91.116-3.053.075-5.507.041-7.54-.072-4.264-.112-6.676 1.388-8.858 2.215-3.223 9.36.43 9.36.43s-.072-1.288.787-4.369c.612-2.196 4.092-5.774 7.049-8.814 1.191-1.224 2.297-2.361 3.097-3.286 2.786-3.221 1.643-6.158 1.643-6.158l-43.084 35.87zm-4.571-5.801l-21.078 23.414c.057-.063 3.93 3.437 3.93 3.437l6.931-10.741 3.787 1.647c.571-5.942 6.43-17.757 6.43-17.757z" fill="#fff"/><path d="M157.137 61.213s4.5-5.728 8.359-4.582c0 0-4.144 4.224-8.359 4.582zm.87 151.701l3.045 2.746c-4.489 4.076-9.42 6.113-14.813 6.113-5.796 0-10.737-2.047-14.813-6.133-4.077-4.085-6.111-9.026-6.111-14.835 0-5.768 2.034-10.7 6.111-14.805 4.076-4.105 9.017-6.163 14.813-6.163 5.393 0 10.324 2.058 14.813 6.173l-3.045 2.707c-3.585-3.17-7.515-4.755-11.768-4.755-4.646 0-8.615 1.644-11.906 4.932-3.291 3.288-4.931 7.255-4.931 11.911 0 4.676 1.64 8.654 4.931 11.951 3.291 3.298 7.26 4.952 11.906 4.952 4.253 0 8.183-1.595 11.768-4.794zm7.564-32.584h4.057v15.081c.983-.935 2.898-1.408 5.757-1.408 3.074 0 5.589.975 7.544 2.934 1.955 1.959 2.967 4.41 3.025 7.353v17.021h-4.056v-16.784c0-1.792-.649-3.318-1.936-4.568-1.287-1.26-2.809-1.89-4.577-1.89-1.759 0-3.281.61-4.568 1.841-.58.581-.973 1.092-1.189 1.555v19.846h-4.057V180.33zm39.49 12.945c3.968 0 7.347 1.398 10.127 4.203 2.78 2.796 4.175 6.182 4.175 10.159 0 3.968-1.395 7.354-4.175 10.159-2.78 2.806-6.159 4.204-10.127 4.204-3.959 0-7.329-1.398-10.128-4.204-2.8-2.805-4.204-6.191-4.204-10.159 0-3.977 1.404-7.363 4.204-10.159 2.799-2.805 6.169-4.203 10.128-4.203zm0 4.154c-2.8 0-5.197 1.004-7.181 3.002-1.985 1.999-2.977 4.401-2.977 7.206 0 2.806.992 5.208 2.967 7.187 1.975 1.978 4.371 2.972 7.191 2.972 2.799 0 5.196-.994 7.18-2.972 1.985-1.979 2.977-4.381 2.977-7.187 0-2.805-.992-5.207-2.977-7.206-1.984-1.998-4.381-3.002-7.18-3.002zm40.511 16.065l4.086 1.526c-.943 1.27-1.69 2.186-2.24 2.747-2.799 2.825-6.188 4.233-10.166 4.233-3.95 0-7.329-1.398-10.128-4.204-2.8-2.805-4.205-6.201-4.205-10.188 0-3.958 1.405-7.334 4.205-10.13 2.799-2.805 6.178-4.203 10.128-4.203 3.978 0 7.357 1.407 10.137 4.213.57.561 1.326 1.467 2.269 2.737l-4.086 1.506c-.501-.62-.884-1.063-1.15-1.329-1.974-1.979-4.371-2.973-7.17-2.973-2.8 0-5.187.994-7.162 2.983-1.974 1.998-2.966 4.39-2.966 7.196 0 2.825.992 5.237 2.966 7.216 1.975 1.978 4.362 2.972 7.162 2.972 2.799 0 5.206-1.004 7.2-3.002.245-.246.619-.679 1.12-1.3zm21.984-20.219c3.969 0 7.348 1.398 10.128 4.203 2.78 2.796 4.175 6.182 4.175 10.159 0 3.968-1.395 7.354-4.175 10.159-2.78 2.806-6.159 4.204-10.128 4.204-3.959 0-7.328-1.398-10.127-4.204-2.8-2.805-4.205-6.191-4.205-10.159 0-3.977 1.405-7.363 4.205-10.159 2.799-2.805 6.168-4.203 10.127-4.203zm0 4.154c-2.799 0-5.196 1.004-7.181 3.002-1.984 1.999-2.976 4.401-2.976 7.206 0 2.806.992 5.208 2.967 7.187 1.974 1.978 4.371 2.972 7.19 2.972 2.8 0 5.197-.994 7.181-2.972 1.984-1.979 2.976-4.381 2.976-7.187 0-2.805-.992-5.207-2.976-7.206-1.984-1.998-4.381-3.002-7.181-3.002zm23.586-17.099v40.981h-4.057V180.33h4.057zm33.645 40.981h-4.067v-3.032c-2.662 2.481-5.983 3.721-9.951 3.721-3.959 0-7.328-1.398-10.128-4.204-2.8-2.805-4.204-6.191-4.204-10.159 0-3.977 1.404-7.363 4.204-10.159 2.8-2.805 6.169-4.203 10.128-4.203 3.968 0 7.289 1.23 9.951 3.691v-1.526h4.067v25.871zm-4.067-11.597v-4.154c-.364-1.919-1.277-3.632-2.761-5.129-1.994-1.998-4.391-3.002-7.19-3.002-2.8 0-5.197 1.004-7.181 3.002-1.984 1.999-2.976 4.401-2.976 7.206 0 2.806.982 5.208 2.956 7.187 1.975 1.978 4.381 2.972 7.201 2.972 2.799 0 5.196-1.004 7.19-3.002 1.484-1.487 2.397-3.18 2.761-5.08zm12.436-14.274v-10.237h4.027v10.237h4.893v4.066h-4.893v21.805h-4.027v-21.805h-4.892v-4.066h4.892zm16.336 7.787h18.536c-.226-.728-.903-1.663-2.014-2.796-1.994-1.998-4.4-3.002-7.2-3.002-2.819 0-5.216 1.004-7.191 3.002-1.188 1.211-1.905 2.137-2.131 2.796zm-.894 4.095c.039 3.022 1.051 5.523 3.025 7.502 1.975 1.978 4.372 2.972 7.191 2.972 2.8 0 5.206-1.004 7.2-3.002.344-.345.796-.876 1.376-1.585l4.037 1.408a15.524 15.524 0 01-2.475 3.15c-2.78 2.825-6.16 4.233-10.138 4.233-3.949 0-7.328-1.398-10.128-4.204-2.799-2.805-4.204-6.191-4.204-10.159 0-3.977 1.405-7.363 4.204-10.159 2.8-2.805 6.179-4.203 10.128-4.203 3.978 0 7.367 1.407 10.167 4.213 2.466 2.5 3.703 5.779 3.703 9.834h-24.086z" fill="#fff"/></svg>