<svg width="1410" height="591" fill="none" xmlns="http://www.w3.org/2000/svg"><path d="M467.697 243.936a388.13 388.13 0 00-7.484-20.854c-1.631-4.126-3.295-8.252-5.054-12.378a153.053 153.053 0 00-8.731-16.76c-2.559-4.286-5.374-8.571-8.444-12.921-7.133-10.075-15.672-17.24-25.619-21.558-8.828-3.166-20.055-3.902-33.776-2.175-13.689 1.696-26.131 5.758-37.326 12.218-11.194 6.461-17.495 15.225-18.838 26.291-.224 8.604 1.599 16.984 5.437 25.108l3.742 8.828c4.286 8.827 7.581 17.751 9.851 26.803 2.239 9.275 2.815 18.934 1.696 29.009-1.12 10.075-6.333 17.464-15.609 22.229-8.38 3.615-17.655 2.815-27.826-2.398a1121.654 1121.654 0 01-55.653-31.889c-.447-.224-1.023-.448-1.695-.703a1032.7 1032.7 0 00-63.808-36.814c-21.942-11.643-44.682-20.534-68.191-26.643-13.593-3.838-27.89-5.502-42.923-4.926-15.032.576-28.658 4.926-40.876 13.05-12.89 9.723-21.94 22.325-27.154 37.837-5.214 15.481-8.828 31.153-10.843 46.985a779.084 779.084 0 00-9.5 125.538v11.898c-.223 18.551.065 37.262.832 56.165.8 18.902 3.103 37.166 6.973 54.789a131.224 131.224 0 0015.608 40.716c7.453 12.666 17.656 22.389 30.545 29.169 23.733 10.427 48.616 14.042 74.651 10.875 5.886-.448 11.835-1.759 17.816-3.902 5.981-2.143 10.906-5.693 14.776-10.683 2.943-4.989 4.286-10.97 4.062-17.975-.223-7.004-1.119-14.361-2.718-22.069-2.495-11.322-3.231-21.493-2.207-30.545 1.023-9.052 7.164-14.809 18.487-17.303 6.557-.672 13.017.223 19.35 2.718a163.387 163.387 0 0137.998 20.694 395.04 395.04 0 0133.935 27.826 505.807 505.807 0 0031.216 25.62c10.619 8.028 22.165 14.776 34.639 20.182 15.385 6.109 30.929 8.028 46.665 5.757 15.737-2.271 29.714-9.276 41.9-21.046 12.186-12.186 22.133-26.067 29.905-41.707.448-.928.896-1.823 1.343-2.751a445.182 445.182 0 0018.903-41.739c14.329-36.526 24.052-75.419 29.266-116.711 7.164-56.068 2.079-110.697-15.321-163.855z" fill="#fff"/><path d="M454.161 402.546c-.224 1.983-.448 3.998-.704 5.981v.064c-1.055 8.507-2.367 16.887-3.87 25.203-2.911 16.312-6.621 32.24-11.163 47.753-1.535 5.245-3.134 10.427-4.861 15.544-4.83 14.553-10.363 28.69-16.632 42.411a398.941 398.941 0 01-8.668 17.847l-.224.448-.224.448a112.36 112.36 0 01-3.166 6.205c-5.949 11.067-13.369 21.11-22.133 29.905-2.239 2.143-4.542 4.03-6.909 5.629-5.789 3.967-11.962 6.397-18.742 7.357a59.36 59.36 0 01-8.54.64c-7.613 0-15.065-1.472-22.773-4.446-10.107-4.446-19.606-10.011-28.242-16.536a169.97 169.97 0 01-2.879-2.175 477.132 477.132 0 01-26.387-21.813c-8.827-8.092-18.071-15.833-27.538-23.157a345.062 345.062 0 00-8.732-6.557c-13.785-10.075-28.786-18.263-44.65-24.34-8.316-3.23-16.984-4.893-25.683-4.893-2.367 0-4.798.128-7.165.383l-1.663.16-1.631.352c-20.822 4.606-35.311 17.688-39.916 35.695-.576 2.207-.992 4.509-1.28 6.844-1.119 9.915-.703 20.726 1.184 32.176.415 2.527.927 5.054 1.471 7.645 1.215 6.045 1.919 11.738 2.079 16.983v.448c-3.359 1.184-6.653 1.887-9.787 2.111l-.64.064-.64.064c-4.893.576-9.755.896-14.489.896-15.256 0-29.649-2.975-43.946-9.084-4.03-2.207-7.58-4.862-10.715-8.028-2.814-2.815-5.277-6.045-7.42-9.691a103.407 103.407 0 01-9.755-22.229 95.97 95.97 0 01-2.4-9.5l-.095-.415a283.764 283.764 0 01-4.638-28.147c-.831-7.132-1.375-14.36-1.695-21.653a974.87 974.87 0 01-.48-13.785c-.32-11.227-.48-22.421-.415-33.488 0-2.462.032-4.893.064-7.324v-12.41c-.032-5.437 0-10.875.095-16.312a761.22 761.22 0 011.728-40.076 747.666 747.666 0 013.518-36.942 719.31 719.31 0 013.806-27.506l.064-.416.064-.416c.352-2.719.736-5.405 1.183-8.124 1.887-11.163 4.702-22.325 8.38-33.296.64-1.855 1.312-3.614 2.111-5.341 3.263-7.165 7.964-13.082 14.297-18.007 7.516-4.862 15.768-7.389 25.108-7.74 1.567-.064 3.134-.096 4.67-.096 10.203 0 20.022 1.343 29.233 3.934l.288.096.288.064c6.013 1.535 11.962 3.326 17.911 5.309 15.001 4.99 29.745 11.322 43.978 18.871a1066.664 1066.664 0 0134.064 18.934 1079.248 1079.248 0 0127.922 16.824l2.879 1.823 1.439.48a1086.65 1086.65 0 0027.954 16.472c8.828 5.053 17.783 9.979 26.739 14.777l.224.128.256.128c10.107 5.181 20.342 7.804 30.321 7.804 7.708 0 15.224-1.536 22.325-4.638l.863-.384.832-.416a63.57 63.57 0 007.58-4.573c9.851-6.909 16.952-16.312 20.79-27.443a58.191 58.191 0 002.879-12.889c1.023-9.116.991-18.072-.096-26.835a112.94 112.94 0 00-2.239-12.314l-.032-.192c-2.687-10.683-6.557-21.398-11.547-31.761l-3.678-8.699-.288-.576c-1.599-3.358-2.463-6.653-2.622-10.043.351-.832 1.343-1.983 4.222-3.646 7.868-4.542 16.471-7.325 26.387-8.54 3.582-.448 6.908-.672 9.883-.672 4.701 0 7.772.544 9.659 1.12 4.638 2.207 8.732 5.917 12.474 11.226 5.917 8.38 10.714 16.6 14.201 24.5 4.35 10.203 8.252 20.534 11.578 30.673a329.924 329.924 0 016.493 22.389c4.35 17.112 7.356 34.415 8.988 51.91a359.51 359.51 0 011.311 21.142c.735 16.472.064 33.04-1.791 49.704z" fill="#F3EDF3"/><path d="M1433.89 623.333c.7-11.898.22-23.7-1.48-35.375l-.83-8.347a303.392 303.392 0 00-6.33-40.716c-11.42-49.704-24.95-99.024-40.59-147.992-22.32-72.316-48.52-126.689-78.62-163.087-.86-1.056-1.72-2.079-2.59-3.103a214.522 214.522 0 00-8.06-8.891c-34.6-35.983-72.6-50.056-113.99-42.22-20.05 4.158-38.38 11.707-54.98 22.613-.54.352-1.12.736-1.66 1.088a151.869 151.869 0 00-7.52 5.405c-13.62 10.395-26.32 22.069-38.06 35.023-4.61 5.053-9.02 10.299-13.34 15.736-15.32 19.351-29.42 38.701-42.34 58.051-6.11 8.924-12.06 17.976-17.76 27.187a712.747 712.747 0 00-37.129 67.775 719.89 719.89 0 00-13.37 29.457c-.288.64-.543 1.28-.831 1.919l-7.005 15.065c-5.629 11.738-11.035 24.436-16.248 38.093-5.213 13.625-8.188 27.283-8.956 40.876-.511 9.307.8 18.071 3.934 26.323a62.919 62.919 0 005.502 11.099c5.853 7.036 13.018 12.282 21.429 15.704a59.059 59.059 0 005.79 2.015c24.052 9.019 48.524 12.889 73.434 11.514a64.181 64.181 0 0018.84-3.39c6.14-2.047 10.87-5.821 14.2-11.291 1.98-4.062 3.3-8.443 4-13.145.77-6.749 3.1-12.474 6.97-17.144 3.14-2.526 6.62-4.062 10.46-4.637 3.84-.576 7.71-.704 11.55-.352 15.7.48 28.65 1.535 38.79 3.166 10.17 1.599 22.94 4.574 38.29 8.892 7.29 1.759 13.98 4.862 20.09 9.307 6.07 4.446 8.95 10.875 8.63 19.287a54.1 54.1 0 00-.54 6.109c-2.08 9.531-1.31 19.03 2.33 28.466 5.7 9.531 13.82 15.544 24.44 18.007 23.89 6.941 51.01 11.866 81.33 14.745 30.32 2.878 57.38 3.55 81.18 2.015 9.82.064 18.74-2.399 26.8-7.389 8.77-6.652 13.53-15.96 14.24-27.858zm-270.94-168.749l-.32-.064c-4.9-.959-9.47-1.631-13.76-2.047l-14.42-2.143c-2.46-.352-4.38-1.439-5.69-3.262-1.35-1.791-1.76-3.678-1.22-5.661.96-3.295 2.56-6.493 4.83-9.596.32-.607.61-1.151.93-1.567 2.14-3.806 4.83-7.164 8.03-10.139 2.65-2.591 5.78-4.798 9.4-6.685 3.58-1.855 7.48-2.398 11.74-1.535 4.83 1.184 8.44 3.582 10.74 7.229 2.31 3.646 4.16 9.659 5.57 17.975 1.41 8.348 1.31 13.529-.22 15.576-1.57 2.047-3.94 2.975-7.11 2.719-3.23-.16-6.04-.448-8.5-.8z" fill="#fff"/><path d="M1404.8 621.574c.61-9.883.2-19.766-1.21-29.394l-.1-.671-.89-9.02-.03-.352c-1.06-12.25-3.01-24.627-5.73-36.781-11.19-48.649-24.63-97.617-39.95-145.593l-.09-.288c-21.11-68.446-45.74-119.877-73.25-153.14a141.089 141.089 0 00-3.39-3.998 160.594 160.594 0 00-5.79-6.301c-19.41-20.182-38.92-31.505-59.62-34.543-8.86-1.312-18.2-1.056-27.73.703-15.7 3.295-29.77 8.924-42.76 17.144-2.05 1.311-4.09 2.655-6.08 4.094-1.12.8-2.2 1.599-3.29 2.431-16.92 12.921-32.46 28.274-46.22 45.673-14.77 18.647-28.53 37.518-40.97 56.133l-.22.319c-22.01 32.081-41.46 66.4-57.895 102.286a623.619 623.619 0 00-8.348 18.903l-.192.48-4.222 9.051-3.167 6.781c-5.213 10.906-10.362 22.997-15.32 35.886-4.126 10.779-6.493 21.558-7.069 32.08-.383 6.909.896 12.89 3.998 18.583.448.48.928.928 1.408 1.344 2.878 2.622 6.237 4.413 10.331 5.629l1.023.288.992.383c7.932 2.975 15.992 5.31 24.02 6.941 2.655.544 5.309 1.024 7.961 1.407 9.73 1.44 19.71 1.887 29.59 1.344l.7-.032c3.01-.096 5.89-.544 8.77-1.376.09-.383.19-.831.25-1.247 1.5-12.186 6.01-22.901 13.44-31.824l1.85-2.239 2.27-1.823c7.17-5.789 15.39-9.404 24.47-10.779 5.79-.864 11.67-1.056 17.46-.64 15.77.512 28.72 1.535 39.6 3.167.73.096 1.44.224 2.14.319 11.23 1.792 24.69 4.894 41.13 9.5a85.389 85.389 0 0129.81 13.945c13.95 10.171 21.27 25.779 20.6 43.914l-.06 1.568-.23 1.567c-.13.927-.22 1.887-.25 2.846l-.1 2.655-.57 2.591c-.68 3.07-.61 6.045.22 9.179 1.21 1.408 2.62 2.175 4.73 2.687l.77.192.74.224c14.93 4.35 31.6 7.9 49.51 10.523a518.833 518.833 0 0026.38 3.198c28.66 2.687 54.44 3.358 76.58 1.951l1.02-.064h1.02c3.74.032 6.94-.672 9.92-2.239 1.05-.799 1.85-2.239 2.04-5.565zM1201.7 470.32c-7.58 10.011-19.41 15.193-32.49 14.201a158.29 158.29 0 01-10.52-1.119l-1-.16-.64-.128c-2.01-.384-3.96-.704-5.82-.991-1.79-.256-3.48-.48-5.11-.64l-.77-.064-15.19-2.239c-10.11-1.503-18.91-6.717-24.82-14.713-6.59-8.859-8.8-19.926-6.02-30.449l.07-.32.09-.287c1.7-5.949 4.45-11.675 8.13-17.016.25-.48.54-.928.83-1.375a72.328 72.328 0 0112.76-15.992c4.61-4.446 10.01-8.284 16.02-11.387 8.7-4.51 18.49-6.141 28.31-4.702.86.128 1.76.288 2.62.448l.55.096.54.128c12.25 2.975 22.13 9.883 28.5 19.958 4.51 7.133 7.58 16.248 9.69 28.722 2.08 12.378 3.01 26.515-5.73 38.029z" fill="#F3EDF3"/><path d="M676.421 240.417c-.288-10.81-2.814-20.821-7.548-29.969a112.822 112.822 0 00-2.111-3.806c-4.99-6.973-11.035-12.666-18.199-17.112a95.342 95.342 0 00-3.006-1.759 133.743 133.743 0 00-26.643-11.034c-29.874-8.828-60.419-12.666-91.635-11.547-22.389.224-43.563 5.342-63.457 15.289-6.621 3.934-12.41 8.412-17.431 13.401-6.461 6.429-11.547 13.722-15.321 21.878a123.308 123.308 0 00-3.934 9.499c-4.382 11.802-7.196 24.404-8.444 37.837-.32 3.55-.639 7.357-.927 11.419-.832 12.314-1.472 27.026-1.887 44.106-.096 4.414-.192 8.956-.256 13.657-.064 4.286-.128 8.572-.128 12.89a1494.55 1494.55 0 00.384 44.554c.255 10.971.639 22.101 1.119 33.359.064 1.536.128 3.039.224 4.542.768 17.016 1.631 32.816 2.655 47.433.479 6.845.959 13.433 1.471 19.734.288 3.614.608 7.165.927 10.587a743.739 743.739 0 001.824 17.399c1.855 15.321 4.094 27.891 6.652 37.742a90.28 90.28 0 002.687 8.476c3.646 9.819 8.924 18.519 15.8 26.131 7.453 7.708 16.056 13.465 25.779 17.303a155.727 155.727 0 0029.874 8.476c27.602 5.406 55.524 7.005 83.798 4.766a130.704 130.704 0 0035.119-7.644c10.299-3.775 18.743-10.012 25.268-18.679a47.054 47.054 0 002.047-2.879c4.733-7.676 7.58-16.12 8.476-25.267l.479-5.278c.544-7.42.736-14.872.576-22.357a2065.557 2065.557 0 0113.913-266.717c1.599-11.93 2.207-24.116 1.855-36.43z" fill="#fff"/><path d="M563.882 597.586c-17.848 0-35.823-1.76-53.35-5.214l-.256-.064-.256-.032c-8.252-1.471-16.408-3.806-24.308-6.908-5.757-2.271-10.715-5.598-15.225-10.139-5.501-6.173-9.307-13.402-11.578-22.07-3.102-11.77-5.661-28.721-7.644-50.375-2.111-22.836-3.838-50.055-5.182-80.888-1.343-30.769-1.791-60.738-1.343-89.076.448-28.242 1.439-50.759 2.943-66.975 1.279-13.721 4.573-26.451 9.819-37.837 4.062-8.828 10.747-16.025 20.342-21.942 15.736-7.708 32.016-11.514 49.703-11.706h.768c3.167-.128 6.365-.16 9.499-.16 24.66 0 49.16 3.55 72.829 10.523l.063.032a105.571 105.571 0 0120.822 8.636c4.286 2.335 7.836 5.405 10.811 9.275 3.134 5.597 4.734 11.674 4.926 18.551.287 10.715-.256 21.429-1.632 31.888l-.064.384c-10.522 89.524-15.256 180.519-14.105 270.491v.32c.192 8.06-.096 16.184-.895 24.116-.448 4.542-1.759 8.604-3.998 12.378-3.295 4.797-7.389 7.932-12.826 9.947-8.86 3.23-18.039 5.245-27.315 5.949h-.096c-7.42.608-15 .896-22.452.896z" fill="#F3EDF3"/><path d="M1004.67 369.602c4.89-6.333 10.2-12.378 15.86-18.135 4.16-3.902 7.45-7.452 9.91-10.619.8-1.087 1.6-2.175 2.4-3.294a311.703 311.703 0 0032.82-57.348c6.78-15.576 9.66-31.153 8.67-46.729a62.455 62.455 0 00-2.69-14.617c-3.1-9.947-8.73-19.286-16.85-28.018-9.5-10.107-21.79-18.935-36.82-26.483-15.03-7.548-30.608-12.154-46.696-13.817-16.088-1.663-30.609 1.599-43.434 9.723-7.773 5.661-14.074 12.474-18.935 20.406a156.976 156.976 0 00-12.346 24.788c-13.338 35.278-32.208 67.487-56.676 96.592-1.311 1.823-2.879 3.295-4.766 4.414-1.887 1.119-3.774 1.375-5.725.768-6.301-3.295-9.563-10.715-9.787-22.261-.224-11.547.448-22.837 2.047-33.904 1.055-7.292 1.503-12.761 1.375-16.408-.16-13.273-3.198-24.851-9.115-34.767-5.917-9.915-15.928-15.832-30.002-17.847-31.856-2.654-63.552-.767-95.057 5.661-16.887 3.295-32.464 8.988-46.697 16.984-9.659 5.437-17.911 12.602-24.788 21.526-3.262 4.221-6.205 8.859-8.827 13.881a120.722 120.722 0 00-5.182 12.026c-5.501 14.681-8.284 30.353-8.444 47.049-.192 21.365 1.248 41.771 4.286 61.217.8 4.702 1.44 9.276 1.983 13.786a1588.454 1588.454 0 0016.568 102.509c6.685 34.223 17.272 69.246 31.793 105.101 3.55 8.731 7.932 16.791 13.113 24.244a119.041 119.041 0 0017.368 19.862 77.428 77.428 0 005.917 4.446c10.267 6.972 21.781 10.97 34.511 11.994 15.224 1.215 30.608-.064 46.153-3.806 15.544-3.775 29.777-8.22 42.667-13.37 26.771-11.162 40.3-30.993 40.588-59.459.064-2.302-.128-6.173-.576-11.61-.639-6.525-1.343-14.777-2.111-24.756-.767-9.979-.671-17.975.288-23.956.928-6.013 3.167-9.435 6.717-10.267 3.198-.064 5.789 1.343 7.74 4.19 1.983 2.879 3.742 6.141 5.277 9.787.864 2.399 1.76 4.318 2.687 5.757 14.553 22.549 32.848 41.836 54.821 57.86 13.337 9.691 27.347 17.367 42.059 23.029 14.713 5.661 30.577 7.868 47.556 6.62 16.64-1.759 31.41-6.524 44.37-14.233 4.41-2.622 8.63-5.629 12.63-8.955a127.368 127.368 0 0019.86-20.822c6.53-8.54 12.06-18.071 16.57-28.53 8.86-20.982 9.6-38.029 2.24-51.111-7.36-13.081-18.71-24.212-34-33.327-4.8-2.623-11.23-6.013-19.25-10.171-3.65-1.759-7.3-3.583-10.91-5.502-9.02-4.765-17.94-10.043-26.77-15.832-.19-.128-.39-.256-.55-.384-12.02-8.028-18.962-16.727-20.753-26.131-.32-5.533 2.015-11.418 6.913-17.751z" fill="#fff"/><path d="M1017.05 572.542c-1.75.288-3.58.544-5.43.768-12.572.863-23.863-.704-34.514-4.766-12.282-4.734-24.18-11.258-35.406-19.414-18.743-13.658-34.575-30.321-47.049-49.48-.032-.096-.096-.224-.16-.384l-.288-.768-.319-.735a85.34 85.34 0 00-8.093-14.937c-7.548-11.034-19.414-17.175-32.496-16.855l-3.006.063-2.911.672c-5.725 1.344-24.756 7.772-28.85 34.159-1.279 8.252-1.471 18.295-.543 30.641.735 9.915 1.471 18.391 2.143 25.204.511 6.141.479 8.06.479 8.156v.544c-.159 16.855-6.46 26.067-22.453 32.783-11.482 4.574-24.435 8.604-38.508 12.027a123.067 123.067 0 01-8.796 1.791c-9.467 1.599-18.935 2.015-28.178 1.279-8.956-.736-16.696-3.774-23.637-9.371-9.883-9.244-17.303-20.054-22.612-33.072-13.754-33.935-23.893-67.487-30.194-99.695-6.524-33.328-11.994-67.135-16.248-100.495a290.954 290.954 0 00-2.143-14.872c-2.782-17.783-4.094-36.718-3.902-56.293.16-16.951 3.583-32.048 10.459-46.121 5.533-10.427 12.698-18.039 21.909-23.22 11.483-6.461 24.276-11.099 37.998-13.786l.224-.032c3.55-.735 7.164-1.407 10.714-1.983a304.903 304.903 0 0175.163-3.262c6.717 1.087 7.932 3.134 8.348 3.838 3.263 5.437 4.894 12.058 4.99 20.214v.416l.032.416c0 .128.096 2.846-1.088 10.97v.064a240.82 240.82 0 00-2.335 38.573c.576 30.097 16.184 42.699 25.428 47.529l2.335 1.215 2.527.768c5.437 1.695 11.002 2.079 16.567 1.119a36.707 36.707 0 0012.762-4.733c4.958-2.975 9.18-6.781 12.666-11.355 26.131-31.28 46.665-66.335 60.994-104.172a127.53 127.53 0 0110.011-20.055c2.719-4.413 6.141-8.188 10.459-11.482 3.902-2.335 7.964-3.838 12.346-4.574 3.614-.607 7.58-.703 11.738-.288 12.666 1.312 24.628 4.862 36.587 10.875 11.87 5.981 21.53 12.826 28.63 20.374 7.45 7.996 11.16 15.8 11.74 24.596.7 10.939-1.35 21.781-6.27 33.136a284.477 284.477 0 01-31.7 54.661c-1.09 1.343-3.07 3.646-6.68 7.036l-.42.384-.383.416a232.117 232.117 0 00-18.135 20.758c-9.211 11.93-13.593 24.308-13.049 36.782l.096 2.143.415 2.079c3.359 17.527 14.777 32.815 33.936 45.385 13.27 8.732 26.96 16.472 40.65 23.061 7.29 3.774 13.28 6.94 17.82 9.403 10.71 6.461 18.26 13.785 23.09 22.325 2.56 4.542 1.25 13.785-3.61 25.364-6.82 15.64-16.09 28.21-28.31 38.413-9.92 8.284-21.53 13.465-35.54 15.8zM631.434 100.646c0 32.433-20.375 60.067-49.032 70.846-8.284 3.134-17.24 4.829-26.643 4.829-10.523 0-20.566-2.143-29.682-6.045-27.026-11.546-45.993-38.349-45.993-69.63 0-41.771 33.871-75.674 75.675-75.674 41.803 0 75.675 33.871 75.675 75.674z" fill="#F3EDF3"/><path d="M617.607 110.965c0 28.178-18.839 46.153-35.215 56.452-18.519 10.875-32.912 18.455-44.138 23.508a93.373 93.373 0 01-20.118-6.077c-2.783-1.183-5.47-2.462-8.06-3.902 8.315-2.462 18.423-6.045 28.785-10.618 26.963-11.963 55.717-30.737 59.427-54.086 5.789-49.383-44.17-50.535-44.17-50.535s-33.871 4.222-33.871 32.816c2.398 27.251 26.706 24.596 26.706 24.596s17.976-.512 17.976-14.553-13.498-8.988-15.609-7.165c0 0-12.186 2.655-12.698-7.676-.543-10.33 12.602-15.256 18.519-15.608 5.917-.352 29.65 3.166 29.65 31.728 0 28.594-30.705 32.816-35.439 32.816-4.765 0-46.825-3.422-46.825-42.571s31.729-54.245 56.069-54.245c24.34.032 59.011 15.352 59.011 65.12z" fill="#fff"/><path d="M554.874.62c-52.902 0-95.921 43.05-95.921 95.952a95.811 95.811 0 0050.247 84.375 99.049 99.049 0 008.06 3.902 93.967 93.967 0 0020.119 6.045 96.517 96.517 0 0017.495 1.599 96.098 96.098 0 0033.775-6.109c18.071-6.781 33.552-18.775 44.714-34.607 11.419-16.216 17.464-35.311 17.464-55.205 0-52.934-43.051-95.953-95.953-95.953zm26.611 166.797c-8.284 3.135-17.24 4.83-26.611 4.83-10.555 0-20.566-2.143-29.681-6.045-27.027-11.546-45.994-38.349-45.994-69.63 0-41.803 33.872-75.675 75.675-75.675s75.643 33.872 75.643 75.675c0 32.432-20.374 60.067-49.032 70.845z" fill="#fff"/></svg>