<svg width="720" height="326" fill="none" xmlns="http://www.w3.org/2000/svg"><path d="M241.796 120.388a190.884 190.884 0 00-3.703-10.318 250.12 250.12 0 00-2.5-6.125 75.943 75.943 0 00-4.32-8.292 99.976 99.976 0 00-4.178-6.393c-3.529-4.985-7.754-8.53-12.676-10.666-4.368-1.567-9.922-1.931-16.711-1.077-6.773.84-12.929 2.849-18.468 6.046-5.539 3.196-8.656 7.532-9.321 13.008-.111 4.257.791 8.403 2.69 12.423l1.852 4.367c2.12 4.368 3.75 8.783 4.874 13.262 1.108 4.589 1.392 9.368.839 14.353-.554 4.985-3.134 8.641-7.723 10.998-4.146 1.789-8.736 1.393-13.768-1.186a556.174 556.174 0 01-27.536-15.778 9.486 9.486 0 00-.838-.348 510.737 510.737 0 00-31.571-18.215c-10.856-5.76-22.108-10.16-33.74-13.182-6.725-1.899-13.799-2.722-21.237-2.437-7.438.285-14.18 2.437-20.224 6.456-6.378 4.811-10.856 11.046-13.436 18.722-2.58 7.659-4.367 15.413-5.364 23.247a385.46 385.46 0 00-4.7 62.113v5.887a527.73 527.73 0 00.41 27.789c.397 9.353 1.536 18.389 3.45 27.108a64.932 64.932 0 007.723 20.146c3.688 6.266 8.736 11.077 15.113 14.432 11.743 5.159 24.055 6.947 36.936 5.381 2.912-.222 5.856-.871 8.815-1.931 2.96-1.06 5.396-2.817 7.311-5.286 1.456-2.468 2.12-5.428 2.01-8.893-.111-3.466-.554-7.106-1.345-10.92-1.235-5.602-1.599-10.634-1.092-15.113.506-4.478 3.544-7.327 9.147-8.561 3.244-.332 6.44.111 9.574 1.345a80.868 80.868 0 0118.8 10.239 195.155 195.155 0 0116.79 13.768 250.563 250.563 0 0015.446 12.676 83.1 83.1 0 0017.138 9.985c7.612 3.023 15.303 3.972 23.089 2.849 7.786-1.124 14.702-4.589 20.731-10.413 6.029-6.029 10.951-12.898 14.796-20.636.222-.459.444-.902.665-1.361a220.48 220.48 0 009.353-20.652c7.089-18.072 11.9-37.315 14.48-57.745 3.545-27.742 1.028-54.771-7.581-81.072z" fill="#fff"/><path d="M235.101 198.864c-.111.981-.222 1.978-.349 2.96v.031a227.737 227.737 0 01-1.914 12.47 224.193 224.193 0 01-5.523 23.627 197.21 197.21 0 01-2.406 7.691 208.143 208.143 0 01-8.229 20.984 198.03 198.03 0 01-4.288 8.831l-.111.221-.111.222a55.714 55.714 0 01-1.567 3.07 63.485 63.485 0 01-10.951 14.796 26.072 26.072 0 01-3.418 2.786c-2.864 1.962-5.918 3.165-9.273 3.639a29.35 29.35 0 01-4.226.317c-3.766 0-7.453-.728-11.267-2.2a69.878 69.878 0 01-13.974-8.181 93.533 93.533 0 01-1.424-1.077 235.704 235.704 0 01-13.056-10.792 213.572 213.572 0 00-13.625-11.458 173.74 173.74 0 00-4.32-3.244 95.103 95.103 0 00-22.092-12.043c-4.115-1.598-8.403-2.421-12.708-2.421-1.17 0-2.373.063-3.544.19l-.823.079-.807.174c-10.303 2.279-17.471 8.752-19.75 17.661a26.108 26.108 0 00-.633 3.387c-.554 4.905-.348 10.254.585 15.92.206 1.25.46 2.5.728 3.782.602 2.991.95 5.808 1.029 8.403v.221c-1.662.586-3.292.934-4.843 1.045l-.316.032-.317.031a61.554 61.554 0 01-7.168.443c-7.549 0-14.67-1.471-21.744-4.494a22.77 22.77 0 01-5.301-3.972c-1.393-1.393-2.611-2.991-3.672-4.795a51.173 51.173 0 01-4.827-10.998 47.553 47.553 0 01-1.186-4.701l-.048-.205a140.42 140.42 0 01-2.295-13.926c-.41-3.529-.68-7.106-.838-10.714a483.163 483.163 0 01-.238-6.821 484.73 484.73 0 01-.205-16.568c0-1.219.016-2.422.031-3.624v-6.141a376.77 376.77 0 01.902-27.899 369.827 369.827 0 011.741-18.278 355.863 355.863 0 011.883-13.61l.032-.205.032-.206c.174-1.345.364-2.675.585-4.02a109.165 109.165 0 014.146-16.474c.317-.918.65-1.788 1.045-2.642 1.614-3.545 3.94-6.473 7.074-8.91 3.718-2.405 7.801-3.656 12.422-3.83a58.065 58.065 0 012.31-.047c5.049 0 9.907.665 14.465 1.946l.142.048.143.031a129.08 129.08 0 018.862 2.627 142.559 142.559 0 0121.76 9.337 527.099 527.099 0 0116.853 9.369 532.296 532.296 0 0113.815 8.324l1.425.902.712.237a539.487 539.487 0 0013.831 8.15c4.368 2.5 8.799 4.937 13.23 7.311l.11.064.127.063c5.001 2.563 10.065 3.861 15.002 3.861 3.814 0 7.533-.759 11.046-2.295l.427-.189.412-.206a31.502 31.502 0 003.75-2.263c4.875-3.418 8.388-8.071 10.287-13.578a28.769 28.769 0 001.424-6.378c.506-4.51.491-8.941-.047-13.277a55.878 55.878 0 00-1.108-6.092l-.016-.095a83.018 83.018 0 00-5.713-15.715l-1.82-4.304-.142-.285c-.791-1.662-1.219-3.292-1.298-4.969.174-.412.665-.981 2.089-1.804 3.893-2.247 8.15-3.624 13.056-4.225 1.772-.222 3.418-.333 4.89-.333 2.326 0 3.845.27 4.779.554 2.295 1.092 4.32 2.928 6.172 5.555 2.927 4.146 5.301 8.213 7.026 12.122a189.737 189.737 0 015.729 15.176 163.253 163.253 0 013.212 11.078 167.046 167.046 0 014.447 25.684c.317 3.481.538 6.963.649 10.46.364 8.15.031 16.347-.886 24.592z" fill="#4F2549"/><path d="M719.846 308.105a86.142 86.142 0 00-.728-17.503l-.412-4.13a150.489 150.489 0 00-3.133-20.145 911.04 911.04 0 00-20.082-73.223c-11.046-35.781-24.007-62.683-38.898-80.692-.427-.523-.855-1.029-1.282-1.535a108.522 108.522 0 00-3.988-4.4C634.2 88.674 615.4 81.711 594.922 85.588c-9.922 2.057-18.99 5.792-27.203 11.189-.269.174-.554.364-.823.537a76.406 76.406 0 00-3.719 2.675 139.925 139.925 0 00-18.832 17.328 151.165 151.165 0 00-6.599 7.786c-7.58 9.575-14.559 19.149-20.952 28.723a343.974 343.974 0 00-8.783 13.451 352.286 352.286 0 00-18.373 33.534 357.11 357.11 0 00-6.615 14.575c-.142.316-.269.633-.411.949l-3.466 7.454c-2.785 5.807-5.46 12.09-8.039 18.847-2.58 6.742-4.051 13.499-4.431 20.225-.253 4.605.395 8.941 1.946 13.024a31.125 31.125 0 002.722 5.491c2.896 3.482 6.441 6.077 10.603 7.77.934.38 1.883.712 2.864.997 11.901 4.463 24.007 6.378 36.335 5.697a31.774 31.774 0 009.321-1.677c3.038-1.013 5.38-2.88 7.026-5.586.981-2.01 1.63-4.178 1.978-6.504.38-3.34 1.535-6.172 3.45-8.483 1.551-1.25 3.276-2.01 5.175-2.294a23.77 23.77 0 015.713-.174c7.77.237 14.179.759 19.196 1.566 5.032.791 11.346 2.263 18.942 4.4a27.793 27.793 0 019.938 4.605c3.007 2.199 4.432 5.38 4.273 9.542-.142.997-.237 2.01-.269 3.023-1.028 4.716-.649 9.416 1.155 14.084 2.817 4.716 6.837 7.691 12.091 8.91 11.821 3.434 25.241 5.871 40.243 7.295 15.002 1.424 28.39 1.757 40.164.997 4.858.032 9.274-1.187 13.262-3.656 4.336-3.291 6.694-7.896 7.042-13.783zm-134.055-83.493l-.158-.032a71.052 71.052 0 00-6.805-1.013l-7.137-1.06c-1.218-.174-2.168-.712-2.817-1.614-.664-.887-.87-1.82-.601-2.801.475-1.63 1.266-3.213 2.39-4.748.158-.301.3-.57.458-.775a20.653 20.653 0 013.973-5.017c1.313-1.282 2.864-2.374 4.652-3.307 1.773-.918 3.703-1.187 5.808-.76 2.39.586 4.178 1.773 5.317 3.577 1.14 1.804 2.057 4.779 2.754 8.893.696 4.131.649 6.694-.111 7.707-.775 1.013-1.946 1.472-3.513 1.345a45.645 45.645 0 01-4.21-.395z" fill="#fff"/><path d="M705.456 307.234c.301-4.89.095-9.779-.601-14.543l-.048-.332-.443-4.463-.016-.174c-.522-6.061-1.487-12.185-2.832-18.199a904.987 904.987 0 00-19.766-72.036l-.047-.142c-10.445-33.866-22.63-59.312-36.24-75.771a71.193 71.193 0 00-1.677-1.978 78.549 78.549 0 00-2.865-3.117c-9.606-9.986-19.259-15.588-29.498-17.091-4.383-.65-9.004-.523-13.72.348-7.77 1.63-14.733 4.415-21.158 8.482a62.502 62.502 0 00-3.007 2.026c-.554.395-1.092.791-1.63 1.202-8.371 6.394-16.062 13.99-22.867 22.599-7.311 9.226-14.116 18.562-20.272 27.773l-.111.158c-10.888 15.872-20.509 32.853-28.643 50.609a309.012 309.012 0 00-4.131 9.352l-.095.238-2.088 4.478-1.567 3.355c-2.58 5.396-5.128 11.378-7.58 17.756-2.042 5.333-3.213 10.666-3.498 15.872-.19 3.419.443 6.378 1.978 9.195.222.237.459.459.697.664 1.424 1.298 3.086 2.184 5.111 2.786l.507.142.49.19a78.371 78.371 0 0011.885 3.434c1.313.269 2.627.506 3.94.696 4.811.712 9.749.934 14.638.665l.349-.016a17.46 17.46 0 004.336-.68c.047-.19.095-.412.126-.618.744-6.029 2.975-11.33 6.647-15.746l.918-1.107 1.123-.902a24.934 24.934 0 0112.106-5.333 39.457 39.457 0 018.641-.317c7.802.253 14.211.76 19.591 1.567.364.047.713.111 1.061.158 5.554.886 12.217 2.421 20.351 4.7a42.282 42.282 0 0114.749 6.9c6.9 5.032 10.523 12.755 10.191 21.728l-.032.775-.11.776c-.064.458-.111.933-.127 1.408l-.047 1.313-.285 1.282c-.333 1.52-.301 2.991.111 4.542.601.696 1.297 1.076 2.342 1.329l.379.095.364.111c7.391 2.152 15.636 3.909 24.498 5.207a256.51 256.51 0 0013.055 1.582c14.18 1.329 26.935 1.662 37.886.965l.506-.031h.507c1.851.016 3.434-.333 4.905-1.108.522-.396.918-1.108 1.013-2.754zm-100.489-74.836c-3.751 4.953-9.606 7.516-16.079 7.026a79.021 79.021 0 01-5.206-.554l-.491-.079-.316-.063a83.547 83.547 0 00-2.88-.491 57.503 57.503 0 00-2.532-.316l-.38-.032-7.517-1.108c-5.001-.744-9.353-3.323-12.28-7.279-3.26-4.384-4.352-9.859-2.975-15.066l.031-.158.048-.143c.838-2.943 2.199-5.776 4.019-8.419.127-.237.269-.458.412-.68a35.897 35.897 0 016.314-7.913c2.279-2.199 4.953-4.098 7.928-5.633 4.305-2.232 9.147-3.039 14.006-2.327.427.064.87.143 1.297.222l.269.047.269.064c6.061 1.471 10.951 4.89 14.1 9.875 2.232 3.529 3.751 8.039 4.795 14.211 1.029 6.124 1.488 13.119-2.832 18.816z" fill="#4F2549"/><path d="M345.069 118.647c-.143-5.349-1.393-10.302-3.735-14.828a57.036 57.036 0 00-1.045-1.883c-2.468-3.45-5.459-6.267-9.004-8.467-.491-.3-.981-.585-1.488-.87a66.16 66.16 0 00-13.182-5.46c-14.781-4.368-29.894-6.267-45.339-5.713-11.077.111-21.554 2.643-31.397 7.565-3.276 1.946-6.14 4.162-8.625 6.63a37.176 37.176 0 00-7.58 10.825 60.846 60.846 0 00-1.946 4.7c-2.168 5.839-3.561 12.074-4.178 18.721a293.54 293.54 0 00-.459 5.649c-.411 6.093-.728 13.373-.934 21.823a816.351 816.351 0 00-.126 6.757 421.823 421.823 0 00-.064 6.378c-.047 7.2.016 14.543.19 22.044.127 5.428.317 10.935.554 16.506.032.76.064 1.503.111 2.247.38 8.419.807 16.237 1.313 23.469.238 3.386.475 6.646.728 9.764.143 1.788.301 3.545.459 5.238.285 3.038.586 5.919.902 8.609.918 7.58 2.026 13.799 3.292 18.673.38 1.44.823 2.833 1.329 4.194 1.804 4.858 4.416 9.163 7.818 12.929 3.687 3.814 7.944 6.663 12.755 8.562a77.026 77.026 0 0014.781 4.193c13.657 2.675 27.472 3.466 41.461 2.358a64.663 64.663 0 0017.376-3.782c5.096-1.867 9.274-4.953 12.502-9.242.348-.459.696-.934 1.013-1.424 2.342-3.798 3.75-7.976 4.194-12.502l.237-2.611c.269-3.672.364-7.359.285-11.062a1021.959 1021.959 0 016.884-131.965 111.731 111.731 0 00.918-18.025z" fill="#fff"/><path d="M289.385 295.366c-8.83 0-17.724-.871-26.396-2.58l-.127-.032-.126-.015a63.39 63.39 0 01-12.027-3.419c-2.849-1.123-5.302-2.769-7.533-5.016-2.722-3.054-4.605-6.631-5.729-10.919-1.535-5.824-2.801-14.211-3.782-24.925-1.045-11.299-1.899-24.766-2.564-40.022-.664-15.223-.886-30.051-.664-44.073.221-13.973.712-25.114 1.455-33.137.633-6.789 2.263-13.088 4.859-18.721 2.01-4.368 5.317-7.929 10.065-10.856 7.786-3.814 15.84-5.697 24.592-5.792h.38c1.566-.064 3.149-.08 4.7-.08 12.201 0 24.323 1.757 36.033 5.207l.032.016a52.151 52.151 0 0110.302 4.273c2.121 1.155 3.877 2.674 5.349 4.589 1.551 2.769 2.342 5.776 2.437 9.178a100.585 100.585 0 01-.807 15.778l-.032.19a1036.886 1036.886 0 00-6.978 133.833v.158a96.683 96.683 0 01-.444 11.932c-.221 2.247-.87 4.257-1.978 6.124-1.63 2.374-3.655 3.925-6.346 4.922a50.675 50.675 0 01-13.514 2.944h-.048c-3.671.3-7.422.443-11.109.443z" fill="#4F2549"/><path d="M507.474 182.564a100.093 100.093 0 017.849-8.972c2.057-1.931 3.687-3.688 4.906-5.254.395-.538.791-1.077 1.187-1.63a154.503 154.503 0 0016.236-28.375c3.355-7.707 4.779-15.413 4.289-23.12a30.894 30.894 0 00-1.33-7.232c-1.535-4.922-4.32-9.543-8.339-13.863-4.7-5-10.777-9.368-18.215-13.103-7.438-3.735-15.145-6.014-23.105-6.837-7.96-.823-15.144.791-21.49 4.811-3.846 2.801-6.963 6.172-9.369 10.096a77.688 77.688 0 00-6.108 12.265c-6.599 17.455-15.936 33.391-28.042 47.792a7.753 7.753 0 01-2.358 2.184c-.934.553-1.868.68-2.833.379-3.117-1.63-4.732-5.301-4.842-11.014-.111-5.713.221-11.299 1.012-16.774.523-3.609.744-6.315.681-8.119-.079-6.567-1.583-12.296-4.51-17.202-2.928-4.905-7.881-7.833-14.844-8.83-15.762-1.314-31.445-.38-47.032 2.801-8.356 1.63-16.063 4.447-23.105 8.403-4.779 2.69-8.862 6.235-12.264 10.65-1.615 2.089-3.07 4.384-4.368 6.869a59.682 59.682 0 00-2.564 5.95c-2.722 7.264-4.099 15.018-4.178 23.278-.095 10.572.618 20.668 2.121 30.29.396 2.326.712 4.589.981 6.82a785.521 785.521 0 008.198 50.72c3.307 16.933 8.545 34.261 15.73 52.001a61.487 61.487 0 006.488 11.996 58.878 58.878 0 008.593 9.827 38.308 38.308 0 002.928 2.2c5.079 3.449 10.776 5.428 17.075 5.934 7.533.601 15.144-.032 22.835-1.883 7.691-1.868 14.734-4.067 21.111-6.615 13.246-5.523 19.94-15.335 20.082-29.419.032-1.139-.063-3.054-.285-5.745a612.233 612.233 0 01-1.044-12.248c-.38-4.938-.332-8.894.142-11.853.459-2.975 1.567-4.669 3.324-5.08 1.582-.032 2.864.665 3.829 2.073.981 1.424 1.852 3.039 2.611 4.843.428 1.187.871 2.136 1.33 2.848 7.2 11.157 16.252 20.699 27.124 28.628 6.599 4.795 13.53 8.593 20.81 11.394 7.279 2.801 15.129 3.893 23.532 3.276 8.229-.871 15.54-3.229 21.949-7.043a48.532 48.532 0 006.251-4.431 63.09 63.09 0 009.828-10.302c3.228-4.225 5.966-8.941 8.197-14.116 4.384-10.381 4.747-18.816 1.108-25.288-3.64-6.473-9.258-11.98-16.822-16.49-2.374-1.298-5.555-2.975-9.527-5.032a158.45 158.45 0 01-5.396-2.722 162.93 162.93 0 01-13.246-7.834c-.095-.063-.19-.126-.269-.19-5.95-3.972-9.384-8.276-10.271-12.929-.158-2.737.997-5.649 3.419-8.783z" fill="#fff"/><path d="M513.606 282.975a64.37 64.37 0 01-2.691.379c-6.219.428-11.805-.348-17.075-2.357-6.077-2.343-11.964-5.571-17.518-9.606-9.274-6.758-17.107-15.002-23.279-24.482-.016-.047-.048-.11-.079-.19l-.143-.379-.158-.364a42.144 42.144 0 00-4.004-7.391c-3.734-5.459-9.605-8.498-16.078-8.34l-1.487.032-1.44.332c-2.833.665-12.249 3.846-14.275 16.902-.633 4.083-.728 9.052-.269 15.16.364 4.906.728 9.1 1.061 12.47.253 3.039.237 3.988.237 4.036v.269c-.079 8.34-3.197 12.897-11.109 16.22-5.682 2.263-12.091 4.257-19.054 5.951-1.44.348-2.912.648-4.352.886a56.727 56.727 0 01-13.942.633c-4.431-.364-8.26-1.867-11.694-4.637-4.89-4.573-8.562-9.922-11.189-16.363-6.804-16.79-11.821-33.391-14.938-49.327a760.684 760.684 0 01-8.04-49.722c-.285-2.39-.633-4.874-1.06-7.359-1.377-8.799-2.026-18.167-1.931-27.852.08-8.387 1.773-15.857 5.175-22.82 2.738-5.159 6.283-8.925 10.84-11.489 5.682-3.197 12.012-5.491 18.801-6.821l.11-.015c1.757-.364 3.545-.697 5.302-.982a150.862 150.862 0 0137.189-1.614c3.323.538 3.924 1.551 4.13 1.899 1.614 2.691 2.421 5.966 2.469 10.002v.205l.016.206c0 .064.047 1.409-.538 5.428v.032a119.123 119.123 0 00-1.156 19.085c.285 14.891 8.008 21.126 12.581 23.516l1.156.601 1.25.38a17.353 17.353 0 008.197.554 18.166 18.166 0 006.314-2.342 22.168 22.168 0 006.267-5.618c12.929-15.477 23.089-32.821 30.179-51.542a62.994 62.994 0 014.953-9.923c1.345-2.183 3.038-4.05 5.175-5.68 1.93-1.156 3.94-1.9 6.108-2.264 1.788-.3 3.751-.348 5.808-.142 6.267.649 12.185 2.405 18.104 5.38 5.871 2.96 10.65 6.346 14.163 10.081 3.688 3.956 5.523 7.817 5.808 12.169.348 5.413-.665 10.777-3.102 16.395a140.588 140.588 0 01-15.682 27.045c-.538.665-1.52 1.804-3.308 3.482l-.206.19-.189.205a114.761 114.761 0 00-8.973 10.271c-4.558 5.903-6.726 12.027-6.457 18.199l.048 1.06.205 1.029c1.662 8.672 7.312 16.236 16.791 22.455a174.078 174.078 0 0020.114 11.41 531.947 531.947 0 018.814 4.653c5.301 3.197 9.036 6.821 11.426 11.046 1.266 2.247.617 6.82-1.788 12.549-3.371 7.739-7.96 13.958-14.006 19.006-4.905 4.099-10.65 6.662-17.581 7.818zM322.817 49.491c0 16.047-10.08 29.72-24.259 35.053a37.12 37.12 0 01-13.183 2.39 37.24 37.24 0 01-14.685-2.992c-13.373-5.712-22.757-18.974-22.757-34.45 0-20.668 16.759-37.443 37.442-37.443 20.684 0 37.442 16.759 37.442 37.442z" fill="#4F2549"/><path d="M315.97 54.596c0 13.942-9.321 22.836-17.423 27.932-9.163 5.38-16.285 9.13-21.839 11.631a46.212 46.212 0 01-9.954-3.007 42.152 42.152 0 01-3.988-1.93c4.114-1.219 9.115-2.991 14.243-5.254 13.34-5.919 27.567-15.208 29.403-26.76 2.864-24.434-21.855-25.004-21.855-25.004s-16.759 2.089-16.759 16.236c1.187 13.483 13.214 12.17 13.214 12.17s8.894-.253 8.894-7.2c0-6.948-6.678-4.447-7.723-3.545 0 0-6.029 1.313-6.282-3.798-.269-5.112 6.235-7.549 9.163-7.723 2.927-.174 14.669 1.567 14.669 15.699 0 14.147-15.192 16.236-17.534 16.236-2.358 0-23.168-1.693-23.168-21.063 0-19.37 15.699-26.84 27.742-26.84 12.043.016 29.197 7.597 29.197 32.22z" fill="#fff"/><path d="M284.928 0c-26.174 0-47.459 21.3-47.459 47.475a47.403 47.403 0 0024.861 41.747 48.804 48.804 0 003.988 1.93 46.457 46.457 0 009.954 2.992 47.742 47.742 0 0025.368-2.232c8.941-3.355 16.6-9.29 22.123-17.123 5.65-8.023 8.641-17.47 8.641-27.314C332.404 21.285 311.103 0 284.928 0zm13.167 82.528a37.1 37.1 0 01-13.167 2.39 37.18 37.18 0 01-14.685-2.992c-13.373-5.712-22.757-18.974-22.757-34.45 0-20.684 16.759-37.443 37.442-37.443 20.684 0 37.427 16.759 37.427 37.442 0 16.047-10.081 29.72-24.26 35.053z" fill="#fff"/></svg>