<svg width="378" height="143" fill="none" xmlns="http://www.w3.org/2000/svg"><path d="M194.589 11.595c3.397 0 6.153-2.587 6.153-5.756 0-3.17-2.767-5.756-6.153-5.756-3.387 0-6.153 2.586-6.153 5.756 0 3.17 2.766 5.756 6.153 5.756zm24.247 10.302c3.398 0 6.153-2.587 6.153-5.756 0-3.17-2.766-5.757-6.153-5.757-3.386 0-6.153 2.587-6.153 5.756 0 3.17 2.767 5.757 6.153 5.757zm-49.402-.199c3.209 0 5.81-2.443 5.81-5.436 0-2.994-2.612-5.437-5.81-5.437-3.199 0-5.821 2.443-5.821 5.437 0 2.993 2.611 5.436 5.821 5.436zm60.868 12.833c2.136 0 3.873-1.629 3.873-3.62 0-1.993-1.737-3.622-3.873-3.622s-3.874 1.63-3.874 3.621c0 1.992 1.738 3.621 3.874 3.621zm-71.481-.055c2.136 0 3.873-1.629 3.873-3.621s-1.737-3.621-3.873-3.621-3.874 1.629-3.874 3.621 1.738 3.62 3.874 3.62zm208.367 79.804a17.973 17.973 0 005.677-3.522c1.616-1.497 2.922-3.28 3.807-5.261A15.102 15.102 0 00378 99.312V74.659c0-2.19-.476-4.27-1.328-6.186-.885-1.98-2.191-3.764-3.807-5.26a17.58 17.58 0 00-5.677-3.523 18.554 18.554 0 00-6.663-1.232H222.82a27.845 27.845 0 00-4.128-6.967 29.46 29.46 0 00-6.717-6.075 31.648 31.648 0 00-8.378-3.896 32.479 32.479 0 00-9.263-1.332c-3.22 0-6.341.462-9.274 1.332a31.3 31.3 0 00-8.377 3.896 29.676 29.676 0 00-6.718 6.075c-1.704 2.113-3.11 4.446-4.128 6.967H17.475c-2.347 0-4.604.44-6.663 1.233a17.77 17.77 0 00-5.677 3.521c-1.616 1.497-2.922 3.28-3.807 5.261A15.1 15.1 0 000 74.66v24.653c0 2.19.476 4.27 1.328 6.185.885 1.981 2.191 3.764 3.807 5.261a17.587 17.587 0 005.677 3.522 18.562 18.562 0 006.663 1.232h343.039c2.347 0 4.604-.44 6.663-1.232M11.731 61.77a15.938 15.938 0 015.744-1.056h148.938v.033h4.98c5.533-11.732 12.007-13.724 21.757-15.144 18.028-.803 24.126 15.144 24.126 15.144h5.611v-.033h137.627c2.037 0 3.973.374 5.744 1.057a15.303 15.303 0 014.892 3.037c1.383 1.288 2.512 2.829 3.275 4.535a13 13 0 011.14 5.304v24.654c0 1.882-.409 3.676-1.14 5.305-.763 1.706-1.892 3.246-3.275 4.534a15.31 15.31 0 01-4.892 3.038 15.946 15.946 0 01-5.744 1.056H17.474c-2.036 0-3.972-.374-5.743-1.056a15.3 15.3 0 01-4.892-3.038 13.935 13.935 0 01-3.275-4.534 13.01 13.01 0 01-1.14-5.305V74.647c0-1.882.41-3.675 1.14-5.304.763-1.706 1.892-3.247 3.275-4.535a15.294 15.294 0 014.892-3.037z" fill="#D1AA67"/><path d="M174.569 22.7v.176c.299 4.292-.509 7.407-2.368 9.256-1.45 1.442-3.531 2.135-6.375 2.135-.542 0-1.062-.022-1.549-.055h-.188l.088.143c1.981 3.258 2.568 6.02 1.749 8.2-.687 1.837-2.369 3.257-4.992 4.237l-.154.055.132.099c3.608 2.751 3.199 5.954 2.402 9.256l-.233.98.421-.925c5.666-12.294 17.12-19.635 30.633-19.635 14.21 0 26.771 7.891 31.264 19.624l.487 1.276-.299-1.331c-.985-4.38-.918-6.758 2.036-9.256l.089-.077-.089-.066c-.32-.242-.653-.474-.973-.705-3.287-2.333-6.12-4.347-2.435-11.424l.055-.11-1.195-.242c-5.666-1.156-9.086-1.849-9.518-11.138v-.143l-.143.066c-2.9 1.398-5.766 2.146-8.278 2.146-3.907 0-8.898-1.76-10.492-10.136l-.088-.44-.111.429c-1.649 6.35-5.921 10.136-11.421 10.136-2.601 0-5.401-.825-8.3-2.454l-.166-.088h.011v.01zm55.6 22.925c0 1.54 1.339 2.785 2.977 2.785s2.977-1.255 2.977-2.785c0-1.53-1.339-2.784-2.977-2.784s-2.977 1.254-2.977 2.784zm-74.835 3.676c1.649 0 2.977-1.255 2.977-2.784 0-1.53-1.339-2.785-2.977-2.785-1.637 0-2.977 1.255-2.977 2.785 0 1.53 1.34 2.784 2.977 2.784zM13.9 107.5h-1.195v1.739h27.357V107.5h-2.147c-2.81 0-5.157-.286-5.212-3.83l-.133-37.497a51.603 51.603 0 012.545-.055c6.065 0 9.628 1.189 11.222 3.731 2.457 3.93 1.538 9.047-.354 12.129-1.516 2.476-3.696 3.896-5.965 3.896h-.11c-3.266-.066-4.46-1.1-4.483-2.047-.022-.87.908-1.64 2.08-1.717 2.535-.121 4.162-.639 4.948-1.574.486-.573.641-1.299.475-2.168-.486-1.695-2.445-2.939-4.659-2.939-2.368 0-5.212 1.53-5.422 5.855-.122 1.684.376 3.104 1.483 4.226 2.335 2.334 6.784 2.829 10.104 2.829.376 0 .763 0 1.162-.022 4.426-.396 10.336-1.684 13.357-5.525 1.948-2.476 2.48-5.723 1.605-9.663-2.092-6.57-7.57-9.377-18.327-9.377l-29.416.12h-.1v1.63h.1c3.199.022 5.235.495 6.242 1.464.863.825.83 1.926.808 2.883v33.766c0 3.445-3.165 3.896-5.932 3.896m29.837-.022h-.1v1.739h18.116v-1.739h-.1c-3.596-.066-5.743-.715-6.562-1.992-1.129-1.761.365-4.501 1.959-7.407.332-.605.664-1.21.974-1.816 1.505.066 2.767.1 3.984.1 4.803 0 9.429-.573 10.834-4.766.222-.694.3-1.376.21-2.036l6.918 13.009c.852 1.716 1.007 2.927.475 3.698-.83 1.21-3.264 1.21-5.633 1.21h-.365v1.728h49.912v-1.739h-.111c-.365 0-.741 0-1.118.022-.398 0-.797.033-1.195.033-1.228 0-2.623-.121-3.586-1.034-.896-.848-1.317-2.268-1.294-4.337v-35.89a42.72 42.72 0 012.335-.055c12.184 0 13.202 4.964 13.202 10.037-.697 9.091-5.71 9.653-13.833 9.829h-.188l18.371 23.134h41.932c1.815-.022 3.685-1.078 4.98-2.817 1.55-2.058 1.992-4.579 1.195-6.736-.996-2.322-3.331-3.357-5.212-3.357-1.162 0-2.202.385-2.955 1.079-.852.792-1.295 1.98-1.295 3.434.122 1.254.576 2.41 3.044 2.41.686 0 1.516-.088 2.468-.275.686-.154 1.195.385 1.195 1.221 0 1.266-1.328 3.786-6.696 3.302-4.183-.11-5.71-1.728-5.832-6.174V69.398l24.325 39.885 24.668-39.896.166 30.52c0 .373 0 .759.022 1.133.045 1.849.089 3.588-1.184 4.798-1.107 1.057-3.132 1.574-6.164 1.574h-.509c-2.811-.341-4.316-1.585-4.35-2.63-.033-.837.842-1.508 2.313-1.772h.211c1.261 0 2.291-.308 2.977-.903a2.645 2.645 0 00.929-2.036c0-1.563-1.328-3.257-3.508-3.257-5.168.055-7.005 3.17-6.994 5.811 0 3.158 2.523 6.526 7.16 6.559h28.42v-1.739h-.542c-2.28 0-3.697-.374-4.593-1.221-.83-.793-1.218-2.048-1.173-3.831l.343-32.995c.022-3.698 2.335-4.105 7.249-4.105h.099v-1.585H205.6l-11.133 18.82-11.399-18.765-.033-.044h-34.064v1.75h.1c5.666.187 6.983.924 7.038 3.94l.255 33.028c.033 1.695-.432 3.049-1.339 3.919-.664.627-1.505.957-2.457.957-1.361 0-2.756-.693-3.829-1.904l-14.763-17.896c6.275-1.882 11.21-3.433 10.978-12.987-.166-7.362-6.751-10.818-20.695-10.873l-23.174.066c-5.445-.132-9.374 1.364-10.823 4.094-.92 1.728-.642 3.709.763 5.437 1.173 1.662 3.154 2.707 5.18 2.707 1.25 0 2.368-.396 3.12-1.133.742-.705 1.107-1.684 1.085-2.84-.022-1.706-2.003-2.058-3.752-2.366-1.261-.22-2.446-.43-2.745-1.09-.188-.418 0-1.012.543-1.805 1.018-1.232 2.656-1.937 4.504-1.937 1.726 0 3.409.617 4.504 1.64.852.804 1.306 1.805 1.306 2.906v32.709c0 3.973-2.39 5.756-4.759 5.756-2.091 0-4.083-1.287-5.201-3.378l-22.222-41.69-.089.153c-1.848 3.104-4.194 7.836-6.684 12.844-7.028 14.143-15.782 31.752-22.023 31.752m20.296-21.22c-.542.97-.62 1.817-.232 2.51.575 1.046 2.191 1.761 4.792 2.113.542.132 1.162.407 1.084.969-.154 1.122-2.855 2.62-5.411 2.62-.908 0-1.716-.177-2.413-.54-2.036-1.09-1.76-1.607-.918-3.126.143-.264.298-.55.464-.88l5.844-11.27 4.371 8.232c-1.217-1.166-3.076-1.937-4.78-1.937-1.34 0-2.336.462-2.8 1.31zm203.055 21.231h-1.782c-2.788 0-4.792-.308-5.112-4.292l-.178-33.546c-.011-3.874 3.143-4.215 6.95-4.248h.1v-1.607l-25.476.033h-.099v1.508h.332c3.452 0 5.101 1.144 5.179 3.62l-.089 34.889c.022 1.189-.265 2.048-.874 2.62-.985.935-2.756 1.023-4.471 1.023h-1.505v1.728h27.014v-1.739l.011.011zm2.313.012h-.763v1.727l28.973-.033c15.98 0 24.347-11.413 24.347-22.683s-8.311-22.771-26.605-22.771l-26.494-.044v1.43h.1c5.954 0 5.965 1.927 5.998 5.119l.088 33.149c.056 1.387-.232 2.367-.885 3.016-1.018.991-2.833 1.079-4.759 1.079m18.825-40.965c8.378-.363 12.948 1.486 15.516 4.854-2.601-3.18-7.205-5.206-15.516-4.843v-.022.011zm.343 38.598l-.343-38.388c16.622-.727 18.293 7.252 18.924 18.666.056.957.078 1.882.067 2.795-.1 6.725-1.86 12.063-5.069 15.221-2.058 2.025-4.571 3.049-7.492 3.049-1.915 0-3.962-.451-6.087-1.343z" fill="#D1AA67"/><path d="M311.632 107.489h-.1v1.739h17.929V107.5h-.089c-3.253-.11-5.633-.957-6.518-2.311-.587-.891-.565-2.025.077-3.346l3.066-5.503c1.306.132 2.567.198 3.763.198 6.839 0 10.967-2.135 11.332-5.855.044-.528 0-1.056-.144-1.574l7.183 13.285c.896 1.562 1.073 2.993.487 3.907-.498.781-1.494 1.177-2.977 1.188h-3.309v1.695l25.741.022v-1.717h-.111c-3.12 0-3.729-1.056-4.946-3.125-.189-.32-.388-.661-.609-1.013l-21.89-40.425-.089-.154-.088.154c-1.66 2.686-3.962 7.044-6.641 12.096-7.248 13.691-17.175 32.445-22.067 32.445m27.9-20.735c-1.24-1.255-2.988-2.036-4.571-2.036-1.306 0-2.357.54-2.966 1.508-.531.65-.83 1.772-.288 2.806.377.716 1.483 1.948 4.781 1.761.775-.088 1.306.187 1.483.716.177.517-.044 1.133-.498 1.43-1.472 1.024-3.486 1.651-5.257 1.651-1.483 0-2.578-.44-3.098-1.243-.598-.936-.399-2.334.575-4.062l5.799-10.235 4.35 8.045c-.1-.12-.211-.23-.31-.34z" fill="#D1AA67"/><path d="M131.541 136.017H44.19v1.541h87.351v-1.541zm2.932 1.375c.443 1.101.963 1.982 1.561 2.642 1.04 1.145 2.335 1.717 3.884 1.717.841 0 1.561-.253 2.181-.749.608-.495.918-1.188.918-2.08 0-.803-.31-1.496-.918-2.091-.399-.374-1.251-.935-2.535-1.695l-2.246-1.309c-.675-.397-1.218-.804-1.616-1.211-.742-.781-1.118-1.629-1.118-2.575 0-1.244.443-2.279 1.328-3.104.885-.826 2.047-1.233 3.508-1.233.598 0 1.317.143 2.169.418.842.276 1.328.419 1.45.419.321 0 .554-.077.675-.22.122-.144.222-.353.288-.617h.542l.576 5.239h-.631c-.432-1.574-1.118-2.674-2.058-3.302-.941-.627-1.882-.935-2.811-.935-.72 0-1.351.198-1.882.594-.531.396-.808.947-.808 1.651 0 .638.211 1.178.62 1.618.409.462 1.051.935 1.915 1.431l2.313 1.331c1.449.837 2.467 1.596 3.065 2.29.587.704.874 1.54.874 2.498 0 1.288-.52 2.366-1.56 3.236-1.04.869-2.368 1.298-3.995 1.298-.819 0-1.66-.143-2.546-.429-.885-.286-1.394-.429-1.527-.429-.31 0-.52.088-.62.264-.11.176-.177.363-.21.561h-.575l-.786-5.239h.609-.034v.011zm13.458 4.612c.918-.077 1.494-.231 1.737-.44.244-.209.365-.782.365-1.728v-5.734c0-.518-.044-.881-.11-1.079-.133-.33-.399-.495-.808-.495-.1 0-.188 0-.277.022-.088 0-.354.077-.775.187v-.374l.554-.165c1.494-.463 2.545-.804 3.132-1.035.243-.099.398-.143.465-.143a.484.484 0 01.022.176v8.629c0 .913.121 1.485.354 1.717.232.231.763.385 1.605.44v.341h-6.242v-.341l-.022.022zm2.047-16.058c.255-.242.576-.374.952-.374s.686.121.94.363c.266.242.388.54.388.892s-.133.638-.388.88a1.342 1.342 0 01-.94.363c-.365 0-.697-.121-.952-.363a1.178 1.178 0 01-.387-.88c0-.341.132-.639.387-.881zm5.224 16.058c.608-.077 1.04-.209 1.284-.429.243-.209.365-.683.365-1.42v-6.097c0-.507-.056-.87-.155-1.068-.166-.297-.498-.451-1.007-.451h-.244c-.077 0-.177.022-.299.033v-.418a97.939 97.939 0 002.491-.749l1.206-.374c.055 0 .099.022.11.055 0 .044.023.099.023.165v1.761c.785-.693 1.405-1.155 1.848-1.42a4.013 4.013 0 012.08-.594c.587 0 1.118.154 1.594.473.919.606 1.383 1.695 1.383 3.258v5.613c0 .572.122.991.366 1.244.243.253.664.385 1.239.396v.341h-5.489v-.341c.631-.077 1.062-.242 1.306-.484.243-.242.376-.771.376-1.596v-5.129c0-.693-.133-1.255-.409-1.717-.277-.451-.775-.682-1.506-.682-.498 0-1.018.165-1.538.484-.288.187-.664.484-1.129.914v6.724c0 .572.133.958.41 1.156.276.198.708.297 1.295.319v.341h-5.622v-.341l.022.022v.011zm22.001-10.224c.774.517 1.162 1.078 1.162 1.694 0 .265-.1.507-.299.738-.199.231-.498.341-.908.341a1.19 1.19 0 01-.785-.286c-.233-.187-.399-.473-.498-.837l-.155-.572c-.111-.429-.31-.726-.576-.902-.288-.165-.653-.253-1.118-.253-.973 0-1.803.396-2.467 1.199-.676.793-1.008 1.86-1.008 3.181 0 1.21.366 2.3 1.107 3.258.742.957 1.738 1.441 2.999 1.441a3.78 3.78 0 002.38-.814c.398-.308.841-.814 1.339-1.497l.354.209c-.487.958-.996 1.728-1.538 2.289-1.041 1.079-2.236 1.607-3.597 1.607-1.361 0-2.523-.495-3.542-1.474-1.029-.98-1.538-2.323-1.538-4.018 0-1.695.565-3.081 1.682-4.27 1.118-1.189 2.546-1.794 4.25-1.794 1.073 0 1.992.253 2.767.771m11.565.451c.907.781 1.361 1.893 1.361 3.324h-8.156c.088 1.849.531 3.202 1.35 4.05.819.847 1.782 1.265 2.888 1.265.897 0 1.66-.22 2.269-.66.62-.44 1.184-1.067 1.715-1.871l.454.143c-.354 1.024-1.007 1.959-1.97 2.829-.963.869-2.147 1.298-3.541 1.298-1.616 0-2.855-.572-3.73-1.705-.874-1.134-1.317-2.444-1.317-3.93 0-1.606.509-2.993 1.528-4.171 1.018-1.166 2.346-1.75 3.984-1.75 1.206 0 2.268.385 3.176 1.167m-6.153.913c-.277.43-.476.98-.587 1.629h5.423c-.089-.803-.255-1.398-.487-1.794-.421-.704-1.118-1.056-2.103-1.056-.985 0-1.726.407-2.235 1.21m17.773-7.209v14.605c0 .616.177 1.013.531 1.178.354.165 1.007.264 1.981.297v.341h-7.26v-.363c1.041-.044 1.716-.176 2.026-.396.321-.221.476-.683.476-1.409V129.05c0-.385-.056-.683-.155-.881-.1-.198-.321-.297-.664-.297-.222 0-.51.055-.864.176s-.686.242-.996.363v-.341l4.715-2.245h.155s.055.066.055.088m15.892 1.97c1.029 1.409 1.538 2.972 1.538 4.7 0 1.222-.243 2.454-.73 3.709a10.201 10.201 0 01-2.136 3.368c-1.085 1.133-2.468 1.981-4.139 2.531-.93.308-2.114.55-3.53.726l-.133-.484c.896-.187 1.638-.396 2.224-.616 1.063-.396 1.915-.87 2.568-1.442a9.932 9.932 0 002.18-2.707c.542-1.002.885-1.827 1.029-2.51l-.454.308c-.63.441-1.383.749-2.235.914a5.612 5.612 0 01-1.218.143c-1.46 0-2.611-.484-3.463-1.442-.853-.968-1.284-2.113-1.284-3.445 0-1.705.509-3.103 1.527-4.215 1.018-1.1 2.313-1.651 3.896-1.651 1.881 0 3.342.705 4.371 2.113m-2.191 7.121c.619-.308.974-.561 1.062-.77.033-.077.067-.374.089-.892.022-.517.044-.935.044-1.254 0-1.662-.299-3.016-.908-4.062-.597-1.045-1.482-1.562-2.633-1.562-.842 0-1.517.352-2.048 1.067-.52.716-.775 1.772-.775 3.192 0 1.167.244 2.245.731 3.247.487.99 1.361 1.485 2.634 1.485.586 0 1.184-.154 1.804-.451zm15.339-7.121c1.029 1.409 1.538 2.972 1.538 4.7 0 1.222-.244 2.454-.731 3.709a10.199 10.199 0 01-2.135 3.368c-1.085 1.133-2.468 1.981-4.139 2.531-.93.308-2.114.55-3.531.726l-.133-.484c.897-.187 1.638-.396 2.225-.616 1.062-.396 1.914-.87 2.567-1.442a9.936 9.936 0 002.181-2.707c.542-1.002.885-1.827 1.029-2.51l-.454.308c-.631.441-1.383.749-2.235.914a5.619 5.619 0 01-1.218.143c-1.461 0-2.612-.484-3.464-1.442-.852-.968-1.284-2.113-1.284-3.445 0-1.705.51-3.103 1.528-4.215 1.018-1.1 2.313-1.651 3.895-1.651 1.882 0 3.342.705 4.372 2.113m-2.192 7.121c.62-.308.974-.561 1.063-.77.033-.077.066-.374.088-.892.023-.517.045-.935.045-1.254 0-1.662-.299-3.016-.908-4.062-.597-1.045-1.483-1.562-2.634-1.562-.841 0-1.516.352-2.047 1.067-.52.716-.775 1.772-.775 3.192 0 1.167.244 2.245.731 3.247.487.99 1.361 1.485 2.634 1.485.586 0 1.184-.154 1.803-.451zm7.249-2.884c-.631-.77-.952-1.617-.952-2.542 0-1.057.465-1.959 1.406-2.696.94-.738 2.158-1.101 3.652-1.101 1.383 0 2.479.352 3.287 1.046.808.693 1.217 1.507 1.217 2.432 0 .924-.42 1.783-1.25 2.52-.476.429-1.251.914-2.325 1.464 1.461 1.013 2.502 1.893 3.132 2.63.631.749.941 1.629.941 2.653 0 1.155-.465 2.124-1.394 2.905-.93.782-2.169 1.178-3.73 1.178-1.394 0-2.59-.363-3.597-1.09-.996-.726-1.494-1.683-1.494-2.861 0-1.013.343-1.915 1.041-2.686.453-.506 1.239-1.111 2.368-1.816-1.129-.847-1.904-1.529-2.313-2.025m6.363 9.036c.509-.506.753-1.155.753-1.915 0-.869-.266-1.574-.808-2.113-.531-.539-1.638-1.354-3.298-2.454-.741.429-1.273.99-1.605 1.684-.332.682-.498 1.353-.498 1.992 0 1.1.299 1.97.908 2.619.609.65 1.372.969 2.302.969.985 0 1.726-.253 2.235-.771m-.398-9.729c.531-.616.797-1.365.797-2.234 0-.76-.255-1.409-.753-1.937s-1.261-.804-2.28-.804c-.785 0-1.438.231-1.947.694-.509.462-.775 1.023-.775 1.695 0 .748.299 1.452.907 2.091.609.638 1.395 1.243 2.38 1.816.808-.529 1.361-.969 1.671-1.332m81.806 4.579h-76.051v1.541h76.051v-1.541z" fill="#D2AB67"/></svg>