<svg width="323" height="134" fill="none" xmlns="http://www.w3.org/2000/svg"><g clip-path="url(#clip0_2015_1556)" fill="#ED1F2D"><path d="M163.609 68.958v24.375c0 2.156.863 4.224 2.398 5.75a8.218 8.218 0 005.79 2.381 8.218 8.218 0 005.79-2.382 8.105 8.105 0 002.398-5.75V68.959a40.447 40.447 0 019.698-26.262 40.97 40.97 0 0124.498-13.808 8.194 8.194 0 005.247-3.324 8.091 8.091 0 00-1.91-11.276 8.232 8.232 0 00-6.054-1.436c-13.371 2.219-25.517 9.073-34.279 19.346a56.66 56.66 0 00-13.576 36.76zm-16.357 32.486a8.201 8.201 0 01-3.129-.612 8.15 8.15 0 01-2.653-1.758 8.046 8.046 0 01-2.387-5.742V44.583a8.067 8.067 0 01.505-3.23 8.121 8.121 0 011.746-2.77 8.179 8.179 0 012.703-1.865 8.237 8.237 0 019.152 1.864 8.119 8.119 0 011.745 2.771 8.086 8.086 0 01.506 3.23v48.749a8.058 8.058 0 01-.624 3.109 8.106 8.106 0 01-1.776 2.634 8.205 8.205 0 01-5.788 2.37zm0-73.104a8.227 8.227 0 01-4.549-1.37 8.137 8.137 0 01-3.016-3.65 8.076 8.076 0 01-.466-4.697 8.115 8.115 0 012.241-4.163 8.206 8.206 0 014.192-2.226 8.243 8.243 0 014.731.463 8.179 8.179 0 013.675 2.995 8.096 8.096 0 01.761 7.632 8.095 8.095 0 01-1.774 2.64 8.18 8.18 0 01-2.659 1.762 8.223 8.223 0 01-3.136.614zM56.063 78.655l-.361-.359-11.399-11.32-11.57-11.488-11.398-11.32a.888.888 0 01-.19-.188 16.207 16.207 0 01-4.406-8.32 16.139 16.139 0 01.973-9.35 16.27 16.27 0 016.027-7.25 16.44 16.44 0 019.06-2.72c3.225 0 6.378.946 9.062 2.72a16.27 16.27 0 016.027 7.25 16.139 16.139 0 01.973 9.35 16.207 16.207 0 01-4.406 8.32 8.1 8.1 0 00-2.16 5.675 8.104 8.104 0 002.395 5.58 8.216 8.216 0 005.62 2.38 8.221 8.221 0 005.715-2.146l.304-.302a32.43 32.43 0 008.713-16.654 32.296 32.296 0 00-2.009-18.661A32.559 32.559 0 0050.97 5.404 32.897 32.897 0 0032.877-.014 32.897 32.897 0 0014.78 5.404 32.558 32.558 0 002.72 19.852 32.296 32.296 0 00.71 38.513a32.43 32.43 0 008.714 16.654l.133.132.361.377 11.399 11.32 3.058 3.056 8.492 8.433 2.3 2.434 9.023 8.96.19.17a16.226 16.226 0 014.422 8.33 16.157 16.157 0 01-.968 9.366 16.28 16.28 0 01-6.033 7.264 16.454 16.454 0 01-9.076 2.726c-3.23 0-6.387-.948-9.076-2.726a16.281 16.281 0 01-6.033-7.264 16.155 16.155 0 01-.968-9.366 16.226 16.226 0 014.422-8.33 8.133 8.133 0 001.914-2.642 8.083 8.083 0 00-1.688-9.09 8.194 8.194 0 00-2.738-1.79 8.24 8.24 0 00-6.422.142 8.185 8.185 0 00-2.655 1.91l-.304.321A32.43 32.43 0 00.462 95.554a32.296 32.296 0 002.01 18.661 32.556 32.556 0 0012.062 14.448 32.893 32.893 0 0018.095 5.418c6.437 0 12.73-1.884 18.095-5.418a32.556 32.556 0 0012.062-14.448 32.295 32.295 0 002.01-18.661A32.428 32.428 0 0056.081 78.9l-.133-.15"/><path d="M255.539 57.469L232.343 80.54a16.398 16.398 0 01-8.379 4.376c-3.166.606-6.441.27-9.416-.967a16.337 16.337 0 01-7.3-5.984 16.164 16.164 0 01-2.739-8.998c0-3.202.953-6.333 2.739-8.999a16.337 16.337 0 017.3-5.984 16.464 16.464 0 019.416-.967 16.398 16.398 0 018.379 4.376 8.216 8.216 0 005.764 2.372 8.217 8.217 0 005.773-2.348 8.103 8.103 0 002.432-5.706 8.103 8.103 0 00-2.323-5.751l-.304-.283a32.795 32.795 0 00-16.761-8.645 32.928 32.928 0 00-18.78 1.996A32.666 32.666 0 00193.605 51a32.322 32.322 0 00-5.452 17.957 32.322 32.322 0 005.452 17.957 32.666 32.666 0 0014.539 11.972 32.925 32.925 0 0018.78 1.996 32.795 32.795 0 0016.761-8.645l11.854-11.79 3.078-3.057 19.966-19.828.19-.188a16.398 16.398 0 018.379-4.376 16.463 16.463 0 019.416.967 16.332 16.332 0 017.3 5.984 16.164 16.164 0 012.739 8.999c0 3.202-.953 6.332-2.739 8.998a16.331 16.331 0 01-7.3 5.984 16.463 16.463 0 01-9.416.967 16.4 16.4 0 01-8.379-4.375 8.22 8.22 0 00-5.714-2.146 8.218 8.218 0 00-5.62 2.38 8.103 8.103 0 00-2.396 5.58 8.097 8.097 0 002.161 5.675l.323.302a32.808 32.808 0 0016.77 8.66 32.942 32.942 0 0018.796-1.99 32.686 32.686 0 0014.554-11.979 32.347 32.347 0 005.457-17.971 32.347 32.347 0 00-5.457-17.972 32.685 32.685 0 00-14.554-11.978 32.946 32.946 0 00-18.796-1.991 32.812 32.812 0 00-16.77 8.66L255.539 57.47zm-132.794 43.9a8.22 8.22 0 01-5.815-2.368 8.097 8.097 0 01-2.411-5.763V68.826a16.164 16.164 0 00-2.814-8.976 16.334 16.334 0 00-7.349-5.925 16.466 16.466 0 00-9.425-.89 16.392 16.392 0 00-8.342 4.445 16.209 16.209 0 00-4.465 8.289 16.138 16.138 0 00.906 9.357 16.267 16.267 0 005.975 7.292 16.437 16.437 0 009.043 2.784c2.1.1 4.082 1 5.533 2.512a8.1 8.1 0 012.26 5.61 8.1 8.1 0 01-2.26 5.609 8.215 8.215 0 01-5.534 2.512h-.417a32.889 32.889 0 01-18.003-5.71 32.547 32.547 0 01-11.824-14.64A32.293 32.293 0 0166.1 62.404a32.439 32.439 0 018.984-16.51 32.805 32.805 0 0116.677-8.828 32.946 32.946 0 0118.812 1.799 32.692 32.692 0 0114.675 11.825 32.352 32.352 0 015.647 17.91v24.638c0 2.15-.858 4.213-2.385 5.737a8.217 8.217 0 01-5.765 2.394z"/></g><defs><clipPath id="clip0_2015_1556"><path fill="#fff" transform="translate(0 .042)" d="M0 0h323v133.908H0z"/></clipPath></defs></svg>