<svg width="448" height="187" fill="none" xmlns="http://www.w3.org/2000/svg"><g clip-path="url(#clip0_313_14716)" fill="#fff"><path d="M226.925 96.24v34.039a11.354 11.354 0 0011.357 11.355 11.36 11.36 0 0011.356-11.355V96.241a56.731 56.731 0 0147.43-55.958 11.356 11.356 0 00-3.768-22.394 79.476 79.476 0 00-47.546 27.016 79.45 79.45 0 00-18.829 51.335zm-22.687 45.366a11.296 11.296 0 01-8.02-3.31 11.315 11.315 0 01-3.31-8.018V62.201a11.347 11.347 0 013.122-8.38 11.35 11.35 0 018.221-3.522 11.36 11.36 0 0110.642 7.392c.537 1.44.775 2.975.701 4.51v68.077a11.325 11.325 0 01-7.012 10.474 11.337 11.337 0 01-4.344.854zm-.001-102.088a11.358 11.358 0 01-11.138-13.57 11.354 11.354 0 0115.484-8.276 11.358 11.358 0 017.011 10.491 11.327 11.327 0 01-7.007 10.498c-1.379.569-2.857.86-4.35.857zM77.759 109.781l-.5-.5-15.81-15.808L45.4 77.43 29.59 61.623a1.22 1.22 0 01-.263-.264A22.683 22.683 0 0145.493 22.76 22.69 22.69 0 0166.42 36.682a22.68 22.68 0 01-4.761 24.676A11.354 11.354 0 0069.78 80.4a11.36 11.36 0 007.926-2.997l.422-.422a45.39 45.39 0 00-32.53-77.06A45.406 45.406 0 003.772 27.665a45.386 45.386 0 009.299 49.317l.184.185.501.527L29.565 93.5l4.242 4.268 11.779 11.776 3.188 3.399 12.516 12.514.264.237a22.71 22.71 0 01-16.166 38.663 22.719 22.719 0 01-20.956-13.951 22.705 22.705 0 014.79-24.712 11.355 11.355 0 10-16.073-16.018l-.422.448a45.388 45.388 0 007.432 69.493 45.402 45.402 0 0066.925-20.176 45.385 45.385 0 00-9.299-49.317l-.184-.211"/><path d="M354.432 80.196l-32.173 32.22a22.694 22.694 0 01-24.681 4.76 22.681 22.681 0 010-41.846 22.692 22.692 0 0124.681 4.76 11.357 11.357 0 0016.152-15.965l-.421-.395a45.38 45.38 0 00-69.46 7.433 45.359 45.359 0 000 50.154 45.38 45.38 0 0069.46 7.433l16.442-16.466 4.269-4.268 27.693-27.689.264-.263a22.688 22.688 0 0138.605 16.163 22.687 22.687 0 01-38.605 16.163 11.356 11.356 0 00-16.047 16.044l.448.422a45.403 45.403 0 0069.516-7.414 45.386 45.386 0 000-50.193 45.407 45.407 0 00-69.516-7.413l-16.627 16.36zm-184.186 61.306a11.365 11.365 0 01-8.065-3.307 11.355 11.355 0 01-3.345-8.048V96.056a22.677 22.677 0 00-14.096-20.81 22.69 22.69 0 00-30.835 16.54 22.676 22.676 0 009.544 23.251 22.692 22.692 0 0012.542 3.887 11.358 11.358 0 017.675 19.175 11.355 11.355 0 01-7.675 3.508h-.58a45.405 45.405 0 01-41.369-28.418 45.389 45.389 0 0110.099-49.158 45.398 45.398 0 0149.223-9.815A45.397 45.397 0 01181.55 95.74v34.407a11.354 11.354 0 01-11.304 11.355z"/></g><defs><clipPath id="clip0_313_14716"><path fill="#fff" d="M0 0h448v187H0z"/></clipPath></defs></svg>