<?xml version="1.0" encoding="utf-8"?><svg viewBox="0 0 68 68" xmlns="http://www.w3.org/2000/svg" xmlns:xlink="http://www.w3.org/1999/xlink"><style>:root>svg{display:none}:root>svg:target{display:block}</style><svg fill="none" viewBox="0 0 18 27" id="icon-arrow-next" xmlns="http://www.w3.org/2000/svg"><path fill-rule="evenodd" clip-rule="evenodd" d="M13.392 13.5L0 24.721 1.889 27 18 13.5 1.889 0 0 2.279 13.392 13.5z" fill="currentColor"/></svg><svg fill="none" viewBox="0 0 45 19" id="icon-arrow-top" xmlns="http://www.w3.org/2000/svg"><path d="M1 17L22.5 2 44 17" stroke="currentColor" stroke-width="3"/></svg><svg fill="none" viewBox="0 0 20 20" id="icon-check-white" xmlns="http://www.w3.org/2000/svg"><path d="M16 6l-8.25 8L4 9.91" stroke="#fff" stroke-width="2" stroke-linecap="round" stroke-linejoin="round"/></svg><svg fill="none" viewBox="0 0 16 16" id="icon-close" xmlns="http://www.w3.org/2000/svg"><path fill-rule="evenodd" clip-rule="evenodd" d="M14.5 2.348L2.348 14.5l-.848-.848L13.652 1.5l.848.848z" fill="currentColor"/><path fill-rule="evenodd" clip-rule="evenodd" d="M13.652 14.5L1.5 2.348l.848-.848L14.5 13.652l-.848.848z" fill="currentColor"/></svg><svg fill="none" viewBox="0 0 43 15" id="icon-close-wide" xmlns="http://www.w3.org/2000/svg"><path fill-rule="evenodd" clip-rule="evenodd" d="M.776 14.027l41.535-11.13L41.535 0 0 11.13l.776 2.897z" fill="currentColor"/><path fill-rule="evenodd" clip-rule="evenodd" d="M41.535 14.027L0 2.897.777 0l41.535 11.13-.777 2.897z" fill="currentColor"/></svg><svg fill="none" viewBox="0 0 32 32" id="icon-pdf" xmlns="http://www.w3.org/2000/svg"><path d="M11.023 19.573c-.246 0-.411.024-.496.048v1.57c.1.025.228.032.402.032.639 0 1.032-.323 1.032-.868 0-.488-.338-.782-.938-.782zm4.649.016c-.267 0-.44.024-.543.048v3.48c.103.024.268.024.418.024 1.089.008 1.798-.592 1.798-1.861.008-1.107-.638-1.69-1.673-1.69z" fill="currentColor"/><path d="M18.667 2.667H8a2.667 2.667 0 00-2.667 2.666v21.334A2.667 2.667 0 008 29.333h16a2.666 2.666 0 002.667-2.666v-16l-8-8zm-6.003 18.92c-.412.386-1.02.56-1.728.56a2.966 2.966 0 01-.41-.024v1.901H9.332v-5.248a10.08 10.08 0 011.626-.11c.742 0 1.27.142 1.626.426.339.27.568.71.568 1.23-.001.523-.174.965-.49 1.265zm5.076 1.806c-.56.466-1.412.687-2.453.687-.624 0-1.066-.04-1.366-.08v-5.223a10.61 10.61 0 011.626-.11c1.009 0 1.665.181 2.177.568.553.41.9 1.065.9 2.005 0 1.017-.372 1.72-.884 2.153zm4.927-3.7h-2.043v1.215h1.91v.979h-1.91v2.138h-1.208v-5.318h3.25v.986zm-4-7.693h-1.334V5.333L24 12h-5.333z" fill="currentColor"/></svg><svg fill="none" viewBox="0 0 68 68" id="icon-play" xmlns="http://www.w3.org/2000/svg"><g clip-path="url(#gclip0_96_3902)"><mask id="ga" style="mask-type:luminance" maskUnits="userSpaceOnUse" x="0" y="0" width="68" height="68"><path d="M0 0h68v68H0V0z" fill="#fff"/></mask><g mask="url(#ga)"><path fill-rule="evenodd" clip-rule="evenodd" d="M59.526 30.32L23.374 9.422A4.25 4.25 0 0017 13.102v41.795a4.25 4.25 0 006.375 3.68l36.15-20.896a4.25 4.25 0 000-7.361zm3.187 12.877c7.076-4.089 7.076-14.306 0-18.398L26.567 3.9c-7.08-4.092-15.942 1.02-15.942 9.202v41.794c0 8.181 8.861 13.294 15.942 9.197l36.146-20.897z" fill="#fff"/></g></g><defs><clipPath id="gclip0_96_3902"><path fill="#fff" d="M0 0h68v68H0z"/></clipPath></defs></svg><svg fill="none" viewBox="0 0 24 25" id="icon-star-filled" xmlns="http://www.w3.org/2000/svg"><path d="M12 3.5a1.5 1.5 0 011.305.762l2.307 4.085 4.173.805a1.5 1.5 0 01.807 2.5l-3.026 3.218.768 4.899A1.5 1.5 0 0116.2 21.35L12 19.322 7.8 21.35a1.5 1.5 0 01-2.135-1.583l.768-4.899-3.025-3.216a1.5 1.5 0 01.807-2.5l4.173-.805 2.305-4.085A1.5 1.5 0 0112 3.5z" fill="#F91045"/></svg></svg>