<svg width="427" height="124" fill="none" xmlns="http://www.w3.org/2000/svg"><rect width="427" height="124" rx="24" fill="url(#paint0_linear_82_1411)"/><path d="M50.56 81.27L40 42.691h6.927l8.115 29.629 8.697-29.631 6.457.002 8.726 29.788 8.151-29.78 6.928-.01-10.566 38.574-8.03-.009-8.434-28.81-8.446 28.817-7.965.009zm48.218-38.559h6.594v38.532h-6.594V42.71zM119.472 75.2h16.053v6.044h-22.512V42.711h6.459V75.2zm36.337-32.444c5.412 0 9.915 1.865 13.462 5.555 3.593 3.689 5.41 8.266 5.41 13.689 0 5.377-1.818 9.956-5.412 13.689-3.547 3.688-8.049 5.555-13.461 5.555h-15.507V42.711h15.508v.045zm0 32.488c3.73 0 6.776-1.244 9.051-3.733 2.364-2.488 3.546-5.69 3.546-9.467 0-3.867-1.182-6.977-3.546-9.467-2.321-2.488-5.367-3.733-9.051-3.733h-9.004v26.4h9.004zm53.665-5.007c0 3.157-1.136 5.78-3.456 7.87-2.319 2.09-5.049 3.157-8.413 3.157h-16.874V42.711h15.645c3.23 0 5.957 1.068 8.186 3.068 2.275 2.045 3.366 4.581 3.366 7.604 0 3.38-1.365 5.958-4.002 7.871 3.456 1.779 5.548 4.98 5.548 8.983zM187.235 48.67v10.139h9.186c2.866 0 5.049-2.225 5.049-5.07 0-2.846-2.183-5.069-5.049-5.069h-9.186zm10.414 26.636c3.002 0 5.368-2.357 5.368-5.38 0-3.025-2.366-5.382-5.368-5.382h-10.414V75.35h10.414v-.044zm24.422-.089h17.465v6.047h-23.922V42.711h23.649v6.048h-17.192v10.005h15.782v6.003h-15.782v10.45zm45.753 6.047l-8.369-14.051h-7.641v14.051h-6.457V42.711h15.78c3.548 0 6.55 1.2 8.96 3.646 2.456 2.357 3.73 5.292 3.73 8.76 0 4.892-3.138 9.383-7.822 11.162l8.958 14.985h-7.139zm-16.01-32.594v12.896h9.279c3.455 0 6.185-2.847 6.185-6.449 0-3.557-2.774-6.447-6.185-6.447h-9.279zm50.528 32.594l-8.323-14.058h-7.641v14.058h-6.457V42.691h15.78c3.548 0 6.55 1.2 8.96 3.649 2.456 2.357 3.73 5.294 3.73 8.764 0 4.895-3.138 9.387-7.822 11.167l8.958 14.993h-7.185zm-15.964-32.611v12.903h9.279c3.455 0 6.185-2.849 6.185-6.452 0-3.56-2.774-6.451-6.185-6.451h-9.279zm27.879-5.957h6.459v38.568h-6.459V42.696zm20.557 32.521h17.464v6.047h-23.923V42.711h23.649v6.048h-17.19v10.005h15.78v6.003h-15.78v10.45zm21.967-2.728l5.593-3.2c1.592 4.357 4.821 6.488 9.778 6.488 4.911 0 7.322-2.043 7.322-5.066 0-1.6-.682-2.757-1.955-3.557-1.274-.843-3.639-1.777-7.004-2.754-3.775-1.111-5.639-1.823-8.278-3.511-2.546-1.778-3.82-4.312-3.82-7.778 0-3.422 1.228-6.088 3.73-8.088 2.456-2.046 5.458-3.023 8.96-3.023 6.321 0 11.187 3.2 13.734 8.489l-5.458 3.067c-1.638-3.556-4.411-5.379-8.276-5.379-3.776 0-6.187 1.867-6.187 4.8 0 2.846 1.911 4.179 7.96 6 1.501.49 2.592.846 3.274 1.112.728.222 1.682.622 2.91 1.111 1.275.489 2.275 1.067 2.867 1.556 2.091 1.6 4.319 4.221 4.046 7.911 0 3.466-1.273 6.266-3.865 8.31C379.565 81.023 376.2 82 372.016 82c-7.641-.044-13.19-3.6-15.235-9.511z" fill="#fff"/><defs><linearGradient id="paint0_linear_82_1411" x1="0" y1="62" x2="427" y2="62" gradientUnits="userSpaceOnUse"><stop stop-color="#ED3CCA"/><stop offset="1" stop-color="#7C1AF8"/></linearGradient></defs></svg>